<?xml version="1.0" encoding="iso-8859-1"?>
<!-- Generator: Adobe Illustrator 19.0.0, SVG Export Plug-In . SVG Version: 6.00 Build 0)  -->
<svg version="1.1" id="Capa_1" xmlns="http://www.w3.org/2000/svg" xmlns:xlink="http://www.w3.org/1999/xlink" x="0px" y="0px"
	 viewBox="0 0 512 512" style="enable-background:new 0 0 512 512;" xml:space="preserve">
<g>
	<g>
		<path d="M496.483,64.128H55.597C24.94,64.128,0,89.068,0,119.725v192.387c0,12.976,10.557,23.532,23.532,23.532h8.017
			c12.976,0,23.532-10.557,23.532-23.532V151.79c0-4.705,3.827-8.532,8.532-8.532h40.322l30.051,276.474
			c1.744,16.042,15.229,28.139,31.364,28.139h213.363c16.136,0,29.62-12.097,31.364-28.139l23.793-218.897L507.7,96.137
			c2.813-3.99,4.3-8.679,4.3-13.561v-2.932C512,71.088,505.039,64.128,496.483,64.128z M63.613,128.257
			c-12.976,0-23.532,10.557-23.532,23.532v160.322c0,4.705-3.827,8.532-8.532,8.532h-8.017c-4.705,0-8.532-3.828-8.532-8.532
			V119.725c0-22.385,18.212-40.597,40.597-40.597h41.368l5.34,49.129H63.613z M497.001,82.577H497c0,1.77-0.539,3.471-1.559,4.917
			l-58.226,82.569l7.126-65.564c0.447-4.118-2.527-7.819-6.646-8.267c-4.127-0.445-7.819,2.528-8.267,6.646l-34.262,315.232
			c-0.915,8.415-7.988,14.761-16.452,14.761H165.351c-8.464,0-15.537-6.346-16.452-14.76L112.053,79.128h384.431
			c0.285,0,0.517,0.231,0.517,0.516V82.577z"/>
	</g>
</g>
<g>
	<g>
		<path d="M368.226,400.806H175.839c-4.143,0-7.5,3.358-7.5,7.5c0,4.142,3.357,7.5,7.5,7.5h192.387c4.143,0,7.5-3.358,7.5-7.5
			C375.726,404.164,372.368,400.806,368.226,400.806z"/>
	</g>
</g>
<g>
	<g>
		<path d="M239.968,112.225h-48.097c-4.143,0-7.5,3.358-7.5,7.5c0,4.142,3.358,7.5,7.5,7.5h48.097c4.143,0,7.5-3.358,7.5-7.5
			C247.468,115.583,244.111,112.225,239.968,112.225z"/>
	</g>
</g>
<g>
	<g>
		<path d="M239.968,208.418h-48.097c-4.143,0-7.5,3.358-7.5,7.5c0,4.142,3.358,7.5,7.5,7.5h48.097c4.143,0,7.5-3.358,7.5-7.5
			C247.468,211.776,244.111,208.418,239.968,208.418z"/>
	</g>
</g>
<g>
	<g>
		<path d="M239.968,304.612h-48.097c-4.143,0-7.5,3.358-7.5,7.5c0,4.142,3.358,7.5,7.5,7.5h48.097c4.143,0,7.5-3.358,7.5-7.5
			C247.468,307.97,244.111,304.612,239.968,304.612z"/>
	</g>
</g>
<g>
	<g>
		<path d="M223.936,144.29h-16.032c-4.143,0-7.5,3.358-7.5,7.5c0,4.142,3.357,7.5,7.5,7.5h16.032c4.143,0,7.5-3.358,7.5-7.5
			C231.436,147.648,228.078,144.29,223.936,144.29z"/>
	</g>
</g>
<g>
	<g>
		<path d="M223.936,240.483h-16.032c-4.143,0-7.5,3.358-7.5,7.5c0,4.142,3.357,7.5,7.5,7.5h16.032c4.143,0,7.5-3.358,7.5-7.5
			C231.436,243.841,228.078,240.483,223.936,240.483z"/>
	</g>
</g>
<g>
	<g>
		<path d="M223.936,176.354h-16.032c-4.143,0-7.5,3.358-7.5,7.5c0,4.142,3.357,7.5,7.5,7.5h16.032c4.143,0,7.5-3.358,7.5-7.5
			C231.436,179.712,228.078,176.354,223.936,176.354z"/>
	</g>
</g>
<g>
	<g>
		<path d="M223.936,272.547h-16.032c-4.143,0-7.5,3.358-7.5,7.5c0,4.142,3.357,7.5,7.5,7.5h16.032c4.143,0,7.5-3.358,7.5-7.5
			C231.436,275.905,228.078,272.547,223.936,272.547z"/>
	</g>
</g>
<g>
	<g>
		<path d="M223.936,368.741h-16.032c-4.143,0-7.5,3.358-7.5,7.5c0,4.142,3.357,7.5,7.5,7.5h16.032c4.143,0,7.5-3.358,7.5-7.5
			C231.436,372.099,228.078,368.741,223.936,368.741z"/>
	</g>
</g>
<g>
	<g>
		<path d="M223.936,336.676h-16.032c-4.143,0-7.5,3.358-7.5,7.5c0,4.142,3.357,7.5,7.5,7.5h16.032c4.143,0,7.5-3.358,7.5-7.5
			C231.436,340.034,228.078,336.676,223.936,336.676z"/>
	</g>
</g>
<g>
</g>
<g>
</g>
<g>
</g>
<g>
</g>
<g>
</g>
<g>
</g>
<g>
</g>
<g>
</g>
<g>
</g>
<g>
</g>
<g>
</g>
<g>
</g>
<g>
</g>
<g>
</g>
<g>
</g>
</svg>
