<svg height="512pt" viewBox="0 0 512.001 512" width="512pt" xmlns="http://www.w3.org/2000/svg"><path d="m0 148.992188h152.398438v272.546874h-152.398438zm0 0"/><path d="m257.28125 59.09375h-242.296875c-8.277344 0-14.984375 6.707031-14.984375 14.980469v44.953125h167.382812c8.273438 0 14.980469 6.707031 14.980469 14.980468v302.515626c0 8.273437-6.707031 14.984374-14.980469 14.984374h-167.382812v44.925782c0 8.273437 6.707031 14.984375 14.984375 14.984375h242.296875c8.273438 0 14.984375-6.710938 14.984375-14.984375v-422.359375c0-8.273438-6.710937-14.980469-14.984375-14.980469zm0 0"/><path d="m212.332031 14.984375c0-8.273437-6.710937-14.984375-14.984375-14.984375h-122.429687c-8.277344 0-14.984375 6.710938-14.984375 14.984375v14.140625h152.398437zm0 0"/><path d="m497.015625 89.058594h-194.785156v387.183594c6.824219-4.222657 12.15625-10.769532 14.796875-18.789063l25.691406-77.953125h154.296875c8.277344 0 14.984375-6.707031 14.984375-14.984375v-260.472656c0-8.273438-6.707031-14.984375-14.984375-14.984375zm-134.851563 74.917968c0 8.273438-6.707031 14.984376-14.980468 14.984376-8.277344 0-14.984375-6.710938-14.984375-14.984376v-19.976562c0-8.277344 6.707031-14.984375 14.984375-14.984375 8.273437 0 14.980468 6.707031 14.980468 14.984375zm59.933594 0c0 8.273438-6.707031 14.984376-14.980468 14.984376-8.277344 0-14.984376-6.710938-14.984376-14.984376v-19.976562c0-8.277344 6.707032-14.984375 14.984376-14.984375 8.273437 0 14.980468 6.707031 14.980468 14.984375zm59.933594 0c0 8.273438-6.707031 14.984376-14.980469 14.984376-8.277343 0-14.984375-6.710938-14.984375-14.984376v-19.976562c0-8.277344 6.707032-14.984375 14.984375-14.984375 8.273438 0 14.980469 6.707031 14.980469 14.984375zm0 0"/></svg>