<svg fill="#ffffff" viewBox="0 0 464 464" xmlns="http://www.w3.org/2000/svg">
  <path d="m229.910156 114.734375c7.304688-8.351563 16.394532-18.734375 34.027344-18.734375 17.628906 0 26.726562 10.382812 34.03125 18.726562 7.421875 8.480469 12.101562 13.273438 22 13.273438 9.894531 0 14.574219-4.800781 22-13.273438 2.136719-2.4375 4.34375-4.910156 6.773438-7.253906l-29.636719-45.585937c-12.183594-18.71875-32.777344-29.886719-55.097657-29.886719-22.335937 0-42.929687 11.175781-55.105468 29.902344l-30.109375 46.328125c7.734375 4.769531 14.703125 10.777343 20.550781 17.984375 2.59375 1.128906 5.382812 1.785156 8.601562 1.785156 9.886719 0 14.550782-4.792969 21.964844-13.265625zm0 0"/><path d="m136.007812 112c-22.335937 0-42.929687 11.175781-55.105468 29.902344l-23.511719 36.175781c.203125.226563.410156.441406.609375.664063 7.398438 8.464843 12.070312 13.257812 21.945312 13.257812 9.878907 0 14.550782-4.792969 21.964844-13.265625 7.304688-8.351563 16.394532-18.734375 34.027344-18.734375 17.628906 0 26.726562 10.382812 34.03125 18.726562 7.421875 8.480469 12.101562 13.273438 22 13.273438 9.886719 0 14.566406-4.792969 21.992188-13.257812.207031-.238282.429687-.46875.648437-.710938l-23.503906-36.136719c-12.183594-18.726562-32.777344-29.894531-55.097657-29.894531zm0 0"/><path d="m80 64c0 13.253906-10.746094 24-24 24s-24-10.746094-24-24 10.746094-24 24-24 24 10.746094 24 24zm0 0"/><path d="m456 152-32-42.664062-8 10.664062-24 32zm0 0"/><path d="m152.71875 272h-32.320312c4.035156 40.367188 38.1875 72 79.59375 72s75.566406-31.632812 79.59375-72h-32.320313c-3.824219 22.664062-23.539063 40-47.28125 40-23.746094 0-43.433594-17.335938-47.265625-40zm0 0"/><path d="m136.007812 96c9.847657 0 19.382813 1.824219 28.320313 5.121094l31.152344-47.9375c15.144531-23.289063 40.757812-37.183594 68.527343-37.183594 27.761719 0 53.367188 13.894531 68.496094 37.167969l52.769532 81.136719 14.726562-19.640626v-90.664062c0-13.230469-10.769531-24-24-24h-352c-13.230469 0-24 10.769531-24 24v208c0 1.480469.175781 2.921875.441406 4.335938l67.046875-103.152344c15.136719-23.289063 40.75-37.183594 68.519531-37.183594zm-120.007812-32c0-22.054688 17.945312-40 40-40s40 17.945312 40 40-17.945312 40-40 40-40-17.945312-40-40zm0 0"/><path d="m223.648438 191.929688c-6.953126 7.734374-15.871094 16.070312-31.679688 16.070312-17.632812 0-26.730469-10.382812-34.03125-18.726562-7.425781-8.480469-12.105469-13.273438-22-13.273438-9.890625 0-14.5625 4.792969-21.976562 13.273438-7.304688 8.34375-16.394532 18.726562-34.015626 18.726562-15.753906 0-24.664062-8.296875-31.59375-16.015625l-38.535156 59.28125c3.992188 2.933594 8.863282 4.734375 14.183594 4.734375h241.3125zm0 0"/><path d="m384 424c0 22.054688 17.945312 40 40 40s40-17.945312 40-40v-8h-80zm0 0"/><path d="m384 384h80v16h-80zm0 0"/><path d="m432 168v16h-16v-16h-32v200h32v-168h16v168h32v-200zm0 0"/><path d="m200 360c-50.238281 0-91.503906-38.808594-95.59375-88h-40.40625v9.792969l26.761719 6.847656 1.214843 4.511719c2.527344 9.390625 6.230469 18.351562 11.007813 26.648437l2.335937 4.046875-14.074218 23.746094 25.167968 25.160156 23.746094-14.066406 4.054688 2.335938c8.28125 4.777343 17.242187 8.480468 26.632812 11.007812l4.511719 1.214844 6.847656 26.753906h35.578125l6.847656-26.761719 4.511719-1.214843c9.390625-2.527344 18.351563-6.230469 26.632813-11.007813l4.054687-2.335937 23.742188 14.0625 25.167969-25.15625-14.070313-23.746094 2.335937-4.046875c4.777344-8.289063 8.480469-17.257813 11.007813-26.648438l1.214844-4.511719 26.769531-6.839843v-9.792969h-40.40625c-4.089844 49.191406-45.355469 88-95.59375 88zm0 0"/><path d="m354.007812 125.265625c-7.3125 8.351563-16.40625 18.734375-34.039062 18.734375s-26.730469-10.382812-34.03125-18.726562c-7.425781-8.480469-12.105469-13.273438-22-13.273438-9.890625 0-14.5625 4.792969-21.976562 13.273438-6.800782 7.765624-15.234376 17.191406-30.578126 18.46875l73.007813 112.257812h83.609375v-98.664062l7.054688-9.40625-17.367188-26.714844c-1.222656 1.3125-2.441406 2.632812-3.679688 4.050781zm0 0"/>
</svg>
