<?xml version="1.0" encoding="iso-8859-1"?>
<!-- Generator: Adobe Illustrator 19.0.0, SVG Export Plug-In . SVG Version: 6.00 Build 0)  -->
<svg version="1.1" id="Capa_1" xmlns="http://www.w3.org/2000/svg" xmlns:xlink="http://www.w3.org/1999/xlink" x="0px" y="0px"
	 viewBox="0 0 512 512" style="enable-background:new 0 0 512 512;" xml:space="preserve">
<g>
	<g>
		<path d="M505.501,475.584L341.896,311.979c26.432-32.896,42.347-74.603,42.347-119.979c0-105.856-86.144-192-192-192
			s-192,86.144-192,192s86.144,192,192,192c45.141,0,86.592-15.765,119.424-41.92l163.669,163.669
			c4.16,4.16,9.621,6.251,15.083,6.251s10.923-2.091,15.083-6.251C513.843,497.408,513.843,483.925,505.501,475.584z
			 M255.752,213.333h-128c-11.776,0-21.333-9.557-21.333-21.333s9.557-21.333,21.333-21.333h128
			c11.776,0,21.333,9.557,21.333,21.333S267.528,213.333,255.752,213.333z"/>
	</g>
</g>
<g>
</g>
<g>
</g>
<g>
</g>
<g>
</g>
<g>
</g>
<g>
</g>
<g>
</g>
<g>
</g>
<g>
</g>
<g>
</g>
<g>
</g>
<g>
</g>
<g>
</g>
<g>
</g>
<g>
</g>
</svg>
