<?xml version="1.0" encoding="iso-8859-1"?>
<!-- Generator: Adobe Illustrator 19.0.0, SVG Export Plug-In . SVG Version: 6.00 Build 0)  -->
<svg version="1.1" id="Capa_1" xmlns="http://www.w3.org/2000/svg" xmlns:xlink="http://www.w3.org/1999/xlink" x="0px" y="0px"
	 viewBox="0 0 512 512" style="enable-background:new 0 0 512 512;" xml:space="preserve">
<g>
	<g>
		<path d="M491.957,398.635L365.493,274.197c11.883-24.96,18.752-52.757,18.752-82.197c0-105.877-86.123-192-192-192
			s-192,86.123-192,192c0,105.856,86.123,192,192,192c29.184,0,56.768-6.741,81.557-18.453l124.565,126.635
			c12.459,12.693,29.12,19.733,46.912,19.819h0.341c17.664,0,34.261-6.891,46.763-19.371c12.587-12.587,19.456-29.312,19.371-47.083
			C511.669,427.755,504.629,411.072,491.957,398.635z M462.218,462.443c-4.437,4.437-10.325,6.891-16.619,6.891h-0.107
			c-6.336-0.043-12.245-2.539-16.683-7.061l-117.739-119.68c0.192-0.149,0.363-0.341,0.555-0.491
			c11.264-8.981,21.483-19.179,30.485-30.421c0.085-0.107,0.213-0.213,0.299-0.32l119.637,117.717
			c4.501,4.416,7.019,10.325,7.04,16.661C469.109,452.053,466.677,457.984,462.218,462.443z"/>
	</g>
</g>
<g>
</g>
<g>
</g>
<g>
</g>
<g>
</g>
<g>
</g>
<g>
</g>
<g>
</g>
<g>
</g>
<g>
</g>
<g>
</g>
<g>
</g>
<g>
</g>
<g>
</g>
<g>
</g>
<g>
</g>
</svg>
