<?xml version="1.0" encoding="iso-8859-1"?>
<!-- Generator: Adobe Illustrator 19.0.0, SVG Export Plug-In . SVG Version: 6.00 Build 0)  -->
<svg version="1.1" id="Capa_1" xmlns="http://www.w3.org/2000/svg" xmlns:xlink="http://www.w3.org/1999/xlink" x="0px" y="0px"
	 viewBox="0 0 512.004 512.004" style="enable-background:new 0 0 512.004 512.004;" xml:space="preserve">
<g>
	<g>
		<g>
			<path d="M505.026,218.88l-42.667-38.763v-0.021l-14.357-13.056V21.333C448.002,9.557,438.466,0,426.669,0h-85.333
				c-11.797,0-21.333,9.557-21.333,21.333v29.355L270.359,5.547c-8.128-7.381-20.587-7.381-28.715,0l-192,174.549v0.021
				L6.978,218.88c-8.704,7.915-9.344,21.419-1.429,30.144c7.936,8.725,21.461,9.365,30.144,1.429l6.976-6.336v246.549
				c0,11.776,9.536,21.333,21.333,21.333h106.667V320c0-35.285,28.715-64,64-64h42.667c35.285,0,64,28.715,64,64v192h106.667
				c11.797,0,21.333-9.557,21.333-21.333V244.117l6.976,6.336c4.096,3.712,9.237,5.547,14.357,5.547
				c5.781,0,11.584-2.347,15.787-6.976C514.37,240.299,513.73,226.795,505.026,218.88z M405.336,128.256l-24.533-22.315
				l-18.133-16.469V42.667h42.667V128.256z"/>
			<path d="M277.335,298.671h-42.667c-11.776,0-21.333,9.579-21.333,21.333v192h85.333v-192
				C298.669,308.25,289.111,298.671,277.335,298.671z"/>
		</g>
	</g>
</g>
<g>
</g>
<g>
</g>
<g>
</g>
<g>
</g>
<g>
</g>
<g>
</g>
<g>
</g>
<g>
</g>
<g>
</g>
<g>
</g>
<g>
</g>
<g>
</g>
<g>
</g>
<g>
</g>
<g>
</g>
</svg>
