<?xml version="1.0" encoding="iso-8859-1"?>
<!-- Generator: Adobe Illustrator 19.0.0, SVG Export Plug-In . SVG Version: 6.00 Build 0)  -->
<svg version="1.1" id="Capa_1" xmlns="http://www.w3.org/2000/svg" xmlns:xlink="http://www.w3.org/1999/xlink" x="0px" y="0px"
	 viewBox="0 0 511.958 511.958" style="enable-background:new 0 0 511.958 511.958;" xml:space="preserve">
<g>
	<g>
		<path d="M506.147,219.979c-64.6-69.1-147.4-108.4-234.6-112.6c-2.6-0.3-5.4-0.3-8.1-0.4c-2.3-0.1-4.6-0.4-6.9-0.4h-0.4h-0.1h-0.1
			c-5.4,0-10.7,0.3-15.9,0.9c-86.9,4.4-169.6,43.6-234.3,112.5c-8,8.6-7.6,22.1,0.9,30.2c4.1,3.9,9.4,5.8,14.6,5.8
			c5.7,0,11.3-2.2,15.6-6.7c26.9-28.7,57.4-51.2,89.9-67.8c-12.7,22-20.1,47.4-20.1,74.6c0,82.3,67,149.3,149.3,149.3
			s149.3-67,149.3-149.3c0-27.3-7.5-52.8-20.3-74.8c32.6,16.7,63.1,39.3,90,68.1c8.1,8.6,21.5,9.1,30.2,1
			C513.847,242.079,514.247,228.579,506.147,219.979z M277.247,234.579c-23.5,0-42.7,19.1-42.7,42.7c0,11.8-9.5,21.3-21.3,21.3
			s-21.3-9.6-21.3-21.3c0-47.1,38.3-85.3,85.3-85.3c11.8,0,21.3,9.6,21.3,21.3C298.547,224.979,289.047,234.579,277.247,234.579z"/>
	</g>
</g>
<g>
</g>
<g>
</g>
<g>
</g>
<g>
</g>
<g>
</g>
<g>
</g>
<g>
</g>
<g>
</g>
<g>
</g>
<g>
</g>
<g>
</g>
<g>
</g>
<g>
</g>
<g>
</g>
<g>
</g>
</svg>
