<?xml version="1.0" encoding="iso-8859-1"?>
<!-- Generator: Adobe Illustrator 19.0.0, SVG Export Plug-In . SVG Version: 6.00 Build 0)  -->
<svg version="1.1" id="Capa_1" xmlns="http://www.w3.org/2000/svg" xmlns:xlink="http://www.w3.org/1999/xlink" x="0px" y="0px"
	 viewBox="0 0 511.994 511.994" style="enable-background:new 0 0 511.994 511.994;" xml:space="preserve">
<g>
	<g>
		<path d="M506.234,220.093c-64.619-69.077-147.477-108.395-234.624-112.597c-2.645-0.277-5.355-0.32-8.064-0.448
			c-2.304-0.064-4.587-0.384-6.912-0.384h-0.384h-0.128h-0.128c-5.376,0-10.688,0.32-15.915,0.875
			C153.21,111.955,70.543,151.208,5.775,220.051c-8.043,8.576-7.637,22.08,0.917,30.165c4.139,3.861,9.387,5.781,14.635,5.781
			c5.675,0,11.328-2.24,15.552-6.72c26.923-28.651,57.408-51.2,89.92-67.84c-12.736,21.973-20.139,47.403-20.139,74.56
			c0,82.347,67.008,149.333,149.333,149.333s149.333-66.987,149.333-149.333c0-27.264-7.467-52.779-20.288-74.816
			c32.597,16.661,63.125,39.296,90.048,68.053c8.085,8.619,21.547,9.067,30.165,1.003
			C513.85,242.195,514.277,228.691,506.234,220.093z M255.994,319.997c-35.307,0-64-28.715-64-64s28.693-64,64-64
			c8.853,0,16,7.168,16,16c0,8.832-7.147,16-16,16c-17.643,0-32,14.357-32,32c0,17.643,14.357,32,32,32s32-14.357,32-32
			c0-8.832,7.147-16,16-16s16,7.168,16,16C319.994,291.283,291.301,319.997,255.994,319.997z"/>
	</g>
</g>
<g>
</g>
<g>
</g>
<g>
</g>
<g>
</g>
<g>
</g>
<g>
</g>
<g>
</g>
<g>
</g>
<g>
</g>
<g>
</g>
<g>
</g>
<g>
</g>
<g>
</g>
<g>
</g>
<g>
</g>
</svg>
