<?xml version="1.0" encoding="iso-8859-1"?>
<!-- Generator: Adobe Illustrator 19.0.0, SVG Export Plug-In . SVG Version: 6.00 Build 0)  -->
<svg version="1.1" id="Capa_1" xmlns="http://www.w3.org/2000/svg" xmlns:xlink="http://www.w3.org/1999/xlink" x="0px" y="0px"
	 viewBox="0 0 512.005 512.005" style="enable-background:new 0 0 512.005 512.005;" xml:space="preserve">
<g>
	<g>
		<g>
			<path d="M256.003,213.339c-23.531,0-42.667,19.136-42.667,42.667s19.136,42.667,42.667,42.667s42.667-19.136,42.667-42.667
				S279.533,213.339,256.003,213.339z"/>
			<path d="M504.173,239.493l-95.445-78.08c-88.469-72.405-216.981-72.427-305.451,0l-95.445,78.08
				c-4.949,4.053-7.829,10.112-7.829,16.512s2.88,12.459,7.829,16.512l96.491,78.955c43.925,35.947,97.813,53.909,151.68,53.909
				s107.755-17.963,151.68-53.909l96.491-78.955c4.949-4.053,7.829-10.112,7.829-16.512S509.123,243.547,504.173,239.493z
				 M256.003,341.339c-47.061,0-85.333-38.272-85.333-85.333s38.272-85.333,85.333-85.333s85.333,38.272,85.333,85.333
				S303.064,341.339,256.003,341.339z"/>
			<path d="M213.336,85.339c5.461,0,10.923-2.091,15.083-6.251l27.584-27.584l27.584,27.584c4.16,4.16,9.621,6.251,15.083,6.251
				c5.461,0,10.923-2.091,15.083-6.251c8.341-8.341,8.341-21.824,0-30.165L271.085,6.256c-8.341-8.341-21.824-8.341-30.165,0
				l-42.667,42.667c-8.341,8.341-8.341,21.824,0,30.165C202.413,83.248,207.875,85.339,213.336,85.339z"/>
			<path d="M283.587,432.923l-27.584,27.584l-27.584-27.584c-8.341-8.341-21.824-8.341-30.165,0s-8.341,21.824,0,30.165
				l42.667,42.667c4.16,4.16,9.621,6.251,15.083,6.251c5.461,0,10.923-2.091,15.083-6.251l42.667-42.667
				c8.341-8.341,8.341-21.824,0-30.165S291.928,424.581,283.587,432.923z"/>
		</g>
	</g>
</g>
<g>
</g>
<g>
</g>
<g>
</g>
<g>
</g>
<g>
</g>
<g>
</g>
<g>
</g>
<g>
</g>
<g>
</g>
<g>
</g>
<g>
</g>
<g>
</g>
<g>
</g>
<g>
</g>
<g>
</g>
</svg>
