<?xml version="1.0" encoding="iso-8859-1"?>
<!-- Generator: Adobe Illustrator 19.0.0, SVG Export Plug-In . SVG Version: 6.00 Build 0)  -->
<svg version="1.1" id="Capa_1" xmlns="http://www.w3.org/2000/svg" xmlns:xlink="http://www.w3.org/1999/xlink" x="0px" y="0px"
	 viewBox="0 0 512 512" style="enable-background:new 0 0 512 512;" xml:space="preserve">
<g>
	<g>
		<path d="M490.667,213.333h-64v-64c0-11.776-9.536-21.333-21.333-21.333h-64V64c0-11.776-9.536-21.333-21.333-21.333H21.333
			C9.536,42.667,0,52.224,0,64v213.333c0,11.776,9.536,21.333,21.333,21.333h64v64c0,11.776,9.536,21.333,21.333,21.333h64v64
			c0,11.776,9.536,21.333,21.333,21.333h298.667c11.797,0,21.333-9.557,21.333-21.333V234.667
			C512,222.891,502.464,213.333,490.667,213.333z M384,213.333H192c-11.797,0-21.333,9.557-21.333,21.333v106.667H128v-64V170.667
			h192h64V213.333z"/>
	</g>
</g>
<g>
</g>
<g>
</g>
<g>
</g>
<g>
</g>
<g>
</g>
<g>
</g>
<g>
</g>
<g>
</g>
<g>
</g>
<g>
</g>
<g>
</g>
<g>
</g>
<g>
</g>
<g>
</g>
<g>
</g>
</svg>
