<?xml version="1.0" encoding="iso-8859-1"?>
<!-- Generator: Adobe Illustrator 19.0.0, SVG Export Plug-In . SVG Version: 6.00 Build 0)  -->
<svg version="1.1" id="Capa_1" xmlns="http://www.w3.org/2000/svg" xmlns:xlink="http://www.w3.org/1999/xlink" x="0px" y="0px"
	 viewBox="0 0 512 512" style="enable-background:new 0 0 512 512;" xml:space="preserve">
<g>
	<g>
		<path d="M448,64h-85.333c0-35.285-28.715-64-64-64h-85.333c-35.285,0-64,28.715-64,64H64C28.715,64,0,92.715,0,128v21.333
			c0,11.776,9.557,21.333,21.333,21.333h21.333v320C42.667,502.443,52.224,512,64,512h384c11.776,0,21.333-9.557,21.333-21.333v-320
			h21.333c11.776,0,21.333-9.557,21.333-21.333V128C512,92.715,483.285,64,448,64z M213.333,42.667h85.333
			C310.421,42.667,320,52.245,320,64H192C192,52.245,201.579,42.667,213.333,42.667z M448,128H64H42.667
			c0-11.755,9.579-21.333,21.333-21.333h106.667h170.667H448c11.755,0,21.333,9.579,21.333,21.333H448z"/>
	</g>
</g>
<g>
</g>
<g>
</g>
<g>
</g>
<g>
</g>
<g>
</g>
<g>
</g>
<g>
</g>
<g>
</g>
<g>
</g>
<g>
</g>
<g>
</g>
<g>
</g>
<g>
</g>
<g>
</g>
<g>
</g>
</svg>
