<?xml version="1.0" encoding="iso-8859-1"?>
<!-- Generator: Adobe Illustrator 19.0.0, SVG Export Plug-In . SVG Version: 6.00 Build 0)  -->
<svg version="1.1" id="Capa_1" xmlns="http://www.w3.org/2000/svg" xmlns:xlink="http://www.w3.org/1999/xlink" x="0px" y="0px"
	 viewBox="0 0 512.009 512.009" style="enable-background:new 0 0 512.009 512.009;" xml:space="preserve">
<g>
	<g>
		<g>
			<path d="M405.136,213.343H106.47c-11.776,0-21.333,9.557-21.333,21.333v256c0,11.776,9.557,21.333,21.333,21.333h298.667
				c11.776,0,21.333-9.557,21.333-21.333v-256C426.47,222.9,416.912,213.343,405.136,213.343z"/>
			<path d="M455.156,106.759c-10.795-13.269-26.112-21.525-43.115-23.253l-42.453-4.331c1.728-17.003-3.264-33.664-14.037-46.933
				c-10.816-13.248-26.133-21.504-43.136-23.232L227.53,0.349c-35.051-3.669-66.581,22.059-70.165,57.152v0.021l-42.453-4.331
				c-35.093-3.755-66.581,22.037-70.165,57.152l-2.155,21.227c-0.597,5.632,1.088,11.243,4.672,15.659
				c3.563,4.373,8.747,7.147,14.379,7.723l381.995,38.997c0.747,0.085,1.472,0.107,2.197,0.107c10.816,0,20.075-8.171,21.205-19.157
				l2.155-21.227C470.943,136.669,465.951,120.007,455.156,106.759z M327.156,74.845l-127.36-12.992
				c1.195-11.712,11.755-20.331,23.403-19.072l84.885,8.661c5.675,0.597,10.773,3.328,14.379,7.765
				C326.068,63.623,327.711,69.17,327.156,74.845z"/>
		</g>
	</g>
</g>
<g>
</g>
<g>
</g>
<g>
</g>
<g>
</g>
<g>
</g>
<g>
</g>
<g>
</g>
<g>
</g>
<g>
</g>
<g>
</g>
<g>
</g>
<g>
</g>
<g>
</g>
<g>
</g>
<g>
</g>
</svg>
