<?xml version="1.0" encoding="iso-8859-1"?>
<!-- Generator: Adobe Illustrator 19.0.0, SVG Export Plug-In . SVG Version: 6.00 Build 0)  -->
<svg version="1.1" id="Capa_1" xmlns="http://www.w3.org/2000/svg" xmlns:xlink="http://www.w3.org/1999/xlink" x="0px" y="0px"
	 viewBox="0 0 512 512" style="enable-background:new 0 0 512 512;" xml:space="preserve">
<g>
	<g>
		<path d="M480.747,31.232C460.608,11.093,433.835,0,405.333,0s-55.275,11.093-75.413,31.232l-87.488,87.488
			c-20.139,20.139-31.253,46.933-31.253,75.435c0,5.269,0.768,10.411,1.536,15.531c-32.256-4.715-66.219,4.949-90.965,29.717
			l-90.496,90.496c-41.579,41.6-41.579,109.269,0,150.869C51.392,500.907,78.165,512,106.667,512s55.275-11.093,75.413-31.232
			l90.517-90.517c24.768-24.747,34.432-58.731,29.717-90.965c5.12,0.747,10.261,1.536,15.531,1.536
			c28.501,0,55.296-11.115,75.435-31.253l87.467-87.467C522.325,140.501,522.325,72.832,480.747,31.232z M356.416,185.749
			L185.749,356.416c-4.16,4.16-9.621,6.251-15.083,6.251c-5.461,0-10.923-2.091-15.083-6.251c-8.341-8.341-8.341-21.824,0-30.165
			l170.667-170.667c8.341-8.341,21.824-8.341,30.165,0C364.757,163.925,364.757,177.408,356.416,185.749z"/>
	</g>
</g>
<g>
</g>
<g>
</g>
<g>
</g>
<g>
</g>
<g>
</g>
<g>
</g>
<g>
</g>
<g>
</g>
<g>
</g>
<g>
</g>
<g>
</g>
<g>
</g>
<g>
</g>
<g>
</g>
<g>
</g>
</svg>
