<?xml version="1.0" encoding="iso-8859-1"?>
<!-- Generator: Adobe Illustrator 19.0.0, SVG Export Plug-In . SVG Version: 6.00 Build 0)  -->
<svg version="1.1" id="Capa_1" xmlns="http://www.w3.org/2000/svg" xmlns:xlink="http://www.w3.org/1999/xlink" x="0px" y="0px"
	 viewBox="0 0 512 512" style="enable-background:new 0 0 512 512;" xml:space="preserve">
<g>
	<g>
		<g>
			<polygon points="256.009,423.782 329.331,362.662 256.009,301.564 			"/>
			<polygon points="256.009,210.449 329.331,149.329 256.009,88.23 			"/>
			<path d="M0,0v512h512V0H0z M376.341,346.283c4.864,4.053,7.659,10.048,7.659,16.384s-2.795,12.331-7.659,16.384l-128,106.667
				c-3.925,3.264-8.768,4.949-13.675,4.949c-3.072,0-6.165-0.661-9.024-2.005c-7.509-3.52-12.309-11.051-12.309-19.328V307.499
				l-70.251,70.251c-4.16,4.16-9.621,6.251-15.083,6.251c-5.44,0-10.901-2.091-15.083-6.251c-8.32-8.341-8.32-21.824,0-30.165
				L204.501,256l-91.584-91.584c-8.32-8.341-8.32-21.824,0-30.165c8.341-8.341,21.845-8.341,30.165,0l70.251,70.251V42.667
				c0-8.277,4.8-15.808,12.309-19.328c7.467-3.477,16.32-2.368,22.699,2.944l128,106.667c4.864,4.053,7.659,10.048,7.659,16.384
				s-2.795,12.331-7.659,16.384L268.011,256L376.341,346.283z"/>
		</g>
	</g>
</g>
<g>
</g>
<g>
</g>
<g>
</g>
<g>
</g>
<g>
</g>
<g>
</g>
<g>
</g>
<g>
</g>
<g>
</g>
<g>
</g>
<g>
</g>
<g>
</g>
<g>
</g>
<g>
</g>
<g>
</g>
</svg>
