<?xml version="1.0" encoding="iso-8859-1"?>
<!-- Generator: Adobe Illustrator 19.0.0, SVG Export Plug-In . SVG Version: 6.00 Build 0)  -->
<svg version="1.1" id="Capa_1" xmlns="http://www.w3.org/2000/svg" xmlns:xlink="http://www.w3.org/1999/xlink" x="0px" y="0px"
	 viewBox="0 0 512 512" style="enable-background:new 0 0 512 512;" xml:space="preserve">
<g>
	<g>
		<g>
			<path d="M128,128C57.408,128,0,185.408,0,256s57.408,128,128,128s128-57.408,128-128S198.592,128,128,128z"/>
			<path d="M426.667,170.667H275.584c14.592,25.131,23.083,54.229,23.083,85.333s-8.491,60.203-23.083,85.333h151.083
				C473.728,341.333,512,303.061,512,256S473.728,170.667,426.667,170.667z M405.333,277.333h-42.667
				c-11.776,0-21.333-9.557-21.333-21.333s9.557-21.333,21.333-21.333h42.667c11.776,0,21.333,9.557,21.333,21.333
				S417.109,277.333,405.333,277.333z"/>
		</g>
	</g>
</g>
<g>
</g>
<g>
</g>
<g>
</g>
<g>
</g>
<g>
</g>
<g>
</g>
<g>
</g>
<g>
</g>
<g>
</g>
<g>
</g>
<g>
</g>
<g>
</g>
<g>
</g>
<g>
</g>
<g>
</g>
</svg>
