<?xml version="1.0" encoding="iso-8859-1"?>
<!-- Generator: Adobe Illustrator 19.0.0, SVG Export Plug-In . SVG Version: 6.00 Build 0)  -->
<svg version="1.1" id="Capa_1" xmlns="http://www.w3.org/2000/svg" xmlns:xlink="http://www.w3.org/1999/xlink" x="0px" y="0px"
	 viewBox="0 0 512 512" style="enable-background:new 0 0 512 512;" xml:space="preserve">
<g>
	<g>
		<g>
			<path d="M298.667,234.667c-11.776,0-21.333,9.579-21.333,21.333s9.557,21.333,21.333,21.333S320,267.755,320,256
				S310.443,234.667,298.667,234.667z"/>
			<path d="M320,170.667H192c-47.061,0-85.333,38.272-85.333,85.333s38.272,85.333,85.333,85.333h128
				c47.061,0,85.333-38.272,85.333-85.333S367.061,170.667,320,170.667z M298.667,320c-35.285,0-64-28.715-64-64s28.715-64,64-64
				s64,28.715,64,64S333.952,320,298.667,320z"/>
			<path d="M448,0H64C28.715,0,0,28.715,0,64v384c0,35.285,28.715,64,64,64h384c35.285,0,64-28.715,64-64V64
				C512,28.715,483.285,0,448,0z M320,384H192c-70.592,0-128-57.408-128-128s57.408-128,128-128h128c70.592,0,128,57.408,128,128
				S390.592,384,320,384z"/>
		</g>
	</g>
</g>
<g>
</g>
<g>
</g>
<g>
</g>
<g>
</g>
<g>
</g>
<g>
</g>
<g>
</g>
<g>
</g>
<g>
</g>
<g>
</g>
<g>
</g>
<g>
</g>
<g>
</g>
<g>
</g>
<g>
</g>
</svg>
