<?xml version="1.0" encoding="iso-8859-1"?>
<!-- Generator: Adobe Illustrator 19.0.0, SVG Export Plug-In . SVG Version: 6.00 Build 0)  -->
<svg version="1.1" id="Capa_1" xmlns="http://www.w3.org/2000/svg" xmlns:xlink="http://www.w3.org/1999/xlink" x="0px" y="0px"
	 viewBox="0 0 512 512" style="enable-background:new 0 0 512 512;" xml:space="preserve">
<g>
	<g>
		<g>
			<path d="M341.333,213.333c-23.531,0-42.667,19.136-42.667,42.667c0,23.531,19.136,42.667,42.667,42.667
				C364.864,298.667,384,279.531,384,256C384,232.469,364.864,213.333,341.333,213.333z"/>
			<path d="M341.333,85.333H170.667C76.565,85.333,0,161.899,0,256s76.565,170.667,170.667,170.667h170.667
				C435.435,426.667,512,350.101,512,256S435.435,85.333,341.333,85.333z M170.667,320c0,11.776-9.536,21.333-21.333,21.333
				C137.536,341.333,128,331.776,128,320V192c0-11.776,9.536-21.333,21.333-21.333c11.797,0,21.333,9.557,21.333,21.333V320z
				 M341.333,341.333C294.272,341.333,256,303.061,256,256s38.272-85.333,85.333-85.333c47.061,0,85.333,38.272,85.333,85.333
				S388.395,341.333,341.333,341.333z"/>
		</g>
	</g>
</g>
<g>
</g>
<g>
</g>
<g>
</g>
<g>
</g>
<g>
</g>
<g>
</g>
<g>
</g>
<g>
</g>
<g>
</g>
<g>
</g>
<g>
</g>
<g>
</g>
<g>
</g>
<g>
</g>
<g>
</g>
</svg>
