<?xml version="1.0" encoding="iso-8859-1"?>
<!-- Generator: Adobe Illustrator 19.0.0, SVG Export Plug-In . SVG Version: 6.00 Build 0)  -->
<svg version="1.1" id="Capa_1" xmlns="http://www.w3.org/2000/svg" xmlns:xlink="http://www.w3.org/1999/xlink" x="0px" y="0px"
	 viewBox="0 0 512.085 512.085" style="enable-background:new 0 0 512.085 512.085;" xml:space="preserve">
<g>
	<g>
		<g>
			<path d="M256.043,0c-141.163,0-256,114.837-256,256c0,85.376,41.344,162.539,108.907,209.643l-20.437,4.203
				c-11.541,2.389-18.965,13.675-16.576,25.216c2.069,10.091,10.944,17.024,20.864,17.024c1.429,0,2.88-0.128,4.331-0.448
				l77.931-16.064c0.021,0,0.043-0.021,0.085-0.021c0.064-0.021,0.128-0.021,0.213-0.021c0.235-0.064,0.384-0.235,0.619-0.277
				c2.411-0.619,4.715-1.557,6.784-2.965c0.064-0.043,0.128-0.085,0.192-0.128c0.341-0.235,0.555-0.576,0.875-0.832
				c1.557-1.237,2.944-2.645,4.139-4.309c0.192-0.256,0.469-0.448,0.661-0.747c0.299-0.469,0.405-1.045,0.683-1.536
				c0.405-0.789,0.981-1.451,1.323-2.283c0.213-0.597,0.128-1.216,0.299-1.792c0.213-0.683,0.619-1.259,0.747-1.963
				c0.149-0.768-0.043-1.6,0.021-2.389c0.107-1.408,0.128-2.731-0.043-4.117c-0.085-0.619,0.107-1.195-0.021-1.813
				c0-0.043-0.043-0.085-0.043-0.128c-0.021-0.064,0-0.107,0-0.171l-15.36-69.44c-2.56-11.52-13.973-18.773-25.451-16.213
				c-11.499,2.539-18.752,13.931-16.213,25.429l5.568,25.259C79.915,396.373,42.709,329.92,42.709,256
				c0-117.632,95.701-213.333,213.333-213.333S469.376,138.368,469.376,256c0,88.555-53.291,166.592-135.765,198.784
				c-10.965,4.309-16.384,16.661-12.117,27.648c4.288,10.965,16.576,16.363,27.648,12.117
				C448.085,455.893,512.043,362.261,512.043,256C512.043,114.837,397.205,0,256.043,0z"/>
			<path d="M384.043,341.333V192c0-11.776-9.557-21.333-21.333-21.333h-21.333c0-47.061-38.272-85.333-85.333-85.333
				s-85.333,38.272-85.333,85.333h-21.333c-11.776,0-21.333,9.557-21.333,21.333v149.333c0,11.776,9.557,21.333,21.333,21.333
				h213.333C374.485,362.667,384.043,353.109,384.043,341.333z M256.043,277.333c-11.776,0-21.333-9.557-21.333-21.333
				s9.557-21.333,21.333-21.333s21.333,9.557,21.333,21.333S267.819,277.333,256.043,277.333z M213.376,170.667
				c0-23.531,19.136-42.667,42.667-42.667s42.667,19.136,42.667,42.667H213.376z"/>
		</g>
	</g>
</g>
<g>
</g>
<g>
</g>
<g>
</g>
<g>
</g>
<g>
</g>
<g>
</g>
<g>
</g>
<g>
</g>
<g>
</g>
<g>
</g>
<g>
</g>
<g>
</g>
<g>
</g>
<g>
</g>
<g>
</g>
</svg>
