<?xml version="1.0" encoding="iso-8859-1"?>
<!-- Generator: Adobe Illustrator 19.0.0, SVG Export Plug-In . SVG Version: 6.00 Build 0)  -->
<svg version="1.1" id="Capa_1" xmlns="http://www.w3.org/2000/svg" xmlns:xlink="http://www.w3.org/1999/xlink" x="0px" y="0px"
	 viewBox="0 0 512 512" style="enable-background:new 0 0 512 512;" xml:space="preserve">
<g>
	<g>
		<g>
			<path d="M426.667,213.333c-11.797,0-21.333,9.557-21.333,21.333V256c0,82.347-67.008,149.333-149.333,149.333
				S106.667,338.347,106.667,256v-21.333c0-11.776-9.536-21.333-21.333-21.333c-11.797,0-21.333,9.557-21.333,21.333V256
				c0,98.645,74.816,180.096,170.667,190.741v22.592H192c-11.797,0-21.333,9.557-21.333,21.333S180.203,512,192,512h128
				c11.797,0,21.333-9.557,21.333-21.333s-9.536-21.333-21.333-21.333h-42.667v-22.592C373.184,436.096,448,354.645,448,256v-21.333
				C448,222.891,438.464,213.333,426.667,213.333z"/>
			<path d="M256,384c70.592,0,128-57.408,128-128V128C384,57.408,326.592,0,256,0S128,57.408,128,128v128
				C128,326.592,185.408,384,256,384z M234.667,128h42.667c11.797,0,21.333,9.557,21.333,21.333s-9.536,21.333-21.333,21.333
				h-42.667c-11.797,0-21.333-9.557-21.333-21.333S222.869,128,234.667,128z M234.667,213.333h42.667
				c11.797,0,21.333,9.557,21.333,21.333S289.131,256,277.333,256h-42.667c-11.797,0-21.333-9.557-21.333-21.333
				S222.869,213.333,234.667,213.333z"/>
		</g>
	</g>
</g>
<g>
</g>
<g>
</g>
<g>
</g>
<g>
</g>
<g>
</g>
<g>
</g>
<g>
</g>
<g>
</g>
<g>
</g>
<g>
</g>
<g>
</g>
<g>
</g>
<g>
</g>
<g>
</g>
<g>
</g>
</svg>
