<?xml version="1.0" encoding="iso-8859-1"?>
<!-- Generator: Adobe Illustrator 19.0.0, SVG Export Plug-In . SVG Version: 6.00 Build 0)  -->
<svg version="1.1" id="Capa_1" xmlns="http://www.w3.org/2000/svg" xmlns:xlink="http://www.w3.org/1999/xlink" x="0px" y="0px"
	 viewBox="0 0 512 512" style="enable-background:new 0 0 512 512;" xml:space="preserve">
<g>
	<g>
		<path d="M256,0C114.837,0,0,114.859,0,256c0,141.163,114.837,256,256,256s256-114.837,256-256C512,114.859,397.163,0,256,0z
			 M382.357,157.547l-106.667,256c-3.328,8-11.136,13.12-19.691,13.12c-0.811,0-1.621-0.043-2.432-0.128
			c-9.451-1.088-17.045-8.32-18.603-17.685l-18.837-112.981l-112.96-18.816c-9.387-1.579-16.597-9.152-17.685-18.603
			c-1.109-9.451,4.203-18.475,12.971-22.144l256-106.667c7.915-3.328,17.173-1.515,23.296,4.608
			C383.851,140.373,385.685,149.568,382.357,157.547z"/>
	</g>
</g>
<g>
</g>
<g>
</g>
<g>
</g>
<g>
</g>
<g>
</g>
<g>
</g>
<g>
</g>
<g>
</g>
<g>
</g>
<g>
</g>
<g>
</g>
<g>
</g>
<g>
</g>
<g>
</g>
<g>
</g>
</svg>
