<?xml version="1.0" encoding="iso-8859-1"?>
<!-- Generator: Adobe Illustrator 19.0.0, SVG Export Plug-In . SVG Version: 6.00 Build 0)  -->
<svg version="1.1" id="Capa_1" xmlns="http://www.w3.org/2000/svg" xmlns:xlink="http://www.w3.org/1999/xlink" x="0px" y="0px"
	 viewBox="0 0 511.966 511.966" style="enable-background:new 0 0 511.966 511.966;" xml:space="preserve">
<g>
	<g>
		<g>
			<path d="M141.89,233.288c-19.349-16.256-44.885-22.997-70.08-18.667c-34.219,5.973-62.464,34.027-68.693,68.203
				c-3.947,21.525,0.299,43.392,12.949,63.104c6.251,9.771,12.139,19.008,16.235,28.587l35.093,81.856
				c3.349,7.851,11.072,12.928,19.605,12.928c8.533,0,16.256-5.077,19.605-12.928l35.179-82.091
				c3.904-9.067,8.981-18.112,15.147-26.901c10.069-14.379,15.403-31.232,15.403-48.747
				C172.332,273.374,161.218,249.566,141.89,233.288z"/>
			<path d="M150.997,469.299h-21.333c-11.797,0-21.333,9.557-21.333,21.333s9.536,21.333,21.333,21.333h21.333
				c11.797,0,21.333-9.557,21.333-21.333S162.794,469.299,150.997,469.299z"/>
			<path d="M254.747,469.299h-41.493c-11.797,0-21.333,9.557-21.333,21.333s9.536,21.333,21.333,21.333h41.493
				c11.797,0,21.333-9.557,21.333-21.333S266.545,469.299,254.747,469.299z"/>
			<path d="M358.498,469.299h-41.493c-11.797,0-21.333,9.557-21.333,21.333s9.536,21.333,21.333,21.333h41.493
				c11.797,0,21.333-9.557,21.333-21.333S370.295,469.299,358.498,469.299z"/>
			<path d="M250.559,341.873c1.173,0,2.325-0.085,3.52-0.299c1.173-0.192,2.709-0.213,3.584-0.277h34.368
				c11.797,0,21.333-9.557,21.333-21.333s-9.536-21.333-21.333-21.333h-34.283c-2.624-0.107-7.168,0.277-10.667,0.875
				c-11.627,1.92-19.477,12.928-17.536,24.555C231.274,334.47,240.319,341.873,250.559,341.873z"/>
			<path d="M354.289,298.632c-11.797,0-21.333,9.557-21.333,21.333s9.536,21.333,21.333,21.333h41.493
				c11.797,0,21.333-9.557,21.333-21.333s-9.536-21.333-21.333-21.333H354.289z"/>
			<path d="M224.518,417.382c3.456,2.091,7.275,3.093,11.051,3.093c7.189,0,14.251-3.648,18.24-10.261
				c6.123-10.091,2.923-23.189-7.168-29.312c-6.059-3.669-9.899-10.069-10.283-17.131c-0.64-11.755-11.115-20.885-22.464-20.139
				c-11.755,0.661-20.779,10.709-20.117,22.485C194.907,387.217,206.406,406.396,224.518,417.382z"/>
			<path d="M497.309,274.383c-10.795-4.587-23.381,0.427-27.989,11.264c-2.773,6.507-8.576,11.221-15.467,12.587
				c-11.563,2.283-19.093,13.483-16.811,25.045c2.027,10.176,10.923,17.216,20.907,17.216c1.387,0,2.752-0.128,4.16-0.405
				c20.757-4.096,38.144-18.197,46.443-37.717C513.181,291.535,508.147,279.012,497.309,274.383z"/>
			<path d="M338.184,426.632c11.797,0,21.333-9.557,21.333-21.333s-9.536-21.333-21.333-21.333h-41.493
				c-11.797,0-21.333,9.557-21.333,21.333s9.536,21.333,21.333,21.333H338.184z"/>
			<path d="M382.143,403.684c-8.832,7.808-9.664,21.291-1.856,30.101c3.456,3.925,5.376,8.96,5.376,14.187
				c0,1.749-0.235,3.52-0.661,5.291c-2.837,11.413,4.117,22.997,15.531,25.856c1.749,0.427,3.477,0.619,5.184,0.619
				c9.579,0,18.283-6.464,20.693-16.171c1.28-5.12,1.92-10.368,1.92-15.595c0-15.637-5.717-30.699-16.085-42.432
				C404.458,396.708,390.997,395.876,382.143,403.684z"/>
			<path d="M459.914,258.581c3.243,1.771,6.763,2.624,10.219,2.624c7.552,0,14.869-3.989,18.731-11.072
				c5.675-10.347,1.877-23.317-8.448-28.971c-9.387-5.141-20.032-7.872-30.741-7.872c-11.797,0-21.333,9.557-21.333,21.333
				c0,11.797,9.536,21.333,21.333,21.333C453.28,255.957,456.757,256.832,459.914,258.581z"/>
			<path d="M309.642,161.184l35.093,81.856c3.349,7.851,11.051,12.928,19.584,12.928c8.555,0,16.256-5.077,19.605-12.928
				l35.2-82.091c3.883-9.088,8.981-18.112,15.147-26.901c10.048-14.379,15.381-31.232,15.381-48.747
				c0-25.259-11.093-49.067-30.443-65.344C399.861,3.701,374.346-3.062,349.152,1.29c-34.219,5.973-62.464,34.005-68.693,68.181
				c-3.968,21.547,0.299,43.413,12.928,63.125C299.637,142.368,305.546,151.605,309.642,161.184z"/>
		</g>
	</g>
</g>
<g>
</g>
<g>
</g>
<g>
</g>
<g>
</g>
<g>
</g>
<g>
</g>
<g>
</g>
<g>
</g>
<g>
</g>
<g>
</g>
<g>
</g>
<g>
</g>
<g>
</g>
<g>
</g>
<g>
</g>
</svg>
