<?xml version="1.0" encoding="iso-8859-1"?>
<!-- Generator: Adobe Illustrator 19.0.0, SVG Export Plug-In . SVG Version: 6.00 Build 0)  -->
<svg version="1.1" id="Capa_1" xmlns="http://www.w3.org/2000/svg" xmlns:xlink="http://www.w3.org/1999/xlink" x="0px" y="0px"
	 viewBox="0 0 512.011 512.011" style="enable-background:new 0 0 512.011 512.011;" xml:space="preserve">
<g>
	<g>
		<path d="M505.755,70.256l-64-64c-3.989-4.011-9.429-6.251-15.083-6.251h-256c-23.531,0-42.667,19.136-42.667,42.667v42.667H85.339
			c-5.653,0-11.072,2.24-15.083,6.251l-64,64c-8.341,8.341-8.341,21.824,0,30.165l64,64c4.011,4.011,9.429,6.251,15.083,6.251
			h149.333v213.333h-85.333c-11.776,0-21.333,9.557-21.333,21.333s9.557,21.333,21.333,21.333h213.333
			c11.776,0,21.333-9.557,21.333-21.333s-9.557-21.333-21.333-21.333h-85.333V256.005h64c23.531,0,42.667-19.136,42.667-42.667
			v-42.667h42.667c5.653,0,11.093-2.24,15.083-6.251l64-64C514.096,92.08,514.096,78.597,505.755,70.256z M417.84,128.005h-33.835
			c0-23.531-19.136-42.667-42.667-42.667H170.672V42.672H417.84l42.667,42.667L417.84,128.005z"/>
	</g>
</g>
<g>
</g>
<g>
</g>
<g>
</g>
<g>
</g>
<g>
</g>
<g>
</g>
<g>
</g>
<g>
</g>
<g>
</g>
<g>
</g>
<g>
</g>
<g>
</g>
<g>
</g>
<g>
</g>
<g>
</g>
</svg>
