<?xml version="1.0" encoding="iso-8859-1"?>
<!-- Generator: Adobe Illustrator 19.0.0, SVG Export Plug-In . SVG Version: 6.00 Build 0)  -->
<svg version="1.1" id="Capa_1" xmlns="http://www.w3.org/2000/svg" xmlns:xlink="http://www.w3.org/1999/xlink" x="0px" y="0px"
	 viewBox="0 0 512.002 512.002" style="enable-background:new 0 0 512.002 512.002;" xml:space="preserve">
<g>
	<g>
		<g>
			<path d="M461.075,369.451l-34.411-14.741v-46.464c27.264-24.341,42.667-58.368,42.667-94.912v-95.552
				C469.331,52.843,416.51,0,351.55,0h-20.437c-64.939,0-117.781,52.843-117.781,117.781v95.552
				c0,36.544,15.424,70.571,42.667,94.912v46.464l-34.389,14.741c-30.955,13.248-50.944,43.563-50.944,77.227v43.989
				c0,11.776,9.557,21.333,21.333,21.333h298.667c11.776,0,21.333-9.557,21.333-21.333v-43.989
				C511.998,413.013,492.009,382.699,461.075,369.451z"/>
			<path d="M204.804,330.221l8.533-3.648v-0.832c-27.307-30.933-42.667-70.912-42.667-112.405v-95.552
				c0-26.731,6.656-51.904,18.261-74.091c-3.819-0.384-7.744-1.024-11.413-1.024h-20.437c-68.437,0-114.411,66.432-114.411,128.469
				v64c0,36.565,15.424,70.592,42.667,94.933v24.619l-34.389,14.741C19.994,382.701,0.004,413.016,0.004,446.68v43.989
				c0,11.776,9.557,21.333,21.333,21.333H131.93c-2.389-6.699-3.925-13.824-3.925-21.333V446.68
				C128.004,395.927,158.148,350.21,204.804,330.221z"/>
		</g>
	</g>
</g>
<g>
</g>
<g>
</g>
<g>
</g>
<g>
</g>
<g>
</g>
<g>
</g>
<g>
</g>
<g>
</g>
<g>
</g>
<g>
</g>
<g>
</g>
<g>
</g>
<g>
</g>
<g>
</g>
<g>
</g>
</svg>
