<?xml version="1.0" encoding="iso-8859-1"?>
<!-- Generator: Adobe Illustrator 19.0.0, SVG Export Plug-In . SVG Version: 6.00 Build 0)  -->
<svg version="1.1" id="Capa_1" xmlns="http://www.w3.org/2000/svg" xmlns:xlink="http://www.w3.org/1999/xlink" x="0px" y="0px"
	 viewBox="0 0 512 512" style="enable-background:new 0 0 512 512;" xml:space="preserve">
<g>
	<g>
		<path d="M430.251,384.107c-0.555-0.277-1.131-0.533-1.685-0.747l-52.693-20.843c25.536-0.811,49.301-4.971,70.699-12.373
			c3.243-1.131,6.315-2.304,9.131-3.52c11.157-4.779,19.435-14.251,22.763-25.963c3.328-11.776,1.216-24.256-5.803-34.261
			c-2.325-3.328-5.163-7.211-8.341-11.563c-23.125-31.659-66.176-90.581-67.243-145.749C396.117,84.8,367.851,0.832,267.328,0
			c-4.267,0.043-7.915,0.299-11.328,0.64c-3.435-0.341-7.147-0.597-11.712-0.64C144.149,0.832,115.883,84.8,114.923,129.131
			c-1.067,55.125-44.117,114.048-67.243,145.707c-3.179,4.352-6.016,8.235-8.341,11.563c-7.019,10.005-9.131,22.485-5.803,34.261
			c3.328,11.712,11.605,21.184,22.763,25.984c2.816,1.195,5.888,2.368,9.088,3.477c21.461,7.424,45.248,11.605,70.827,12.395
			l-54.464,21.589C51.072,399.445,32,430.293,32,464.619v26.048C32,502.443,41.536,512,53.333,512h405.333
			c11.797,0,21.333-9.557,21.333-21.333v-26.048C480,430.293,460.928,399.445,430.251,384.107z"/>
	</g>
</g>
<g>
</g>
<g>
</g>
<g>
</g>
<g>
</g>
<g>
</g>
<g>
</g>
<g>
</g>
<g>
</g>
<g>
</g>
<g>
</g>
<g>
</g>
<g>
</g>
<g>
</g>
<g>
</g>
<g>
</g>
</svg>
