<?xml version="1.0" encoding="iso-8859-1"?>
<!-- Generator: Adobe Illustrator 19.0.0, SVG Export Plug-In . SVG Version: 6.00 Build 0)  -->
<svg version="1.1" id="Capa_1" xmlns="http://www.w3.org/2000/svg" xmlns:xlink="http://www.w3.org/1999/xlink" x="0px" y="0px"
	 viewBox="0 0 512.011 512.011" style="enable-background:new 0 0 512.011 512.011;" xml:space="preserve">
<g>
	<g>
		<g>
			<path d="M256.005,0c-141.163,0-256,114.859-256,256c0,64.832,24.405,123.947,64.277,169.088l112.491-54.955
				c6.741-3.691,14.08-15.509,15.104-24.576c-26.795-23.872-42.539-59.072-42.539-95.851v-85.717
				c-0.811-8.363-2.219-41.024,21.12-67.669C189.232,74.88,218.011,64,256.005,64s66.773,10.88,85.547,32.32
				c23.317,26.645,21.931,59.307,21.12,67.669v85.717c0,36.8-15.765,72.021-42.539,95.872c1.024,9.045,8.405,20.885,15.936,25.003
				l114.944,50.88c37.952-44.672,60.992-102.379,60.992-165.461C512.005,114.859,397.168,0,256.005,0z"/>
			<path d="M277.339,343.52v-18.901l8.832-6.4c21.717-16.747,33.835-41.963,33.835-68.523l0.192-89.707
				c0,0,2.219-21.035-11.008-35.861c-10.325-11.584-28.224-17.451-53.184-17.451s-42.859,5.867-53.184,17.451
				c-13.227,14.827-11.008,35.861-10.987,36.075l0.171,2.624v86.869c0,26.56,12.117,51.776,32.405,67.477l8.811,6.379l1.451,19.968
				c0,24.853-16.491,52.608-38.315,64.512l-99.115,48.427c43.691,34.667,98.795,55.552,158.763,55.552
				c61.632,0,118.251-21.909,162.475-58.347L317.211,408.8C293.808,396.128,277.339,368.373,277.339,343.52z"/>
		</g>
	</g>
</g>
<g>
</g>
<g>
</g>
<g>
</g>
<g>
</g>
<g>
</g>
<g>
</g>
<g>
</g>
<g>
</g>
<g>
</g>
<g>
</g>
<g>
</g>
<g>
</g>
<g>
</g>
<g>
</g>
<g>
</g>
</svg>
