<?xml version="1.0" encoding="iso-8859-1"?>
<!-- Generator: Adobe Illustrator 19.0.0, SVG Export Plug-In . SVG Version: 6.00 Build 0)  -->
<svg version="1.1" id="Capa_1" xmlns="http://www.w3.org/2000/svg" xmlns:xlink="http://www.w3.org/1999/xlink" x="0px" y="0px"
	 viewBox="0 0 511.996 511.996" style="enable-background:new 0 0 511.996 511.996;" xml:space="preserve">
<g>
	<g>
		<g>
			<path d="M180.585,289.329h-16.107c-42.304,0-76.117,29.248-80.811,69.675v76.416c22.613,20.672,48.832,37.376,77.739,48.917
				l49.728-149.184L180.585,289.329z"/>
			<path d="M511.996,246.667c0-107.392-66.56-199.403-160.533-237.333c20.544,20.715,34.56,47.936,38.165,78.08
				c6.784,56.661-12.096,127.061-53.888,159.253h11.776c63.915,0,116.971,46.848,123.392,108.992
				c0.064,0.725,0.085,1.451,0.085,2.176v27.307C496.828,345.163,511.996,297.696,511.996,246.667z"/>
			<path d="M347.524,289.331h-16.107l-30.549,45.824l49.728,149.184c28.907-11.541,55.125-28.245,77.739-48.917v-76.416
				C423.642,318.558,389.828,289.331,347.524,289.331z"/>
			<path d="M341.158,69.937c-12.309-30.656-40.661-53.568-74.475-57.344c-3.499-0.384-6.763-0.341-10.389-0.576
				c-22.101,0-42.517,7.915-59.029,21.76c18.944,0.811,41.984,7.168,69.717,23.851C310.076,83.569,331.857,76.593,341.158,69.937z"
				/>
			<path d="M250.035,353.329l-47.851,143.552c17.365,3.733,35.349,5.781,53.824,5.781c18.453,0,36.437-2.048,53.803-5.781
				l-47.851-143.552H250.035z"/>
			<path d="M176.661,246.671c-40.107-31.723-55.275-99.115-55.275-142.72c0-35.648,13.781-69.141,38.784-94.507
				C66.389,47.482,0,139.407,0,246.671c0,51.029,15.168,98.496,41.003,138.475v-27.307c0-0.725,0.043-1.451,0.107-2.197
				c6.421-62.123,59.456-108.971,123.371-108.971H176.661z"/>
			<path d="M213.818,219.311c12.48,4.608,20.843,16.789,20.843,30.293v5.141c0,8.683-3.563,17.621-9.664,24.277l21.099,31.637
				h19.819l21.099-31.637c-6.101-6.656-9.685-15.595-9.685-24.277v-5.227c0-13.589,8.384-25.515,21.312-30.379
				c29.547-11.115,48.384-61.141,49.493-105.429c-2.411,0.875-4.821,1.771-7.509,2.432c-6.72,1.707-13.717,2.539-20.971,2.539
				c-22.571,0-47.595-8.192-74.667-24.491c-54.016-32.491-75.029-12.672-79.253-7.488c-1.067,5.632-1.685,11.392-1.685,17.259
				C164.047,150.767,184.036,208.303,213.818,219.311z"/>
		</g>
	</g>
</g>
<g>
</g>
<g>
</g>
<g>
</g>
<g>
</g>
<g>
</g>
<g>
</g>
<g>
</g>
<g>
</g>
<g>
</g>
<g>
</g>
<g>
</g>
<g>
</g>
<g>
</g>
<g>
</g>
<g>
</g>
</svg>
