<?xml version="1.0" encoding="iso-8859-1"?>
<!-- Generator: Adobe Illustrator 19.0.0, SVG Export Plug-In . SVG Version: 6.00 Build 0)  -->
<svg version="1.1" id="Capa_1" xmlns="http://www.w3.org/2000/svg" xmlns:xlink="http://www.w3.org/1999/xlink" x="0px" y="0px"
	 viewBox="0 0 512.009 512.009" style="enable-background:new 0 0 512.009 512.009;" xml:space="preserve">
<g>
	<g>
		<g>
			<path d="M213.813,219.33c12.501,4.651,20.864,16.811,20.864,30.293v5.141c0,16.704-13.013,34.581-32.384,34.581h-37.803
				c-6.101,0-11.925,0.768-17.6,1.92l108.053,77.717l93.973-79.509c-0.469-0.021-0.917-0.128-1.387-0.128h-37.824
				c-19.371,0-32.363-17.877-32.363-34.581v-5.227c0-13.568,8.341-25.493,21.269-30.379c29.568-11.093,48.427-61.163,49.515-105.472
				c-0.021,0.021-0.043,0.021-0.064,0.043c-9.109,3.264-18.731,4.907-28.821,4.907c-22.464,0-47.317-8.128-74.24-24.341
				c-50.069-30.165-72.427-15.509-79.04-8.96c-1.237,6.08-1.92,12.288-1.92,18.645C164.043,150.786,184.053,208.322,213.813,219.33z
				"/>
			<path d="M512.009,246.682c0-107.392-66.56-199.403-160.555-237.355c16.32,16.448,28.245,37.077,34.368,59.947
				c0.277,0.917,0.427,1.835,0.576,2.773c1.237,5.077,2.603,10.112,3.221,15.403c6.827,56.661-12.096,127.04-53.867,159.232h11.776
				c19.157,0,37.077,4.629,53.312,12.181c1.984,0.64,3.797,1.515,5.547,2.709c35.072,18.517,60.245,52.736,64.512,94.101
				c0.064,0.725,0.107,1.472,0.107,2.197v27.285C496.819,345.178,512.009,297.711,512.009,246.682z"/>
			<path d="M341.116,69.869c-12.331-30.613-40.661-53.483-74.432-57.259c-3.52-0.384-7.253-0.341-10.389-0.576
				c-22.123,0-42.56,7.915-59.093,21.803c19.584,1.024,42.859,7.68,69.803,23.915C309.073,83.074,331.196,76.631,341.116,69.869z"/>
			<path d="M396.527,305.071L269.764,412.314c-3.947,3.349-8.853,5.035-13.76,5.035c-4.352,0-8.725-1.323-12.459-4.011
				l-138.283-99.435c-11.584,11.925-19.541,27.328-21.589,45.12v76.416c45.525,41.621,105.92,67.243,172.331,67.243
				s126.784-25.621,172.331-67.243v-76.416C425.711,336.388,413.764,317.53,396.527,305.071z"/>
			<path d="M94.955,267.797c19.904-13.205,43.733-21.12,69.525-21.12h12.16c-40.085-31.68-55.253-99.093-55.253-142.699
				c0-10.901,1.429-21.547,3.925-31.893c0.043-0.256,0.149-0.512,0.192-0.789c5.76-23.147,17.515-44.416,34.667-61.824
				C66.389,47.488,0,139.413,0,246.699c0,51.008,15.168,98.496,41.003,138.453v-27.285c0-0.725,0.043-1.451,0.107-2.197
				c3.563-34.517,21.845-63.957,48.085-83.648C90.944,270.272,92.8,268.821,94.955,267.797z"/>
		</g>
	</g>
</g>
<g>
</g>
<g>
</g>
<g>
</g>
<g>
</g>
<g>
</g>
<g>
</g>
<g>
</g>
<g>
</g>
<g>
</g>
<g>
</g>
<g>
</g>
<g>
</g>
<g>
</g>
<g>
</g>
<g>
</g>
</svg>
