<?xml version="1.0" encoding="iso-8859-1"?>
<!-- Generator: Adobe Illustrator 19.0.0, SVG Export Plug-In . SVG Version: 6.00 Build 0)  -->
<svg version="1.1" id="Capa_1" xmlns="http://www.w3.org/2000/svg" xmlns:xlink="http://www.w3.org/1999/xlink" x="0px" y="0px"
	 viewBox="0 0 512 512" style="enable-background:new 0 0 512 512;" xml:space="preserve">
<g>
	<g>
		<g>
			<path d="M448,213.333h-42.667v-64C405.333,66.987,338.347,0,256,0S106.667,66.987,106.667,149.333
				c0,11.797,9.557,21.333,21.333,21.333s21.333-9.536,21.333-21.333c0-58.816,47.851-106.667,106.667-106.667
				s106.667,47.851,106.667,106.667v64H64c-11.776,0-21.333,9.557-21.333,21.333v256C42.667,502.464,52.224,512,64,512h384
				c11.776,0,21.333-9.536,21.333-21.333v-256C469.333,222.891,459.776,213.333,448,213.333z M320,378.517
				c0,26.56-21.611,48.149-48.149,48.149h-31.701c-26.539,0-48.149-21.589-48.149-48.149v-53.013
				c0-26.56,21.611-48.171,48.149-48.171h31.701c26.539,0,48.149,21.611,48.149,48.171V378.517z"/>
			<path d="M271.844,320.006h-31.68c-3.029,0-5.504,2.453-5.504,5.483v53.035c0,3.029,2.475,5.483,5.504,5.483h31.68
				c3.029,0,5.483-2.453,5.483-5.483v-53.035C277.327,322.46,274.874,320.006,271.844,320.006z"/>
		</g>
	</g>
</g>
<g>
</g>
<g>
</g>
<g>
</g>
<g>
</g>
<g>
</g>
<g>
</g>
<g>
</g>
<g>
</g>
<g>
</g>
<g>
</g>
<g>
</g>
<g>
</g>
<g>
</g>
<g>
</g>
<g>
</g>
</svg>
