<?xml version="1.0" encoding="iso-8859-1"?>
<!-- Generator: Adobe Illustrator 19.0.0, SVG Export Plug-In . SVG Version: 6.00 Build 0)  -->
<svg version="1.1" id="Capa_1" xmlns="http://www.w3.org/2000/svg" xmlns:xlink="http://www.w3.org/1999/xlink" x="0px" y="0px"
	 viewBox="0 0 512 512" style="enable-background:new 0 0 512 512;" xml:space="preserve">
<g>
	<g>
		<g>
			<path d="M271.834,320.006h-31.659c-3.051,0-5.504,2.453-5.504,5.483v53.035c0,3.029,2.453,5.483,5.504,5.483h31.659
				c3.051,0,5.504-2.453,5.504-5.483v-53.035C277.338,322.46,274.884,320.006,271.834,320.006z"/>
			<path d="M405.333,214.805v-65.472C405.333,66.987,338.325,0,256,0S106.667,66.987,106.667,149.333v65.472
				c-36.373,6.827-64,38.72-64,77.035v141.675c0,43.264,35.2,78.485,78.507,78.485h269.653c43.307,0,78.507-35.221,78.507-78.485
				V291.84C469.333,253.525,441.707,221.632,405.333,214.805z M320,378.517c0,26.56-21.611,48.149-48.171,48.149h-31.659
				c-26.56,0-48.171-21.589-48.171-48.149v-53.013c0-26.56,21.611-48.171,48.171-48.171h31.659c26.56,0,48.171,21.611,48.171,48.171
				V378.517z M362.667,213.333H149.333v-64c0-58.816,47.851-106.667,106.667-106.667s106.667,47.851,106.667,106.667V213.333z"/>
		</g>
	</g>
</g>
<g>
</g>
<g>
</g>
<g>
</g>
<g>
</g>
<g>
</g>
<g>
</g>
<g>
</g>
<g>
</g>
<g>
</g>
<g>
</g>
<g>
</g>
<g>
</g>
<g>
</g>
<g>
</g>
<g>
</g>
</svg>
