<?xml version="1.0" encoding="iso-8859-1"?>
<!-- Generator: Adobe Illustrator 19.0.0, SVG Export Plug-In . SVG Version: 6.00 Build 0)  -->
<svg version="1.1" id="Capa_1" xmlns="http://www.w3.org/2000/svg" xmlns:xlink="http://www.w3.org/1999/xlink" x="0px" y="0px"
	 viewBox="0 0 512 512" style="enable-background:new 0 0 512 512;" xml:space="preserve">
<g>
	<g>
		<g>
			<path d="M362.667,208.32V106.667C362.667,47.851,314.816,0,256,0S149.333,47.851,149.333,106.667V208.32
				c-38.955,31.317-64,79.275-64,133.013C85.333,435.435,161.899,512,256,512s170.667-76.565,170.667-170.667
				C426.667,287.595,401.621,239.637,362.667,208.32z M277.333,380.075v25.259c0,11.797-9.536,21.333-21.333,21.333
				c-11.797,0-21.333-9.536-21.333-21.333v-25.259C209.899,371.243,192,347.776,192,320c0-35.285,28.715-64,64-64s64,28.715,64,64
				C320,347.776,302.101,371.243,277.333,380.075z M320,183.147c-2.091-0.853-4.245-1.472-6.357-2.24
				c-2.688-0.96-5.333-2.005-8.085-2.837c-2.859-0.875-5.803-1.536-8.725-2.24c-2.432-0.619-4.821-1.301-7.296-1.813
				c-3.456-0.683-6.976-1.131-10.475-1.6c-2.048-0.277-4.032-0.683-6.101-0.875c-5.611-0.576-11.264-0.875-16.96-0.875
				c-5.696,0-11.349,0.299-16.96,0.875c-2.069,0.192-4.075,0.597-6.101,0.875c-3.52,0.491-7.019,0.917-10.475,1.6
				c-2.475,0.512-4.864,1.195-7.317,1.813c-2.901,0.704-5.845,1.365-8.704,2.24c-2.752,0.832-5.419,1.877-8.107,2.837
				c-2.112,0.768-4.267,1.387-6.336,2.24v-76.48c0-35.285,28.715-64,64-64s64,28.715,64,64V183.147z"/>
			<path d="M256,298.673c-11.776,0-21.333,9.579-21.333,21.333S244.224,341.34,256,341.34c11.776,0,21.333-9.579,21.333-21.333
				S267.776,298.673,256,298.673z"/>
		</g>
	</g>
</g>
<g>
</g>
<g>
</g>
<g>
</g>
<g>
</g>
<g>
</g>
<g>
</g>
<g>
</g>
<g>
</g>
<g>
</g>
<g>
</g>
<g>
</g>
<g>
</g>
<g>
</g>
<g>
</g>
<g>
</g>
</svg>
