<?xml version="1.0" encoding="iso-8859-1"?>
<!-- Generator: Adobe Illustrator 19.0.0, SVG Export Plug-In . SVG Version: 6.00 Build 0)  -->
<svg version="1.1" id="Capa_1" xmlns="http://www.w3.org/2000/svg" xmlns:xlink="http://www.w3.org/1999/xlink" x="0px" y="0px"
	 viewBox="0 0 512 512" style="enable-background:new 0 0 512 512;" xml:space="preserve">
<g>
	<g>
		<g>
			<path d="M256,298.673c-11.776,0-21.333,9.579-21.333,21.333S244.224,341.34,256,341.34c11.776,0,21.333-9.579,21.333-21.333
				S267.776,298.673,256,298.673z"/>
			<path d="M362.667,208.32V106.667C362.667,47.851,314.816,0,256,0S149.333,47.851,149.333,106.667
				c0,11.797,9.536,21.333,21.333,21.333c11.797,0,21.333-9.536,21.333-21.333c0-35.285,28.715-64,64-64s64,28.715,64,64v76.565
				c-19.776-8.043-41.365-12.565-64-12.565c-94.101,0-170.667,76.565-170.667,170.667S161.899,512,256,512
				s170.667-76.565,170.667-170.667C426.667,287.595,401.621,239.637,362.667,208.32z M277.333,380.075v25.259
				c0,11.797-9.536,21.333-21.333,21.333c-11.797,0-21.333-9.536-21.333-21.333v-25.259C209.899,371.243,192,347.776,192,320
				c0-35.285,28.715-64,64-64s64,28.715,64,64C320,347.776,302.101,371.243,277.333,380.075z"/>
		</g>
	</g>
</g>
<g>
</g>
<g>
</g>
<g>
</g>
<g>
</g>
<g>
</g>
<g>
</g>
<g>
</g>
<g>
</g>
<g>
</g>
<g>
</g>
<g>
</g>
<g>
</g>
<g>
</g>
<g>
</g>
<g>
</g>
</svg>
