<?xml version="1.0" encoding="iso-8859-1"?>
<!-- Generator: Adobe Illustrator 19.0.0, SVG Export Plug-In . SVG Version: 6.00 Build 0)  -->
<svg version="1.1" id="Capa_1" xmlns="http://www.w3.org/2000/svg" xmlns:xlink="http://www.w3.org/1999/xlink" x="0px" y="0px"
	 viewBox="0 0 512 512" style="enable-background:new 0 0 512 512;" xml:space="preserve">
<g>
	<g>
		<g>
			<path d="M256,320c-11.776,0-21.333,9.579-21.333,21.333c0,11.755,9.557,21.333,21.333,21.333s21.333-9.579,21.333-21.333
				C277.333,329.579,267.776,320,256,320z"/>
			<path d="M362.667,208.32V106.667C362.667,47.851,314.816,0,256,0S149.333,47.851,149.333,106.667
				c0,11.776,9.536,21.333,21.333,21.333c11.797,0,21.333-9.557,21.333-21.333c0-35.285,28.715-64,64-64s64,28.715,64,64v76.565
				c-19.776-8.043-41.365-12.565-64-12.565c-94.101,0-170.667,76.565-170.667,170.667S161.899,512,256,512
				s170.667-76.565,170.667-170.667C426.667,287.573,401.621,239.616,362.667,208.32z M341.333,362.667h-25.259
				c-6.443,18.069-20.672,32.299-38.741,38.741v25.259c0,11.776-9.536,21.333-21.333,21.333s-21.333-9.557-21.333-21.333v-25.259
				c-18.069-6.443-32.299-20.672-38.741-38.741h-25.259c-11.797,0-21.333-9.557-21.333-21.333c0-11.776,9.536-21.333,21.333-21.333
				h25.259c6.443-18.069,20.672-32.299,38.741-38.741V256c0-11.776,9.536-21.333,21.333-21.333s21.333,9.557,21.333,21.333v25.259
				c18.069,6.443,32.299,20.672,38.741,38.741h25.259c11.797,0,21.333,9.557,21.333,21.333
				C362.667,353.109,353.131,362.667,341.333,362.667z"/>
		</g>
	</g>
</g>
<g>
</g>
<g>
</g>
<g>
</g>
<g>
</g>
<g>
</g>
<g>
</g>
<g>
</g>
<g>
</g>
<g>
</g>
<g>
</g>
<g>
</g>
<g>
</g>
<g>
</g>
<g>
</g>
<g>
</g>
</svg>
