<?xml version="1.0" encoding="iso-8859-1"?>
<!-- Generator: Adobe Illustrator 19.0.0, SVG Export Plug-In . SVG Version: 6.00 Build 0)  -->
<svg version="1.1" id="Capa_1" xmlns="http://www.w3.org/2000/svg" xmlns:xlink="http://www.w3.org/1999/xlink" x="0px" y="0px"
	 viewBox="0 0 512 512" style="enable-background:new 0 0 512 512;" xml:space="preserve">
<g>
	<g>
		<g>
			<path d="M149.333,128c0-11.755-9.557-21.333-21.333-21.333s-21.333,9.579-21.333,21.333c0,11.755,9.557,21.333,21.333,21.333
				S149.333,139.755,149.333,128z"/>
			<path d="M0,490.667C0,502.443,9.536,512,21.333,512h469.333c11.797,0,21.333-9.557,21.333-21.333v-64H0V490.667z"/>
			<path d="M490.667,0H21.333C9.536,0,0,9.557,0,21.333V384h512V21.333C512,9.557,502.464,0,490.667,0z M64,128
				c0-35.285,28.715-64,64-64s64,28.715,64,64s-28.715,64-64,64S64,163.285,64,128z M420.416,249.749
				c-8.341,8.341-21.824,8.341-30.165,0l-66.027-66.005l-41.365,68.949l9.557,9.557c8.341,8.341,8.341,21.824,0,30.165
				c-8.341,8.341-21.824,8.341-30.165,0l-48.917-48.917l-91.584,91.584c-4.16,4.16-9.621,6.251-15.083,6.251
				c-5.461,0-10.923-2.091-15.083-6.251c-8.341-8.341-8.341-21.824,0-30.165l106.667-106.667c8.341-8.341,21.824-8.341,30.165,0
				l23.339,23.339l49.963-83.243c3.371-5.611,9.152-9.387,15.68-10.197c6.421-0.768,13.035,1.429,17.685,6.101l85.333,85.333
				C428.757,227.925,428.757,241.408,420.416,249.749z"/>
		</g>
	</g>
</g>
<g>
</g>
<g>
</g>
<g>
</g>
<g>
</g>
<g>
</g>
<g>
</g>
<g>
</g>
<g>
</g>
<g>
</g>
<g>
</g>
<g>
</g>
<g>
</g>
<g>
</g>
<g>
</g>
<g>
</g>
</svg>
