<?xml version="1.0" encoding="iso-8859-1"?>
<!-- Generator: Adobe Illustrator 19.0.0, SVG Export Plug-In . SVG Version: 6.00 Build 0)  -->
<svg version="1.1" id="Capa_1" xmlns="http://www.w3.org/2000/svg" xmlns:xlink="http://www.w3.org/1999/xlink" x="0px" y="0px"
	 viewBox="0 0 512.006 512.006" style="enable-background:new 0 0 512.006 512.006;" xml:space="preserve">
<g>
	<g>
		<g>
			<path d="M490.67,0H21.337C9.539,0,0.003,9.557,0.003,21.333v341.333C0.003,374.443,9.539,384,21.337,384h106.667
				c11.797,0,21.333-9.557,21.333-21.333s-9.536-21.333-21.333-21.333H42.67V42.667h426.667v298.667h-85.333
				c-11.797,0-21.333,9.557-21.333,21.333S372.206,384,384.003,384H490.67c11.797,0,21.333-9.557,21.333-21.333V21.333
				C512.003,9.557,502.467,0,490.67,0z"/>
			<path d="M273.753,286.833c-7.915-11.883-27.584-11.883-35.499,0l-128,192c-4.352,6.549-4.779,14.955-1.067,21.888
				c3.712,6.955,10.944,11.285,18.816,11.285h256c7.872,0,15.104-4.331,18.816-11.285c3.712-6.933,3.285-15.339-1.067-21.888
				L273.753,286.833z"/>
		</g>
	</g>
</g>
<g>
</g>
<g>
</g>
<g>
</g>
<g>
</g>
<g>
</g>
<g>
</g>
<g>
</g>
<g>
</g>
<g>
</g>
<g>
</g>
<g>
</g>
<g>
</g>
<g>
</g>
<g>
</g>
<g>
</g>
</svg>
