<?xml version="1.0" encoding="iso-8859-1"?>
<!-- Generator: Adobe Illustrator 19.0.0, SVG Export Plug-In . SVG Version: 6.00 Build 0)  -->
<svg version="1.1" id="Capa_1" xmlns="http://www.w3.org/2000/svg" xmlns:xlink="http://www.w3.org/1999/xlink" x="0px" y="0px"
	 viewBox="0 0 512 512" style="enable-background:new 0 0 512 512;" xml:space="preserve">
<g>
	<g>
		<g>
			<path d="M490.667,469.333c-23.531,0-42.667-19.136-42.667-42.667c0-0.555-0.277-1.024-0.32-1.557
				C487.573,379.947,512,320.853,512,256C512,114.837,397.163,0,256,0S0,114.837,0,256s114.837,256,256,256
				c58.603,0,112.512-20.011,155.712-53.269C424.405,489.92,454.955,512,490.667,512c11.797,0,21.333-9.557,21.333-21.333
				S502.464,469.333,490.667,469.333z M256,426.667c-94.101,0-170.667-76.565-170.667-170.667S161.899,85.333,256,85.333
				S426.667,161.899,426.667,256S350.101,426.667,256,426.667z"/>
			<path d="M256,128c-70.592,0-128,57.408-128,128s57.408,128,128,128s128-57.408,128-128S326.592,128,256,128z M256,341.333
				c-47.061,0-85.333-38.272-85.333-85.333s38.272-85.333,85.333-85.333s85.333,38.272,85.333,85.333S303.061,341.333,256,341.333z"
				/>
			<path d="M256,213.333c-23.531,0-42.667,19.136-42.667,42.667s19.136,42.667,42.667,42.667s42.667-19.136,42.667-42.667
				S279.531,213.333,256,213.333z"/>
		</g>
	</g>
</g>
<g>
</g>
<g>
</g>
<g>
</g>
<g>
</g>
<g>
</g>
<g>
</g>
<g>
</g>
<g>
</g>
<g>
</g>
<g>
</g>
<g>
</g>
<g>
</g>
<g>
</g>
<g>
</g>
<g>
</g>
</svg>
