<?xml version="1.0" encoding="iso-8859-1"?>
<!-- Generator: Adobe Illustrator 19.0.0, SVG Export Plug-In . SVG Version: 6.00 Build 0)  -->
<svg version="1.1" id="Capa_1" xmlns="http://www.w3.org/2000/svg" xmlns:xlink="http://www.w3.org/1999/xlink" x="0px" y="0px"
	 viewBox="0 0 512 512" style="enable-background:new 0 0 512 512;" xml:space="preserve">
<g>
	<g>
		<g>
			<path d="M128,96h256c11.797,0,21.333-9.557,21.333-21.333S395.797,53.333,384,53.333H128c-11.797,0-21.333,9.557-21.333,21.333
				S116.203,96,128,96z"/>
			<path d="M256,224c-35.285,0-64,28.715-64,64s28.715,64,64,64s64-28.715,64-64S291.285,224,256,224z"/>
			<path d="M469.333,117.333H42.667C19.136,117.333,0,136.469,0,160v256c0,23.531,19.136,42.667,42.667,42.667h426.667
				C492.864,458.667,512,439.531,512,416V160C512,136.469,492.864,117.333,469.333,117.333z M256,394.667
				c-58.816,0-106.667-47.851-106.667-106.667S197.184,181.333,256,181.333S362.667,229.184,362.667,288
				S314.816,394.667,256,394.667z"/>
		</g>
	</g>
</g>
<g>
</g>
<g>
</g>
<g>
</g>
<g>
</g>
<g>
</g>
<g>
</g>
<g>
</g>
<g>
</g>
<g>
</g>
<g>
</g>
<g>
</g>
<g>
</g>
<g>
</g>
<g>
</g>
<g>
</g>
</svg>
