<?xml version="1.0" encoding="iso-8859-1"?>
<!-- Generator: Adobe Illustrator 19.0.0, SVG Export Plug-In . SVG Version: 6.00 Build 0)  -->
<svg version="1.1" id="Capa_1" xmlns="http://www.w3.org/2000/svg" xmlns:xlink="http://www.w3.org/1999/xlink" x="0px" y="0px"
	 viewBox="0 0 512 512" style="enable-background:new 0 0 512 512;" xml:space="preserve">
<g>
	<g>
		<g>
			<polygon points="234.667,186.743 384,153.549 384,111.927 234.667,145.122 			"/>
			<path d="M160,362.667c-17.045,0-32,9.963-32,21.333c0,11.371,14.955,21.333,32,21.333s32-9.963,32-21.333
				C192,372.629,177.045,362.667,160,362.667z"/>
			<path d="M352,298.667c-17.045,0-32,9.963-32,21.333s14.955,21.333,32,21.333s32-9.963,32-21.333S369.045,298.667,352,298.667z"/>
			<path d="M426.667,0H85.333C38.272,0,0,38.272,0,85.333v341.333C0,473.728,38.272,512,85.333,512h341.333
				C473.728,512,512,473.728,512,426.667V85.333C512,38.272,473.728,0,426.667,0z M426.667,170.667V320
				c0,35.285-33.493,64-74.667,64s-74.667-28.715-74.667-64s33.493-64,74.667-64c11.499,0,22.272,2.432,32,6.421v-65.173
				l-149.333,33.195V384c0,35.285-33.493,64-74.667,64s-74.667-28.715-74.667-64c0-35.285,33.493-64,74.667-64
				c11.499,0,22.272,2.432,32,6.421V213.333V128c0-10.005,6.955-18.667,16.704-20.821l192-42.667
				c6.336-1.429,12.949,0.128,17.963,4.181c5.056,4.053,8,10.176,8,16.64V170.667z"/>
		</g>
	</g>
</g>
<g>
</g>
<g>
</g>
<g>
</g>
<g>
</g>
<g>
</g>
<g>
</g>
<g>
</g>
<g>
</g>
<g>
</g>
<g>
</g>
<g>
</g>
<g>
</g>
<g>
</g>
<g>
</g>
<g>
</g>
</svg>
