<?xml version="1.0" encoding="iso-8859-1"?>
<!-- Generator: Adobe Illustrator 19.0.0, SVG Export Plug-In . SVG Version: 6.00 Build 0)  -->
<svg version="1.1" id="Capa_1" xmlns="http://www.w3.org/2000/svg" xmlns:xlink="http://www.w3.org/1999/xlink" x="0px" y="0px"
	 viewBox="0 0 512.017 512.017" style="enable-background:new 0 0 512.017 512.017;" xml:space="preserve">
<g>
	<g>
		<path d="M504.648,5.222c-4.651-4.053-10.88-5.909-17.003-4.992L188.979,42.897c-10.496,1.493-18.304,10.496-18.304,21.12v85.333
			v209.493c-17.877-10.816-39.893-17.493-64-17.493c-58.816,0-106.667,38.272-106.667,85.333c0,47.04,47.851,85.333,106.667,85.333
			c58.816,0,106.667-38.293,106.667-85.333V167.846l256-36.565v163.563c-17.877-10.816-39.893-17.493-64-17.493
			c-58.816,0-106.667,38.272-106.667,85.333c0,47.04,47.851,85.333,106.667,85.333c58.816,0,106.667-38.293,106.667-85.333v-256
			V21.35C512.008,15.164,509.32,9.276,504.648,5.222z M469.342,88.188l-256,36.565v-42.24l256-36.565V88.188z"/>
	</g>
</g>
<g>
</g>
<g>
</g>
<g>
</g>
<g>
</g>
<g>
</g>
<g>
</g>
<g>
</g>
<g>
</g>
<g>
</g>
<g>
</g>
<g>
</g>
<g>
</g>
<g>
</g>
<g>
</g>
<g>
</g>
</svg>
