<?xml version="1.0" encoding="iso-8859-1"?>
<!-- Generator: Adobe Illustrator 19.0.0, SVG Export Plug-In . SVG Version: 6.00 Build 0)  -->
<svg version="1.1" id="Capa_1" xmlns="http://www.w3.org/2000/svg" xmlns:xlink="http://www.w3.org/1999/xlink" x="0px" y="0px"
	 viewBox="0 0 512.021 512.021" style="enable-background:new 0 0 512.021 512.021;" xml:space="preserve">
<g>
	<g>
		<g>
			<path d="M21.344,405.029h469.333c7.808,0,14.997-4.267,18.752-11.136c3.733-6.869,3.413-15.232-0.832-21.781L273.93,9.445
				c-7.872-12.16-27.968-12.16-35.84,0L3.424,372.112c-4.245,6.549-4.565,14.912-0.832,21.781
				C6.346,400.762,13.536,405.029,21.344,405.029z"/>
			<path d="M490.677,469.029H21.344c-11.797,0-21.333,9.557-21.333,21.333s9.536,21.333,21.333,21.333h469.333
				c11.797,0,21.333-9.557,21.333-21.333S502.474,469.029,490.677,469.029z"/>
		</g>
	</g>
</g>
<g>
</g>
<g>
</g>
<g>
</g>
<g>
</g>
<g>
</g>
<g>
</g>
<g>
</g>
<g>
</g>
<g>
</g>
<g>
</g>
<g>
</g>
<g>
</g>
<g>
</g>
<g>
</g>
<g>
</g>
</svg>
