<?xml version="1.0" encoding="iso-8859-1"?>
<!-- Generator: Adobe Illustrator 19.0.0, SVG Export Plug-In . SVG Version: 6.00 Build 0)  -->
<svg version="1.1" id="Capa_1" xmlns="http://www.w3.org/2000/svg" xmlns:xlink="http://www.w3.org/1999/xlink" x="0px" y="0px"
	 viewBox="0 0 512 512" style="enable-background:new 0 0 512 512;" xml:space="preserve">
<g>
	<g>
		<g>
			<polygon points="298.675,317.111 371.998,255.991 298.675,194.893 			"/>
			<path d="M256,0C114.837,0,0,114.837,0,256s114.837,256,256,256c141.184,0,256-114.837,256-256S397.184,0,256,0z M419.008,272.384
				l-128,106.667c-3.925,3.264-8.768,4.949-13.675,4.949c-3.072,0-6.165-0.661-9.024-2.005C260.8,378.475,256,370.944,256,362.667
				v-61.12l-92.992,77.504c-3.925,3.264-8.768,4.949-13.675,4.949c-3.072,0-6.165-0.661-9.024-2.005
				C132.8,378.475,128,370.944,128,362.667V149.333c0-8.277,4.8-15.808,12.309-19.328c7.445-3.477,16.32-2.347,22.699,2.944
				L256,210.453v-61.12c0-8.277,4.8-15.808,12.309-19.328c7.467-3.477,16.32-2.347,22.699,2.944l128,106.667
				c4.864,4.053,7.659,10.048,7.659,16.384S423.872,268.331,419.008,272.384z"/>
			<polygon points="170.675,317.111 243.998,255.991 170.675,194.893 			"/>
		</g>
	</g>
</g>
<g>
</g>
<g>
</g>
<g>
</g>
<g>
</g>
<g>
</g>
<g>
</g>
<g>
</g>
<g>
</g>
<g>
</g>
<g>
</g>
<g>
</g>
<g>
</g>
<g>
</g>
<g>
</g>
<g>
</g>
</svg>
