<?xml version="1.0" encoding="iso-8859-1"?>
<!-- Generator: Adobe Illustrator 19.0.0, SVG Export Plug-In . SVG Version: 6.00 Build 0)  -->
<svg version="1.1" id="Capa_1" xmlns="http://www.w3.org/2000/svg" xmlns:xlink="http://www.w3.org/1999/xlink" x="0px" y="0px"
	 viewBox="0 0 512 512" style="enable-background:new 0 0 512 512;" xml:space="preserve">
<g>
	<g>
		<g>
			<polygon points="191.994,344.143 191.994,253.199 123.791,298.66 			"/>
			<path d="M256,0C114.816,0,0,114.837,0,256s114.816,256,256,256c141.163,0,256-114.837,256-256S397.163,0,256,0z M341.333,320
				H234.667v64c0,7.872-4.331,15.104-11.285,18.816c-6.912,3.712-15.36,3.307-21.888-1.067l-128-85.333
				C67.563,312.469,64,305.813,64,298.667c0-7.125,3.563-13.781,9.493-17.749l128-85.333c3.563-2.368,7.68-3.584,11.84-3.584
				c3.456,0,6.912,0.832,10.048,2.517c6.955,3.733,11.285,10.944,11.285,18.816v64h106.667c35.285,0,64-28.715,64-64
				c0-11.776,9.536-21.333,21.333-21.333c11.776,0,21.333,9.557,21.333,21.333C448,272.149,400.149,320,341.333,320z"/>
		</g>
	</g>
</g>
<g>
</g>
<g>
</g>
<g>
</g>
<g>
</g>
<g>
</g>
<g>
</g>
<g>
</g>
<g>
</g>
<g>
</g>
<g>
</g>
<g>
</g>
<g>
</g>
<g>
</g>
<g>
</g>
<g>
</g>
</svg>
