<?xml version="1.0" encoding="iso-8859-1"?>
<!-- Generator: Adobe Illustrator 19.0.0, SVG Export Plug-In . SVG Version: 6.00 Build 0)  -->
<svg version="1.1" id="Capa_1" xmlns="http://www.w3.org/2000/svg" xmlns:xlink="http://www.w3.org/1999/xlink" x="0px" y="0px"
	 viewBox="0 0 512 512" style="enable-background:new 0 0 512 512;" xml:space="preserve">
<g>
	<g>
		<g>
			<path d="M256,0C114.837,0,0,114.837,0,256s114.837,256,256,256s256-114.837,256-256S397.163,0,256,0z M341.333,384
				c0,7.68-4.139,14.784-10.816,18.56c-3.264,1.856-6.891,2.773-10.517,2.773c-3.797,0-7.595-1.003-10.987-3.029l-99.072-59.456
				c-1.643-0.981-3.541-1.515-5.461-1.515H128c-23.531,0-42.667-19.136-42.667-42.667v-85.333c0-23.531,19.136-42.667,42.667-42.667
				h76.48c1.92,0,3.819-0.512,5.44-1.493l99.093-59.456c6.592-3.968,14.827-4.075,21.504-0.277
				c6.677,3.776,10.816,10.88,10.816,18.56V384z M402.667,351.659c-3.883,7.04-11.179,11.008-18.688,11.008
				c-3.499,0-7.04-0.853-10.304-2.667c-10.304-5.696-14.059-18.667-8.341-28.992c42.091-76.16,2.005-146.539,0.299-149.504
				c-5.931-10.155-2.56-23.211,7.573-29.184c10.133-5.931,23.125-2.645,29.12,7.445
				C404.587,163.563,456.853,253.632,402.667,351.659z"/>
			<path d="M204.489,213.335h-76.48v85.333h76.48c9.664,0,19.136,2.624,27.413,7.595l66.773,40.064V165.677l-66.773,40.064
				C223.625,210.711,214.153,213.335,204.489,213.335z"/>
		</g>
	</g>
</g>
<g>
</g>
<g>
</g>
<g>
</g>
<g>
</g>
<g>
</g>
<g>
</g>
<g>
</g>
<g>
</g>
<g>
</g>
<g>
</g>
<g>
</g>
<g>
</g>
<g>
</g>
<g>
</g>
<g>
</g>
</svg>
