<?xml version="1.0" encoding="iso-8859-1"?>
<!-- Generator: Adobe Illustrator 19.0.0, SVG Export Plug-In . SVG Version: 6.00 Build 0)  -->
<svg version="1.1" id="Capa_1" xmlns="http://www.w3.org/2000/svg" xmlns:xlink="http://www.w3.org/1999/xlink" x="0px" y="0px"
	 viewBox="0 0 512 512" style="enable-background:new 0 0 512 512;" xml:space="preserve">
<g>
	<g>
		<g>
			<path d="M184.439,213.335h-56.448v85.333h56.448c8.235,0,16.469,1.941,23.829,5.611l47.723,23.872V183.853l-47.701,23.851
				C200.909,211.394,192.674,213.335,184.439,213.335z"/>
			<path d="M256,0C114.837,0,0,114.837,0,256s114.837,256,256,256c141.141,0,256-114.837,256-256S397.141,0,256,0z M298.667,362.667
				c0,7.403-3.84,14.272-10.133,18.155c-3.413,2.112-7.317,3.179-11.2,3.179c-3.264,0-6.549-0.747-9.557-2.24l-78.571-39.296
				c-1.472-0.725-3.115-1.131-4.757-1.131H128c-23.531,0-42.667-19.136-42.667-42.667v-85.333c0-23.531,19.136-42.667,42.667-42.667
				h56.448c1.643,0,3.285-0.384,4.779-1.131l78.549-39.275c6.613-3.307,14.485-2.965,20.757,0.939
				c6.293,3.883,10.133,10.731,10.133,18.133V362.667z M336.427,320c-1.685,0-3.413-0.192-5.12-0.619
				c-11.435-2.816-18.432-14.379-15.616-25.813c5.952-24.171,5.76-49.472-0.576-75.157c-2.816-11.435,4.181-22.997,15.616-25.835
				c11.413-2.731,23.019,4.181,25.813,15.616c8,32.469,8.192,64.64,0.576,95.573C354.731,313.493,346.005,320,336.427,320z
				 M402.261,351.659c-3.883,7.04-11.179,11.008-18.688,11.008c-3.499,0-7.04-0.853-10.304-2.667
				c-10.304-5.696-14.059-18.667-8.341-28.992c42.091-76.16,2.005-146.539,0.299-149.504c-5.931-10.155-2.56-23.211,7.573-29.184
				c10.133-5.931,23.125-2.645,29.12,7.445C404.181,163.563,456.448,253.632,402.261,351.659z"/>
		</g>
	</g>
</g>
<g>
</g>
<g>
</g>
<g>
</g>
<g>
</g>
<g>
</g>
<g>
</g>
<g>
</g>
<g>
</g>
<g>
</g>
<g>
</g>
<g>
</g>
<g>
</g>
<g>
</g>
<g>
</g>
<g>
</g>
</svg>
