<?xml version="1.0" encoding="iso-8859-1"?>
<!-- Generator: Adobe Illustrator 19.0.0, SVG Export Plug-In . SVG Version: 6.00 Build 0)  -->
<svg version="1.1" id="Capa_1" xmlns="http://www.w3.org/2000/svg" xmlns:xlink="http://www.w3.org/1999/xlink" x="0px" y="0px"
	 viewBox="0 0 512 512" style="enable-background:new 0 0 512 512;" xml:space="preserve">
<g>
	<g>
		<g>
			<path d="M184.435,213.331h-56.448v85.333h56.448c8.256,0,16.491,1.941,23.851,5.632l47.701,23.851V183.849l-47.701,23.851
				C200.926,211.39,192.691,213.331,184.435,213.331z"/>
			<path d="M256,0C114.837,0,0,114.837,0,256s114.837,256,256,256s256-114.837,256-256S397.163,0,256,0z M298.667,362.667
				c0,7.403-3.84,14.251-10.133,18.133c-3.413,2.133-7.317,3.2-11.2,3.2c-3.264,0-6.528-0.747-9.536-2.261l-78.592-39.275
				c-1.451-0.747-3.115-1.131-4.779-1.131H128c-23.531,0-42.667-19.136-42.667-42.667v-85.333c0-23.531,19.136-42.667,42.667-42.667
				h56.427c1.664,0,3.328-0.384,4.779-1.131l78.592-39.296c6.592-3.285,14.443-2.944,20.736,0.939
				c6.293,3.883,10.133,10.752,10.133,18.155V362.667z M444.331,316.331c-4.16,4.16-9.621,6.251-15.083,6.251
				c-5.461,0-10.923-2.091-15.083-6.251L384,286.165l-30.165,30.165c-4.16,4.16-9.621,6.251-15.083,6.251
				c-5.461,0-10.923-2.091-15.083-6.251c-8.341-8.341-8.341-21.824,0-30.165L353.835,256l-30.165-30.165
				c-8.341-8.341-8.341-21.845,0-30.165c8.32-8.341,21.824-8.341,30.165,0L384,225.835l30.165-30.165
				c8.341-8.341,21.824-8.341,30.165,0c8.341,8.32,8.341,21.824,0,30.165L414.165,256l30.165,30.165
				C452.672,294.507,452.672,307.989,444.331,316.331z"/>
		</g>
	</g>
</g>
<g>
</g>
<g>
</g>
<g>
</g>
<g>
</g>
<g>
</g>
<g>
</g>
<g>
</g>
<g>
</g>
<g>
</g>
<g>
</g>
<g>
</g>
<g>
</g>
<g>
</g>
<g>
</g>
<g>
</g>
</svg>
