<?xml version="1.0" encoding="iso-8859-1"?>
<!-- Generator: Adobe Illustrator 19.0.0, SVG Export Plug-In . SVG Version: 6.00 Build 0)  -->
<svg version="1.1" id="Capa_1" xmlns="http://www.w3.org/2000/svg" xmlns:xlink="http://www.w3.org/1999/xlink" x="0px" y="0px"
	 viewBox="0 0 512.015 512.015" style="enable-background:new 0 0 512.015 512.015;" xml:space="preserve">
<g>
	<g>
		<path d="M415.666,2.682c-6.763-3.776-15.061-3.541-21.653,0.555L256.008,89.509v81.173c0,11.776-9.557,21.333-21.333,21.333
			c-11.797,0-21.333-9.557-21.333-21.333v-64H106.674c-11.797,0-21.333,9.536-21.333,21.333v256
			c0,11.776,9.536,21.333,21.333,21.333h106.667v-64c0-11.797,9.536-21.333,21.333-21.333c11.776,0,21.333,9.536,21.333,21.333
			v81.152l138.005,86.272c3.456,2.155,7.381,3.243,11.328,3.243c3.563,0,7.125-0.896,10.325-2.688
			c6.784-3.755,11.008-10.901,11.008-18.645V21.349C426.674,13.583,422.45,6.437,415.666,2.682z"/>
	</g>
</g>
<g>
</g>
<g>
</g>
<g>
</g>
<g>
</g>
<g>
</g>
<g>
</g>
<g>
</g>
<g>
</g>
<g>
</g>
<g>
</g>
<g>
</g>
<g>
</g>
<g>
</g>
<g>
</g>
<g>
</g>
</svg>
