<?xml version="1.0" encoding="iso-8859-1"?>
<!-- Generator: Adobe Illustrator 19.0.0, SVG Export Plug-In . SVG Version: 6.00 Build 0)  -->
<svg version="1.1" id="Capa_1" xmlns="http://www.w3.org/2000/svg" xmlns:xlink="http://www.w3.org/1999/xlink" x="0px" y="0px"
	 viewBox="0 0 512 512" style="enable-background:new 0 0 512 512;" xml:space="preserve">
<g>
	<g>
		<g>
			<polygon points="298.667,324.177 298.667,187.814 189.589,255.996 			"/>
			<path d="M256,0C114.837,0,0,114.837,0,256s114.837,256,256,256s256-114.837,256-256S397.163,0,256,0z M341.333,362.667
				c0,7.765-4.203,14.891-11.008,18.667c-3.2,1.771-6.763,2.667-10.325,2.667c-3.947,0-7.851-1.088-11.307-3.243L138.027,274.091
				C131.797,270.187,128,263.36,128,256s3.797-14.187,10.027-18.091l170.667-106.667c6.592-4.117,14.891-4.352,21.632-0.576
				c6.805,3.776,11.008,10.901,11.008,18.667V362.667z"/>
		</g>
	</g>
</g>
<g>
</g>
<g>
</g>
<g>
</g>
<g>
</g>
<g>
</g>
<g>
</g>
<g>
</g>
<g>
</g>
<g>
</g>
<g>
</g>
<g>
</g>
<g>
</g>
<g>
</g>
<g>
</g>
<g>
</g>
</svg>
