<?xml version="1.0" encoding="iso-8859-1"?>
<!-- Generator: Adobe Illustrator 19.0.0, SVG Export Plug-In . SVG Version: 6.00 Build 0)  -->
<svg version="1.1" id="Capa_1" xmlns="http://www.w3.org/2000/svg" xmlns:xlink="http://www.w3.org/1999/xlink" x="0px" y="0px"
	 viewBox="0 0 512 512" style="enable-background:new 0 0 512 512;" xml:space="preserve">
<g>
	<g>
		<g>
			<path d="M256,149.333c23.531,0,42.667-19.136,42.667-42.667C298.667,83.136,279.531,64,256,64s-42.667,19.136-42.667,42.667
				C213.333,130.197,232.469,149.333,256,149.333z"/>
			<path d="M0,0v512h512V0H0z M256,21.333c47.061,0,85.333,38.272,85.333,85.333S303.061,192,256,192s-85.333-38.272-85.333-85.333
				S208.939,21.333,256,21.333z M256,490.667c-47.061,0-85.333-38.272-85.333-85.333C170.667,358.272,208.939,320,256,320
				s85.333,38.272,85.333,85.333C341.333,452.395,303.061,490.667,256,490.667z M448,277.333H64
				c-11.797,0-21.333-9.557-21.333-21.333S52.203,234.667,64,234.667h384c11.797,0,21.333,9.557,21.333,21.333
				S459.797,277.333,448,277.333z"/>
			<path d="M256,362.667c-23.531,0-42.667,19.136-42.667,42.667C213.333,428.864,232.469,448,256,448s42.667-19.136,42.667-42.667
				C298.667,381.803,279.531,362.667,256,362.667z"/>
		</g>
	</g>
</g>
<g>
</g>
<g>
</g>
<g>
</g>
<g>
</g>
<g>
</g>
<g>
</g>
<g>
</g>
<g>
</g>
<g>
</g>
<g>
</g>
<g>
</g>
<g>
</g>
<g>
</g>
<g>
</g>
<g>
</g>
</svg>
