<?xml version="1.0" encoding="iso-8859-1"?>
<!-- Generator: Adobe Illustrator 19.0.0, SVG Export Plug-In . SVG Version: 6.00 Build 0)  -->
<svg version="1.1" id="Capa_1" xmlns="http://www.w3.org/2000/svg" xmlns:xlink="http://www.w3.org/1999/xlink" x="0px" y="0px"
	 viewBox="0 0 512 512" style="enable-background:new 0 0 512 512;" xml:space="preserve">
<g>
	<g>
		<path d="M0,0v512h512V0H0z M448,362.667H64c-11.797,0-21.333-9.557-21.333-21.333C42.667,329.557,52.203,320,64,320h384
			c11.797,0,21.333,9.557,21.333,21.333C469.333,353.109,459.797,362.667,448,362.667z M448,192H64
			c-11.797,0-21.333-9.557-21.333-21.333S52.203,149.333,64,149.333h384c11.797,0,21.333,9.557,21.333,21.333S459.797,192,448,192z"
			/>
	</g>
</g>
<g>
</g>
<g>
</g>
<g>
</g>
<g>
</g>
<g>
</g>
<g>
</g>
<g>
</g>
<g>
</g>
<g>
</g>
<g>
</g>
<g>
</g>
<g>
</g>
<g>
</g>
<g>
</g>
<g>
</g>
</svg>
