<?xml version="1.0" encoding="iso-8859-1"?>
<!-- Generator: Adobe Illustrator 19.0.0, SVG Export Plug-In . SVG Version: 6.00 Build 0)  -->
<svg version="1.1" id="Capa_1" xmlns="http://www.w3.org/2000/svg" xmlns:xlink="http://www.w3.org/1999/xlink" x="0px" y="0px"
	 viewBox="0 0 512 512" style="enable-background:new 0 0 512 512;" xml:space="preserve">
<g>
	<g>
		<g>
			<path d="M106.667,149.333c23.531,0,42.667-19.136,42.667-42.667c0-23.531-19.136-42.667-42.667-42.667
				C83.136,64,64,83.136,64,106.667C64,130.197,83.136,149.333,106.667,149.333z"/>
			<path d="M405.333,362.667c-23.531,0-42.667,19.136-42.667,42.667c0,23.531,19.136,42.667,42.667,42.667
				C428.864,448,448,428.864,448,405.333C448,381.803,428.864,362.667,405.333,362.667z"/>
			<path d="M0,0v512h512V0H0z M106.667,21.333c47.061,0,85.333,38.272,85.333,85.333S153.728,192,106.667,192
				s-85.333-38.272-85.333-85.333S59.605,21.333,106.667,21.333z M405.333,490.667c-47.061,0-85.333-38.272-85.333-85.333
				C320,358.272,358.272,320,405.333,320c47.061,0,85.333,38.272,85.333,85.333C490.667,452.395,452.395,490.667,405.333,490.667z
				 M484.416,57.749L57.749,484.416c-4.16,4.16-9.621,6.251-15.083,6.251c-5.461,0-10.923-2.091-15.083-6.251
				c-8.341-8.341-8.341-21.824,0-30.165L454.251,27.584c8.341-8.341,21.824-8.341,30.165,0
				C492.757,35.925,492.757,49.408,484.416,57.749z"/>
		</g>
	</g>
</g>
<g>
</g>
<g>
</g>
<g>
</g>
<g>
</g>
<g>
</g>
<g>
</g>
<g>
</g>
<g>
</g>
<g>
</g>
<g>
</g>
<g>
</g>
<g>
</g>
<g>
</g>
<g>
</g>
<g>
</g>
</svg>
