<?xml version="1.0" encoding="iso-8859-1"?>
<!-- Generator: Adobe Illustrator 19.0.0, SVG Export Plug-In . SVG Version: 6.00 Build 0)  -->
<svg version="1.1" id="Capa_1" xmlns="http://www.w3.org/2000/svg" xmlns:xlink="http://www.w3.org/1999/xlink" x="0px" y="0px"
	 viewBox="0 0 512.005 512.005" style="enable-background:new 0 0 512.005 512.005;" xml:space="preserve">
<g>
	<g>
		<g>
			<path d="M490.672,149.337h-42.667c-11.776,0-21.333,9.557-21.333,21.333s9.557,21.333,21.333,21.333h42.667
				c11.776,0,21.333-9.557,21.333-21.333S502.448,149.337,490.672,149.337z"/>
			<path d="M341.339,85.337c11.776,0,21.333-9.557,21.333-21.333V21.337c0-11.776-9.557-21.333-21.333-21.333
				c-11.776,0-21.333,9.557-21.333,21.333v42.667C320.005,75.78,329.563,85.337,341.339,85.337z"/>
			<path d="M341.339,277.337c-11.776,0-21.333,9.557-21.333,21.333v21.333c0,11.776,9.557,21.333,21.333,21.333
				c11.776,0,21.333-9.557,21.333-21.333V298.67C362.672,286.894,353.115,277.337,341.339,277.337z"/>
			<path d="M250.828,110.327c4.16,4.16,9.621,6.251,15.083,6.251c5.461,0,10.923-2.091,15.083-6.251
				c8.341-8.341,8.341-21.824,0-30.165l-30.165-30.165c-8.341-8.341-21.824-8.341-30.165,0c-8.341,8.32-8.341,21.824,0,30.165
				L250.828,110.327z"/>
			<path d="M431.85,231.014c-8.341-8.341-21.824-8.341-30.165,0s-8.341,21.824,0,30.165l30.165,30.165
				c4.16,4.16,9.621,6.251,15.083,6.251c5.461,0,10.923-2.091,15.083-6.251c8.341-8.32,8.341-21.824,0-30.165L431.85,231.014z"/>
			<path d="M416.765,116.578c5.461,0,10.923-2.091,15.083-6.251l30.165-30.165c8.341-8.341,8.341-21.824,0-30.165
				c-8.341-8.341-21.824-8.341-30.165,0l-30.165,30.165c-8.341,8.341-8.341,21.824,0,30.165
				C405.842,114.487,411.303,116.578,416.765,116.578z"/>
			<path d="M6.256,430.338c-8.341,8.341-8.341,21.824,0,30.165l45.248,45.248c4.16,4.16,9.621,6.251,15.083,6.251
				c5.461,0,10.923-2.091,15.083-6.251L310.64,276.802l-75.435-75.413L6.256,430.338z"/>
			<path d="M353.838,112.921c-8.341-8.341-21.824-8.341-30.165,0l-58.283,58.283l75.413,75.435l58.283-58.304
				c8.341-8.32,8.341-21.824,0-30.165L353.838,112.921z"/>
		</g>
	</g>
</g>
<g>
</g>
<g>
</g>
<g>
</g>
<g>
</g>
<g>
</g>
<g>
</g>
<g>
</g>
<g>
</g>
<g>
</g>
<g>
</g>
<g>
</g>
<g>
</g>
<g>
</g>
<g>
</g>
<g>
</g>
</svg>
