<?xml version="1.0" encoding="iso-8859-1"?>
<!-- Generator: Adobe Illustrator 19.0.0, SVG Export Plug-In . SVG Version: 6.00 Build 0)  -->
<svg version="1.1" id="Capa_1" xmlns="http://www.w3.org/2000/svg" xmlns:xlink="http://www.w3.org/1999/xlink" x="0px" y="0px"
	 viewBox="0 0 512 512" style="enable-background:new 0 0 512 512;" xml:space="preserve">
<g>
	<g>
		<path d="M490.667,0H21.333C9.536,0,0,9.557,0,21.333v469.333C0,502.464,9.536,512,21.333,512h469.333
			c11.776,0,21.333-9.536,21.333-21.333V21.333C512,9.557,502.443,0,490.667,0z M406.848,376.683c8.341,8.341,8.341,21.824,0,30.165
			c-4.16,4.16-9.621,6.251-15.083,6.251c-5.461,0-10.923-2.091-15.083-6.251L256,286.165L135.296,406.848
			c-4.16,4.16-9.621,6.251-15.083,6.251c-5.44,0-10.901-2.091-15.083-6.251c-8.32-8.341-8.32-21.824,0-30.165L225.835,256
			L105.131,135.339c-8.32-8.341-8.32-21.845,0-30.187c8.341-8.32,21.845-8.32,30.165,0L256,225.835l120.683-120.683
			c8.341-8.32,21.824-8.32,30.165,0c8.341,8.341,8.341,21.845,0,30.187L286.165,256L406.848,376.683z"/>
	</g>
</g>
<g>
</g>
<g>
</g>
<g>
</g>
<g>
</g>
<g>
</g>
<g>
</g>
<g>
</g>
<g>
</g>
<g>
</g>
<g>
</g>
<g>
</g>
<g>
</g>
<g>
</g>
<g>
</g>
<g>
</g>
</svg>
