<?xml version="1.0" encoding="iso-8859-1"?>
<!-- Generator: Adobe Illustrator 19.0.0, SVG Export Plug-In . SVG Version: 6.00 Build 0)  -->
<svg version="1.1" id="Capa_1" xmlns="http://www.w3.org/2000/svg" xmlns:xlink="http://www.w3.org/1999/xlink" x="0px" y="0px"
	 viewBox="0 0 512 512" style="enable-background:new 0 0 512 512;" xml:space="preserve">
<g>
	<g>
		<g>
			<path d="M256,170.667c11.776,0,21.333-9.579,21.333-21.333c0-11.755-9.557-21.333-21.333-21.333s-21.333,9.579-21.333,21.333
				C234.667,161.088,244.224,170.667,256,170.667z"/>
			<path d="M256,341.333c-11.776,0-21.333,9.579-21.333,21.333S244.224,384,256,384s21.333-9.579,21.333-21.333
				S267.776,341.333,256,341.333z"/>
			<path d="M490.667,0H21.333C9.536,0,0,9.557,0,21.333v469.333C0,502.443,9.536,512,21.333,512h469.333
				c11.797,0,21.333-9.557,21.333-21.333V21.333C512,9.557,502.464,0,490.667,0z M256,85.333c35.285,0,64,28.715,64,64
				c0,35.285-28.715,64-64,64s-64-28.715-64-64C192,114.048,220.715,85.333,256,85.333z M256,426.667c-35.285,0-64-28.715-64-64
				s28.715-64,64-64s64,28.715,64,64S291.285,426.667,256,426.667z M405.333,277.333H106.667c-11.797,0-21.333-9.557-21.333-21.333
				s9.536-21.333,21.333-21.333h298.667c11.797,0,21.333,9.557,21.333,21.333S417.131,277.333,405.333,277.333z"/>
		</g>
	</g>
</g>
<g>
</g>
<g>
</g>
<g>
</g>
<g>
</g>
<g>
</g>
<g>
</g>
<g>
</g>
<g>
</g>
<g>
</g>
<g>
</g>
<g>
</g>
<g>
</g>
<g>
</g>
<g>
</g>
<g>
</g>
</svg>
