<?xml version="1.0" encoding="iso-8859-1"?>
<!-- Generator: Adobe Illustrator 19.0.0, SVG Export Plug-In . SVG Version: 6.00 Build 0)  -->
<svg version="1.1" id="Capa_1" xmlns="http://www.w3.org/2000/svg" xmlns:xlink="http://www.w3.org/1999/xlink" x="0px" y="0px"
	 viewBox="0 0 512 512" style="enable-background:new 0 0 512 512;" xml:space="preserve">
<g>
	<g>
		<g>
			<path d="M362.667,320C339.136,320,320,339.136,320,362.667s19.136,42.667,42.667,42.667s42.667-19.136,42.667-42.667
				S386.197,320,362.667,320z"/>
			<path d="M149.333,192C172.864,192,192,172.864,192,149.333c0-23.531-19.136-42.667-42.667-42.667
				c-23.531,0-42.667,19.136-42.667,42.667C106.667,172.864,125.803,192,149.333,192z"/>
			<path d="M490.667,0H21.333C9.536,0,0,9.557,0,21.333v469.333C0,502.443,9.536,512,21.333,512h469.333
				c11.797,0,21.333-9.557,21.333-21.333V21.333C512,9.557,502.464,0,490.667,0z M149.333,64c47.061,0,85.333,38.272,85.333,85.333
				c0,47.061-38.272,85.333-85.333,85.333c-47.061,0-85.333-38.272-85.333-85.333C64,102.272,102.272,64,149.333,64z M362.667,448
				c-47.061,0-85.333-38.272-85.333-85.333s38.272-85.333,85.333-85.333S448,315.605,448,362.667S409.728,448,362.667,448z
				 M441.749,100.416L100.416,441.749c-4.16,4.16-9.621,6.251-15.083,6.251c-5.461,0-10.923-2.091-15.083-6.251
				c-8.341-8.341-8.341-21.824,0-30.165L411.584,70.251c8.341-8.341,21.824-8.341,30.165,0
				C450.091,78.592,450.091,92.075,441.749,100.416z"/>
		</g>
	</g>
</g>
<g>
</g>
<g>
</g>
<g>
</g>
<g>
</g>
<g>
</g>
<g>
</g>
<g>
</g>
<g>
</g>
<g>
</g>
<g>
</g>
<g>
</g>
<g>
</g>
<g>
</g>
<g>
</g>
<g>
</g>
</svg>
