<?xml version="1.0" encoding="iso-8859-1"?>
<!-- Generator: Adobe Illustrator 19.0.0, SVG Export Plug-In . SVG Version: 6.00 Build 0)  -->
<svg version="1.1" id="Capa_1" xmlns="http://www.w3.org/2000/svg" xmlns:xlink="http://www.w3.org/1999/xlink" x="0px" y="0px"
	 viewBox="0 0 512 512" style="enable-background:new 0 0 512 512;" xml:space="preserve">
<g>
	<g>
		<g>
			<path d="M320,170.667c11.755,0,21.333-9.579,21.333-21.333c0-11.755-9.579-21.333-21.333-21.333s-21.333,9.579-21.333,21.333
				C298.667,161.088,308.245,170.667,320,170.667z"/>
			<path d="M256,0C114.837,0,0,114.837,0,256s114.837,256,256,256s256-114.837,256-256S397.163,0,256,0z M213.333,256
				c0,9.792-2.389,18.965-6.315,27.264l59.413,44.565c11.435-17.515,31.125-29.163,53.568-29.163c35.285,0,64,28.715,64,64
				s-28.715,64-64,64c-31.339,0-57.365-22.677-62.827-52.459l-80.661-60.501c-8.277,3.925-17.429,6.293-27.179,6.293
				c-35.285,0-64-28.715-64-64s28.715-64,64-64c9.749,0,18.901,2.368,27.179,6.272l80.661-60.48
				c5.461-29.781,31.488-52.459,62.827-52.459c35.285,0,64,28.715,64,64c0,35.285-28.715,64-64,64
				c-22.443,0-42.133-11.648-53.568-29.163l-59.435,44.565C210.944,237.035,213.333,246.208,213.333,256z"/>
			<path d="M149.333,234.667C137.579,234.667,128,244.245,128,256s9.579,21.333,21.333,21.333c11.755,0,21.333-9.579,21.333-21.333
				S161.088,234.667,149.333,234.667z"/>
			<path d="M320,384c11.755,0,21.333-9.579,21.333-21.333s-9.579-21.333-21.333-21.333s-21.333,9.579-21.333,21.333
				S308.245,384,320,384z"/>
		</g>
	</g>
</g>
<g>
</g>
<g>
</g>
<g>
</g>
<g>
</g>
<g>
</g>
<g>
</g>
<g>
</g>
<g>
</g>
<g>
</g>
<g>
</g>
<g>
</g>
<g>
</g>
<g>
</g>
<g>
</g>
<g>
</g>
</svg>
