<?xml version="1.0" encoding="iso-8859-1"?>
<!-- Generator: Adobe Illustrator 19.0.0, SVG Export Plug-In . SVG Version: 6.00 Build 0)  -->
<svg version="1.1" id="Capa_1" xmlns="http://www.w3.org/2000/svg" xmlns:xlink="http://www.w3.org/1999/xlink" x="0px" y="0px"
	 viewBox="0 0 512 512" style="enable-background:new 0 0 512 512;" xml:space="preserve">
<g>
	<g>
		<path d="M426.667,341.333c-35.584,0-66.069,21.909-78.848,52.928L161.941,292.885c5.419-11.221,8.725-23.616,8.725-36.885
			s-3.307-25.664-8.725-36.885l185.877-101.376c12.779,31.019,43.264,52.928,78.848,52.928c47.061,0,85.333-38.272,85.333-85.333
			S473.728,0,426.667,0c-42.453,0-77.483,31.253-83.968,71.936L133.76,185.877c-13.781-9.536-30.421-15.211-48.427-15.211
			C38.272,170.667,0,208.939,0,256s38.272,85.333,85.333,85.333c18.005,0,34.667-5.675,48.427-15.232l208.939,113.963
			C349.184,480.747,384.213,512,426.667,512C473.728,512,512,473.728,512,426.667S473.728,341.333,426.667,341.333z"/>
	</g>
</g>
<g>
</g>
<g>
</g>
<g>
</g>
<g>
</g>
<g>
</g>
<g>
</g>
<g>
</g>
<g>
</g>
<g>
</g>
<g>
</g>
<g>
</g>
<g>
</g>
<g>
</g>
<g>
</g>
<g>
</g>
</svg>
