<?xml version="1.0" encoding="iso-8859-1"?>
<!-- Generator: Adobe Illustrator 19.0.0, SVG Export Plug-In . SVG Version: 6.00 Build 0)  -->
<svg version="1.1" id="Capa_1" xmlns="http://www.w3.org/2000/svg" xmlns:xlink="http://www.w3.org/1999/xlink" x="0px" y="0px"
	 viewBox="0 0 512 512" style="enable-background:new 0 0 512 512;" xml:space="preserve">
<g>
	<g>
		<g>
			<path d="M134.251,176.917c-8.341,8.341-8.341,21.824,0,30.165l106.645,106.645c1.963,1.984,4.331,3.541,6.955,4.629
				c2.603,1.067,5.376,1.643,8.149,1.643s5.547-0.576,8.149-1.643c2.624-1.088,4.992-2.645,6.955-4.629l106.645-106.645
				c8.341-8.341,8.341-21.824,0-30.165c-8.341-8.341-21.824-8.341-30.165,0l-70.251,70.251V21.333C277.333,9.557,267.797,0,256,0
				s-21.333,9.557-21.333,21.333v225.835l-70.251-70.251C156.075,168.576,142.592,168.576,134.251,176.917z"/>
			<path d="M320,42.667v101.952C331.776,134.016,346.709,128,362.667,128c17.088,0,33.173,6.656,45.248,18.752
				c12.075,12.075,18.752,28.16,18.752,45.248s-6.677,33.173-18.752,45.248L301.248,343.915c-2.859,2.88-5.995,5.376-9.259,7.616
				c-0.085,0.064-0.149,0.128-0.235,0.192c-3.029,2.048-6.272,3.712-9.579,5.205c-0.469,0.213-0.875,0.512-1.344,0.725
				c-3.093,1.301-6.336,2.176-9.6,2.987c-0.832,0.192-1.6,0.555-2.453,0.725c-4.16,0.853-8.427,1.301-12.779,1.301
				s-8.619-0.448-12.779-1.301c-0.853-0.171-1.6-0.533-2.432-0.725c-3.285-0.811-6.528-1.685-9.643-3.008
				c-0.427-0.171-0.811-0.469-1.237-0.661c-3.349-1.493-6.613-3.179-9.664-5.248c-0.085-0.064-0.149-0.128-0.235-0.192
				c-3.264-2.24-6.4-4.736-9.259-7.616L104.085,237.248C91.989,225.173,85.333,209.088,85.333,192s6.656-33.173,18.752-45.248
				C116.16,134.656,132.245,128,149.333,128c15.957,0,30.891,6.016,42.667,16.619V42.667H0V512h512V42.667H320z"/>
		</g>
	</g>
</g>
<g>
</g>
<g>
</g>
<g>
</g>
<g>
</g>
<g>
</g>
<g>
</g>
<g>
</g>
<g>
</g>
<g>
</g>
<g>
</g>
<g>
</g>
<g>
</g>
<g>
</g>
<g>
</g>
<g>
</g>
</svg>
