<?xml version="1.0" encoding="iso-8859-1"?>
<!-- Generator: Adobe Illustrator 19.0.0, SVG Export Plug-In . SVG Version: 6.00 Build 0)  -->
<svg version="1.1" id="Capa_1" xmlns="http://www.w3.org/2000/svg" xmlns:xlink="http://www.w3.org/1999/xlink" x="0px" y="0px"
	 viewBox="0 0 512 512" style="enable-background:new 0 0 512 512;" xml:space="preserve">
<g>
	<g>
		<path d="M512,310.336c0-15.509-5.845-28.907-15.765-38.528c4.864-8.171,7.659-17.685,7.659-27.861
			c0-29.611-23.595-51.947-54.869-51.947H316.565l3.733-21.355c8.555-40.064,3.008-85.056,1.088-97.899
			C316.288,38.336,285.931,0,248.512,0C215.232,0,192,26.304,192,64c0,66.795-14.848,91.52-23.723,100.309
			c-6.336,6.293-11.499,6.421-10.987,6.528c-0.896-0.128-1.792-0.171-2.688-0.171h-5.269c0-11.776-9.557-21.333-21.333-21.333
			H21.333C9.557,149.333,0,158.891,0,170.667v320C0,502.443,9.557,512,21.333,512H128c11.776,0,21.333-9.557,21.333-21.333H407.36
			c30.656,0,54.656-23.125,54.656-52.651c0-6.251-1.088-12.245-3.051-17.835c16.789-8.917,27.947-26.155,27.947-46.379
			c0-6.187-1.003-12.096-2.88-17.6C500.843,347.392,512,330.325,512,310.336z M457.344,320h-24.981H384
			c-11.776,0-21.333,9.557-21.333,21.333c0,11.776,9.557,21.333,21.333,21.333h48.363c6.891,0,11.883,4.693,11.883,11.136
			c0,7.04-5.973,10.197-11.883,10.197h-16.661h-8.341h-44.693c-11.776,0-21.333,9.557-21.333,21.333s9.557,21.333,21.333,21.333
			h44.693c6.848,0,11.989,4.885,11.989,11.349c0,6.891-6.016,9.984-11.989,9.984H149.333V213.333h4.437
			c6.315,0.341,23.744-0.213,41.344-15.723c26.24-23.147,39.552-68.096,39.552-133.611c0-14.165,4.651-21.333,15.851-21.333
			c9.728,0,26.005,18.304,28.672,36.331c3.371,22.784,4.992,56.469-0.768,83.52l-8.235,47.147
			c-1.088,6.208,0.619,12.565,4.672,17.408c4.053,4.821,10.048,7.595,16.341,7.595h157.824c1.237,0,12.203,0.256,12.203,9.28
			c0,6.528-5.589,12.053-12.203,12.053h-16.661h-8.341H384c-11.776,0-21.333,9.557-21.333,21.333s9.557,21.333,21.333,21.333h40.021
			h8.341h22.165c5.525,0,14.805,1.515,14.805,11.669C469.333,319.723,458.581,320,457.344,320z"/>
	</g>
</g>
<g>
</g>
<g>
</g>
<g>
</g>
<g>
</g>
<g>
</g>
<g>
</g>
<g>
</g>
<g>
</g>
<g>
</g>
<g>
</g>
<g>
</g>
<g>
</g>
<g>
</g>
<g>
</g>
<g>
</g>
</svg>
