<?xml version="1.0" encoding="iso-8859-1"?>
<!-- Generator: Adobe Illustrator 19.0.0, SVG Export Plug-In . SVG Version: 6.00 Build 0)  -->
<svg version="1.1" id="Capa_1" xmlns="http://www.w3.org/2000/svg" xmlns:xlink="http://www.w3.org/1999/xlink" x="0px" y="0px"
	 viewBox="0 0 512 512" style="enable-background:new 0 0 512 512;" xml:space="preserve">
<g>
	<g>
		<g>
			<path d="M0,0v512h512V0H0z M256,469.333c-47.083,0-85.333-38.272-85.333-85.333c0-47.04,38.251-85.333,85.333-85.333
				c47.061,0,85.333,38.293,85.333,85.333C341.333,431.061,303.061,469.333,256,469.333z M376.683,293.504
				c-4.181,4.16-9.621,6.251-15.083,6.251c-5.461,0-10.923-2.091-15.083-6.251c-49.92-49.899-131.136-49.899-181.056,0
				c-8.32,8.32-21.824,8.32-30.165,0c-8.32-8.341-8.32-21.845,0-30.165c66.539-66.539,174.848-66.539,241.387,0
				C385.003,271.659,385.003,285.163,376.683,293.504z M437.013,233.152c-4.16,4.16-9.621,6.251-15.083,6.251
				s-10.923-2.091-15.083-6.251c-83.179-83.157-218.539-83.157-301.717,0c-8.32,8.341-21.824,8.341-30.165,0
				c-8.32-8.32-8.32-21.824,0-30.165c99.84-99.819,262.208-99.819,362.048,0C445.333,211.328,445.333,224.832,437.013,233.152z
				 M497.344,172.821c-4.16,4.16-9.621,6.251-15.083,6.251c-5.461,0-10.923-2.091-15.083-6.251
				C410.752,116.416,335.765,85.333,256,85.333c-79.787,0-154.773,31.083-211.2,87.488c-8.341,8.341-21.824,8.341-30.165,0
				c-8.341-8.341-8.341-21.824,0-30.165C79.104,78.187,164.821,42.667,256,42.667c91.157,0,176.896,35.52,241.344,99.989
				C505.685,150.997,505.685,164.48,497.344,172.821z"/>
			<path d="M255.989,341.342c-23.531,0-42.667,19.136-42.667,42.667c0,23.531,19.136,42.667,42.667,42.667
				s42.667-19.136,42.667-42.667C298.656,360.478,279.52,341.342,255.989,341.342z"/>
		</g>
	</g>
</g>
<g>
</g>
<g>
</g>
<g>
</g>
<g>
</g>
<g>
</g>
<g>
</g>
<g>
</g>
<g>
</g>
<g>
</g>
<g>
</g>
<g>
</g>
<g>
</g>
<g>
</g>
<g>
</g>
<g>
</g>
</svg>
