<?xml version="1.0" encoding="iso-8859-1"?>
<!-- Generator: Adobe Illustrator 19.0.0, SVG Export Plug-In . SVG Version: 6.00 Build 0)  -->
<svg version="1.1" id="Capa_1" xmlns="http://www.w3.org/2000/svg" xmlns:xlink="http://www.w3.org/1999/xlink" x="0px" y="0px"
	 viewBox="0 0 512 512" style="enable-background:new 0 0 512 512;" xml:space="preserve">
<g>
	<g>
		<path d="M512,256c0-38.229-25.429-70.272-60.139-81.109c6.4-12.096,10.155-25.493,10.155-39.573
			c0-22.784-8.875-44.224-25.003-60.352c-27.051-27.029-67.712-31.701-99.904-14.805C326.293,25.451,294.229,0,256,0
			c-38.251,0-70.315,25.451-81.109,60.16c-32.213-16.896-72.853-12.224-99.925,14.805c-16.107,16.128-25.003,37.568-25.003,60.352
			c0,14.08,3.776,27.477,10.155,39.573C25.408,185.728,0,217.771,0,256c0,38.208,25.408,70.272,60.117,81.088
			c-6.379,12.117-10.155,25.493-10.155,39.573c0,22.805,8.896,44.245,25.003,60.352c16.661,16.64,38.485,24.939,60.331,24.939
			c13.675,0,27.2-3.627,39.573-10.133C185.685,486.549,217.749,512,256,512c38.229,0,70.293-25.451,81.109-60.181
			c12.395,6.507,25.899,10.133,39.573,10.133c21.824,0,43.691-8.299,60.331-24.939c16.128-16.107,25.003-37.547,25.003-60.352
			c0-14.08-3.755-27.456-10.155-39.573C486.571,326.272,512,294.208,512,256z M170.667,401.685l-5.163,5.163
			c-16.619,16.619-43.712,16.64-60.373,0c-8.064-8.064-12.501-18.773-12.501-30.187c0-11.392,4.437-22.101,12.501-30.165
			l5.184-5.163h60.352V401.685z M170.667,170.667h-60.352l-5.184-5.184c-8.064-8.064-12.501-18.773-12.501-30.165
			c0-11.392,4.437-22.123,12.501-30.187c8.32-8.299,19.264-12.459,30.187-12.459s21.867,4.16,30.187,12.459l5.163,5.184V170.667z
			 M406.848,406.848c-16.597,16.619-43.712,16.64-60.352,0l-5.163-5.163v-60.352h60.331l5.184,5.163
			c8.064,8.064,12.501,18.773,12.501,30.165C419.349,388.075,414.912,398.784,406.848,406.848z M406.848,165.483l-5.184,5.184
			h-60.331v-60.352l5.163-5.184c8.32-8.299,19.243-12.459,30.187-12.459c10.923,0,21.845,4.16,30.165,12.459
			c8.064,8.064,12.501,18.795,12.501,30.187C419.349,146.709,414.912,157.419,406.848,165.483z"/>
	</g>
</g>
<g>
</g>
<g>
</g>
<g>
</g>
<g>
</g>
<g>
</g>
<g>
</g>
<g>
</g>
<g>
</g>
<g>
</g>
<g>
</g>
<g>
</g>
<g>
</g>
<g>
</g>
<g>
</g>
<g>
</g>
</svg>
