<?xml version="1.0" encoding="iso-8859-1"?>
<!-- Generator: Adobe Illustrator 19.0.0, SVG Export Plug-In . SVG Version: 6.00 Build 0)  -->
<svg version="1.1" id="Capa_1" xmlns="http://www.w3.org/2000/svg" xmlns:xlink="http://www.w3.org/1999/xlink" x="0px" y="0px"
	 viewBox="0 0 511.754 511.754" style="enable-background:new 0 0 511.754 511.754;" xml:space="preserve">
<g>
	<g>
		<g>
			<path d="M105.029,38.661c8.341-8.341,8.341-21.824,0-30.165c-8.341-8.341-21.824-8.341-30.165,0
				c-99.819,99.819-99.819,262.229,0,362.048c4.16,4.16,9.621,6.251,15.083,6.251c5.461,0,10.923-2.091,15.083-6.251
				c8.341-8.341,8.341-21.845,0-30.165C21.851,257.2,21.851,121.84,105.029,38.661z"/>
			<path d="M436.906,8.494c-8.341-8.341-21.824-8.341-30.165,0c-8.341,8.32-8.341,21.824,0,30.165
				c83.157,83.179,83.157,218.539,0,301.717c-8.341,8.32-8.341,21.845,0,30.165c4.16,4.16,9.621,6.251,15.083,6.251
				c5.461,0,10.923-2.091,15.083-6.251C536.703,270.723,536.703,108.313,436.906,8.494z"/>
			<path d="M165.364,99.005c8.341-8.341,8.341-21.845,0-30.165c-8.341-8.341-21.824-8.341-30.165,0
				c-66.539,66.539-66.539,174.805,0,241.344c4.16,4.181,9.621,6.251,15.083,6.251c5.461,0,10.923-2.069,15.083-6.251
				c8.341-8.32,8.341-21.824,0-30.165C115.466,230.119,115.466,148.903,165.364,99.005z"/>
			<path d="M376.551,68.839c-8.341-8.341-21.824-8.341-30.165,0s-8.341,21.845,0,30.165c24.128,24.128,37.419,56.277,37.419,90.517
				s-13.291,66.368-37.419,90.496c-8.341,8.341-8.341,21.845,0,30.165c4.16,4.181,9.621,6.251,15.083,6.251
				c5.461,0,10.923-2.069,15.083-6.251c32.192-32.171,49.92-75.029,49.92-120.661S408.743,101.031,376.551,68.839z"/>
			<path d="M255.884,104.182c-47.061,0-85.333,38.272-85.333,85.333c0,39.637,27.285,72.768,64,82.304l-0.064,216.363
				c0,11.776,9.536,21.333,21.333,21.333c11.776,0,21.333-9.557,21.333-21.333l0.064-216.363c36.693-9.536,64-42.667,64-82.304
				C341.217,142.454,302.945,104.182,255.884,104.182z"/>
		</g>
	</g>
</g>
<g>
</g>
<g>
</g>
<g>
</g>
<g>
</g>
<g>
</g>
<g>
</g>
<g>
</g>
<g>
</g>
<g>
</g>
<g>
</g>
<g>
</g>
<g>
</g>
<g>
</g>
<g>
</g>
<g>
</g>
</svg>
