<?xml version="1.0" encoding="iso-8859-1"?>
<!-- Generator: Adobe Illustrator 19.0.0, SVG Export Plug-In . SVG Version: 6.00 Build 0)  -->
<svg version="1.1" id="Capa_1" xmlns="http://www.w3.org/2000/svg" xmlns:xlink="http://www.w3.org/1999/xlink" x="0px" y="0px"
	 viewBox="0 0 512 512" style="enable-background:new 0 0 512 512;" xml:space="preserve">
<g>
	<g>
		<g>
			<path d="M128,128c-11.755,0-21.333,9.579-21.333,21.333c0,11.755,9.579,21.333,21.333,21.333
				c11.755,0,21.333-9.579,21.333-21.333C149.333,137.579,139.755,128,128,128z"/>
			<path d="M512,192v-85.333c0-47.061-38.272-85.333-85.333-85.333H85.333C38.272,21.333,0,59.605,0,106.667V192
				c0,25.6,11.563,48.341,29.483,64C11.563,271.659,0,294.4,0,320v85.333c0,47.061,38.272,85.333,85.333,85.333h341.333
				c47.061,0,85.333-38.272,85.333-85.333V320c0-25.6-11.563-48.341-29.483-64C500.437,240.341,512,217.6,512,192z M256,85.333h128
				c11.776,0,21.333,9.557,21.333,21.333S395.776,128,384,128H256c-11.776,0-21.333-9.557-21.333-21.333S244.224,85.333,256,85.333z
				 M128,426.667c-35.285,0-64-28.715-64-64c0-35.285,28.715-64,64-64s64,28.715,64,64C192,397.952,163.285,426.667,128,426.667z
				 M128,213.333c-35.285,0-64-28.715-64-64s28.715-64,64-64s64,28.715,64,64S163.285,213.333,128,213.333z M234.667,320
				c0-11.776,9.557-21.333,21.333-21.333h128c11.776,0,21.333,9.557,21.333,21.333s-9.557,21.333-21.333,21.333H256
				C244.224,341.333,234.667,331.776,234.667,320z M426.667,426.667h-128c-11.776,0-21.333-9.557-21.333-21.333
				S286.891,384,298.667,384h128c11.776,0,21.333,9.557,21.333,21.333S438.443,426.667,426.667,426.667z M426.667,213.333h-128
				c-11.776,0-21.333-9.557-21.333-21.333s9.557-21.333,21.333-21.333h128c11.776,0,21.333,9.557,21.333,21.333
				S438.443,213.333,426.667,213.333z"/>
			<path d="M128,341.333c-11.755,0-21.333,9.579-21.333,21.333c0,11.755,9.579,21.333,21.333,21.333
				c11.755,0,21.333-9.579,21.333-21.333C149.333,350.912,139.755,341.333,128,341.333z"/>
		</g>
	</g>
</g>
<g>
</g>
<g>
</g>
<g>
</g>
<g>
</g>
<g>
</g>
<g>
</g>
<g>
</g>
<g>
</g>
<g>
</g>
<g>
</g>
<g>
</g>
<g>
</g>
<g>
</g>
<g>
</g>
<g>
</g>
</svg>
