<?xml version="1.0" encoding="iso-8859-1"?>
<!-- Generator: Adobe Illustrator 19.0.0, SVG Export Plug-In . SVG Version: 6.00 Build 0)  -->
<svg version="1.1" id="Capa_1" xmlns="http://www.w3.org/2000/svg" xmlns:xlink="http://www.w3.org/1999/xlink" x="0px" y="0px"
	 viewBox="0 0 512 512" style="enable-background:new 0 0 512 512;" xml:space="preserve">
<g>
	<g>
		<g>
			<path d="M256,341.333c-47.061,0-85.333,38.272-85.333,85.333S208.939,512,256,512s85.333-38.272,85.333-85.333
				S303.061,341.333,256,341.333z"/>
			<path d="M426.667,0H85.333C38.272,0,0,38.272,0,85.333v85.333C0,217.728,38.272,256,85.333,256h341.333
				C473.728,256,512,217.728,512,170.667V85.333C512,38.272,473.728,0,426.667,0z M128,192c-35.285,0-64-28.715-64-64
				s28.715-64,64-64s64,28.715,64,64S163.285,192,128,192z M234.667,85.333C234.667,73.557,244.203,64,256,64h128
				c11.797,0,21.333,9.557,21.333,21.333s-9.536,21.333-21.333,21.333H256C244.203,106.667,234.667,97.109,234.667,85.333z
				 M426.667,192h-128c-11.797,0-21.333-9.557-21.333-21.333s9.536-21.333,21.333-21.333h128c11.797,0,21.333,9.557,21.333,21.333
				S438.464,192,426.667,192z"/>
			<path d="M128,106.667c-11.776,0-21.333,9.579-21.333,21.333c0,11.755,9.557,21.333,21.333,21.333s21.333-9.579,21.333-21.333
				C149.333,116.245,139.776,106.667,128,106.667z"/>
		</g>
	</g>
</g>
<g>
</g>
<g>
</g>
<g>
</g>
<g>
</g>
<g>
</g>
<g>
</g>
<g>
</g>
<g>
</g>
<g>
</g>
<g>
</g>
<g>
</g>
<g>
</g>
<g>
</g>
<g>
</g>
<g>
</g>
</svg>
