<?xml version="1.0" encoding="iso-8859-1"?>
<!-- Generator: Adobe Illustrator 19.0.0, SVG Export Plug-In . SVG Version: 6.00 Build 0)  -->
<svg version="1.1" id="Capa_1" xmlns="http://www.w3.org/2000/svg" xmlns:xlink="http://www.w3.org/1999/xlink" x="0px" y="0px"
	 viewBox="0 0 512 512" style="enable-background:new 0 0 512 512;" xml:space="preserve">
<g>
	<g>
		<g>
			<path d="M64,341.333c0,35.285,28.715,64,64,64s64-28.715,64-64s-28.715-64-64-64S64,306.048,64,341.333z"/>
			<path d="M512,85.333C512,38.272,473.728,0,426.667,0H85.333C38.272,0,0,38.272,0,85.333v85.333c0,25.6,11.563,48.341,29.483,64
				C11.563,250.325,0,273.067,0,298.667V384c0,47.061,38.272,85.333,85.333,85.333h146.859C257.259,495.211,305.152,512,362.667,512
				C447.787,512,512,475.307,512,426.667v-85.333V256c0-13.931-5.419-26.837-14.933-38.208C506.496,203.883,512,187.669,512,170.667
				V85.333z M128,64c35.285,0,64,28.715,64,64s-28.715,64-64,64s-64-28.715-64-64S92.715,64,128,64z M213.333,341.333v85.333h-128
				c-23.531,0-42.667-19.136-42.667-42.667v-85.333c0-23.531,19.136-42.667,42.667-42.667h128V341.333z M234.667,85.333
				C234.667,73.557,244.203,64,256,64h128c11.797,0,21.333,9.557,21.333,21.333s-9.536,21.333-21.333,21.333H256
				C244.203,106.667,234.667,97.109,234.667,85.333z M469.333,426.667c0,17.387-41.557,42.667-106.667,42.667
				c-54.997,0-92.864-18.027-103.403-34.112c-0.725-1.088-1.259-2.112-1.749-3.157c-0.789-1.835-1.515-3.669-1.515-5.397v-24.469
				c0,0,0.021,0,0.021,0.021c6.635,3.797,13.952,7.211,21.803,10.197c0.064,0.021,0.107,0.043,0.149,0.064
				c7.872,2.987,16.341,5.568,25.301,7.659c0.043,0,0.085,0.021,0.128,0.021c8.981,2.112,18.453,3.733,28.331,4.821
				c0.021,0,0.043,0,0.064,0.021c9.899,1.088,20.224,1.664,30.869,1.664s20.971-0.576,30.869-1.664
				c0.021-0.021,0.043-0.021,0.085-0.021c9.877-1.088,19.349-2.709,28.309-4.821c0.043,0,0.085-0.021,0.128-0.021
				c8.96-2.091,17.408-4.672,25.301-7.659c0.043-0.021,0.107-0.043,0.149-0.064c7.872-2.987,15.168-6.421,21.803-10.197
				c0-0.021,0.021-0.021,0.021-0.021V426.667z M362.667,298.667C297.557,298.667,256,273.387,256,256
				c0-1.728,0.725-3.563,1.515-5.397c0.491-1.045,1.024-2.069,1.749-3.157c0.256-0.405,0.619-0.789,0.917-1.173
				c6.08-8.085,18.411-16.128,35.52-22.272c0.149-0.043,0.256-0.085,0.405-0.149c3.648-1.28,7.637-2.432,11.691-3.541
				c1.557-0.405,3.115-0.832,4.736-1.216c3.499-0.832,7.147-1.6,10.901-2.261c2.987-0.533,6.08-0.96,9.216-1.387
				c3.008-0.384,5.973-0.832,9.109-1.109c6.699-0.597,13.589-1.003,20.907-1.003c7.125,0,13.845,0.427,20.395,0.981
				c1.6,0.149,3.243,0.256,4.821,0.427c5.845,0.64,11.392,1.472,16.683,2.475c2.069,0.405,4.032,0.875,6.037,1.323
				c3.52,0.789,6.891,1.664,10.155,2.603c1.963,0.576,4.011,1.088,5.909,1.728c4.011,1.344,7.723,2.795,11.221,4.309
				c2.496,1.088,4.843,2.261,7.125,3.477c1.088,0.555,2.155,1.131,3.179,1.728c2.432,1.387,4.8,2.816,6.933,4.352
				c9.024,6.464,14.208,13.312,14.208,19.264C469.333,273.387,427.776,298.667,362.667,298.667z"/>
			<path d="M128,149.333c11.776,0,21.333-9.579,21.333-21.333c0-11.755-9.557-21.333-21.333-21.333s-21.333,9.579-21.333,21.333
				C106.667,139.755,116.224,149.333,128,149.333z"/>
		</g>
	</g>
</g>
<g>
</g>
<g>
</g>
<g>
</g>
<g>
</g>
<g>
</g>
<g>
</g>
<g>
</g>
<g>
</g>
<g>
</g>
<g>
</g>
<g>
</g>
<g>
</g>
<g>
</g>
<g>
</g>
<g>
</g>
</svg>
