<?xml version="1.0" encoding="iso-8859-1"?>
<!-- Generator: Adobe Illustrator 19.0.0, SVG Export Plug-In . SVG Version: 6.00 Build 0)  -->
<svg version="1.1" id="Capa_1" xmlns="http://www.w3.org/2000/svg" xmlns:xlink="http://www.w3.org/1999/xlink" x="0px" y="0px"
	 viewBox="0 0 512 512" style="enable-background:new 0 0 512 512;" xml:space="preserve">
<g>
	<g>
		<path d="M446.784,228.779c-9.749-73.387-76.949-154.112-157.739-154.112c-43.344,0-87.391,21.306-116.809,55.453
			c-2.075-0.761-4.198-1.42-6.344-2.022c-0.338-0.095-0.673-0.198-1.012-0.288c-0.815-0.218-1.639-0.413-2.463-0.607
			c-0.483-0.114-0.965-0.23-1.45-0.335c-0.782-0.17-1.569-0.323-2.359-0.472c-0.528-0.099-1.056-0.195-1.585-0.284
			c-0.78-0.131-1.563-0.253-2.35-0.363c-0.542-0.076-1.085-0.142-1.628-0.208c-0.789-0.095-1.579-0.187-2.375-0.261
			c-0.541-0.05-1.084-0.084-1.626-0.124c-0.807-0.059-1.612-0.123-2.425-0.159c-0.491-0.022-0.985-0.024-1.477-0.037
			c-0.811-0.023-1.618-0.062-2.434-0.062c-4.146,0-8.219,0.312-12.209,0.881c-0.176,0.025-0.355,0.041-0.531,0.068
			c-1.064,0.159-2.117,0.352-3.168,0.549c-0.337,0.063-0.677,0.114-1.013,0.181c-0.952,0.191-1.892,0.412-2.832,0.634
			c-0.426,0.1-0.856,0.189-1.28,0.296c-0.872,0.22-1.732,0.468-2.594,0.714c-0.481,0.137-0.966,0.265-1.443,0.411
			c-0.807,0.246-1.603,0.517-2.4,0.787c-0.521,0.176-1.044,0.344-1.561,0.529c-0.751,0.27-1.491,0.562-2.233,0.852
			c-0.548,0.214-1.099,0.423-1.642,0.649c-0.701,0.291-1.391,0.602-2.083,0.911c-0.57,0.254-1.141,0.505-1.704,0.772
			c-0.653,0.309-1.297,0.635-1.941,0.96c-0.587,0.296-1.174,0.591-1.754,0.9c-0.606,0.324-1.203,0.661-1.801,0.999
			c-0.601,0.34-1.202,0.68-1.794,1.033c-0.561,0.335-1.113,0.681-1.666,1.029c-0.613,0.385-1.223,0.772-1.826,1.172
			c-0.516,0.343-1.024,0.694-1.532,1.048c-0.621,0.432-1.239,0.868-1.848,1.316c-0.472,0.347-0.939,0.702-1.404,1.058
			c-0.627,0.481-1.249,0.968-1.863,1.465c-0.429,0.348-0.852,0.701-1.274,1.057c-0.631,0.532-1.255,1.071-1.87,1.621
			c-0.387,0.346-0.77,0.695-1.15,1.047c-0.632,0.585-1.254,1.179-1.868,1.782c-0.345,0.339-0.687,0.68-1.027,1.025
			c-0.631,0.641-1.25,1.292-1.86,1.951c-0.303,0.328-0.606,0.657-0.904,0.99c-0.628,0.7-1.242,1.411-1.846,2.132
			c-0.262,0.312-0.524,0.624-0.782,0.94c-0.622,0.762-1.228,1.537-1.824,2.321c-0.222,0.292-0.445,0.582-0.663,0.877
			c-0.613,0.828-1.208,1.669-1.792,2.52c-0.183,0.267-0.369,0.531-0.549,0.8c-0.602,0.897-1.182,1.808-1.75,2.729
			c-0.146,0.236-0.295,0.47-0.438,0.708c-0.587,0.972-1.152,1.96-1.701,2.956c-0.109,0.197-0.221,0.392-0.329,0.591
			c-0.571,1.056-1.117,2.126-1.645,3.208c-0.073,0.149-0.149,0.296-0.221,0.446c-0.552,1.148-1.076,2.311-1.578,3.486
			c-0.039,0.091-0.081,0.18-0.119,0.271c-0.531,1.255-1.032,2.525-1.504,3.81c-0.005,0.014-0.011,0.028-0.016,0.042
			c-2.898,7.904-4.682,16.342-5.128,25.13C22.784,228.437,0,268.885,0,309.333c0,25.344,8.405,53.461,23.061,77.12
			c19.413,31.381,55.019,50.88,92.907,50.88h286.485c55.36,0,103.168-41.216,108.864-93.824c0.448-4.224,0.683-8.491,0.683-12.843
			C512,281.707,486.912,243.349,446.784,228.779z"/>
	</g>
</g>
<g>
</g>
<g>
</g>
<g>
</g>
<g>
</g>
<g>
</g>
<g>
</g>
<g>
</g>
<g>
</g>
<g>
</g>
<g>
</g>
<g>
</g>
<g>
</g>
<g>
</g>
<g>
</g>
<g>
</g>
</svg>
