<?xml version="1.0" encoding="iso-8859-1"?>
<!-- Generator: Adobe Illustrator 19.0.0, SVG Export Plug-In . SVG Version: 6.00 Build 0)  -->
<svg version="1.1" id="Capa_1" xmlns="http://www.w3.org/2000/svg" xmlns:xlink="http://www.w3.org/1999/xlink" x="0px" y="0px"
	 viewBox="0 0 512.131 512.131" style="enable-background:new 0 0 512.131 512.131;" xml:space="preserve">
<g>
	<g>
		<path d="M511.489,172.759c-7.552-84.971-68.16-146.667-144.107-146.667c-46.848,0-86.059,28.352-111.317,63.403
			c-24.043-33.856-61.995-63.403-111.147-63.403C69.228,26.092,8.748,87.404,0.876,171.97c-0.811,5.483-2.795,25.045,4.395,55.659
			C15.98,272.919,40.62,314.05,76.865,346.882l154.88,134.4l40.341-141.184l-63.936-15.979c-0.064-0.021-0.107-0.085-0.192-0.107
			c-2.432-0.619-4.672-1.749-6.763-3.2c-0.533-0.384-0.981-0.789-1.493-1.216c-1.429-1.216-2.688-2.624-3.797-4.224
			c-0.363-0.533-0.768-1.024-1.109-1.579c-0.149-0.299-0.405-0.512-0.555-0.832c-0.469-0.939-0.469-1.941-0.789-2.923
			c-0.491-1.429-1.003-2.773-1.173-4.288c-0.171-1.579,0.043-3.072,0.213-4.629c0.107-0.96-0.107-1.899,0.149-2.859
			c0.064-0.256,0.256-0.448,0.32-0.704c0.448-1.536,1.259-2.859,2.027-4.267c0.597-1.067,1.024-2.197,1.771-3.136
			c0.768-0.96,1.792-1.643,2.731-2.475c1.195-1.045,2.304-2.112,3.691-2.859c0.235-0.128,0.363-0.363,0.597-0.491l86.869-43.413
			l-107.051-45.888c-0.171-0.064-0.277-0.235-0.448-0.299c-2.219-1.024-4.267-2.432-6.08-4.203c-0.363-0.363-0.64-0.747-0.981-1.131
			c-0.619-0.704-1.301-1.344-1.856-2.133c-0.405-0.64-0.469-1.365-0.811-2.005c-0.683-1.301-1.216-2.56-1.621-3.968
			c-0.384-1.323-0.64-2.624-0.768-3.989c-0.107-1.301-0.107-2.581,0.021-3.904c0.149-1.515,0.448-2.901,0.917-4.331
			c0.213-0.683,0.128-1.365,0.405-2.048c0.256-0.555,0.725-0.917,1.024-1.451c0.683-1.301,1.536-2.453,2.496-3.605
			c0.917-1.109,1.856-2.091,2.965-2.987c0.491-0.384,0.768-0.939,1.301-1.301l64-42.667c9.835-6.528,23.061-3.904,29.568,5.909
			c6.549,9.813,3.904,23.04-5.909,29.589l-31.232,20.821l113.131,48.491c0.981,0.427,1.621,1.195,2.517,1.728
			c1.259,0.768,2.496,1.472,3.584,2.496c1.109,1.024,1.899,2.24,2.731,3.477c0.576,0.832,1.387,1.429,1.856,2.368
			c0.149,0.277,0.107,0.576,0.235,0.875c0.619,1.365,0.832,2.795,1.152,4.267c0.277,1.28,0.704,2.496,0.725,3.797
			c0.043,1.216-0.299,2.389-0.469,3.627c-0.235,1.557-0.384,3.072-0.96,4.544c-0.085,0.277-0.043,0.555-0.171,0.832
			c-0.853,2.027-2.005,3.84-3.371,5.44c-0.043,0.043-0.107,0.085-0.149,0.128c-1.643,1.92-3.648,3.349-5.824,4.544
			c-0.256,0.149-0.427,0.427-0.704,0.576l-76.437,38.208l29.397,7.339c0.107,0.043,0.171,0.107,0.277,0.149
			c0.128,0.021,0.277-0.021,0.405,0.021c1.408,0.405,2.475,1.28,3.712,1.941c1.173,0.597,2.475,1.003,3.477,1.792
			c1.131,0.875,1.877,2.027,2.773,3.072c0.896,1.024,1.92,1.92,2.603,3.093s0.939,2.539,1.387,3.84
			c0.448,1.28,1.067,2.475,1.259,3.84c0.213,1.493-0.107,3.029-0.213,4.587c-0.085,1.173,0.128,2.325-0.171,3.52
			c-0.021,0.128-0.107,0.213-0.128,0.32c-0.043,0.128,0,0.256-0.043,0.363l-44.395,155.435l162.091-140.501
			c24.704-25.771,58.859-66.069,70.251-118.251C514.391,193.9,511.66,173.655,511.489,172.759z"/>
	</g>
</g>
<g>
</g>
<g>
</g>
<g>
</g>
<g>
</g>
<g>
</g>
<g>
</g>
<g>
</g>
<g>
</g>
<g>
</g>
<g>
</g>
<g>
</g>
<g>
</g>
<g>
</g>
<g>
</g>
<g>
</g>
</svg>
