<?xml version="1.0" encoding="iso-8859-1"?>
<!-- Generator: Adobe Illustrator 19.0.0, SVG Export Plug-In . SVG Version: 6.00 Build 0)  -->
<svg version="1.1" id="Capa_1" xmlns="http://www.w3.org/2000/svg" xmlns:xlink="http://www.w3.org/1999/xlink" x="0px" y="0px"
	 viewBox="0 0 512.009 512.009" style="enable-background:new 0 0 512.009 512.009;" xml:space="preserve">
<g>
	<g>
		<g>
			<path d="M0.008,64.009v426.667c0,6.677,3.136,12.992,8.491,17.024c3.733,2.816,8.256,4.309,12.843,4.309
				c1.963,0,3.947-0.277,5.867-0.832l122.133-34.901V364.297c-2.944-2.325-5.397-5.291-6.827-9.045
				c-3.349-8.875-0.213-18.368,6.827-24V5.235L15.474,43.486C6.322,46.11,0.008,54.473,0.008,64.009z M73.693,366.131
				c0,0,6.869-4.523,20.416-11.541c10.475-5.419,23.339-1.323,28.757,9.088c5.44,10.475,1.344,23.339-9.109,28.779
				c-10.667,5.547-16.341,9.152-16.811,9.429c-3.584,2.325-7.573,3.435-11.541,3.435c-6.976,0-13.803-3.435-17.877-9.728
				C61.106,385.758,63.88,372.553,73.693,366.131z"/>
			<path d="M192.016,315.051c8.427-2.667,16.896-5.312,25.557-7.723c11.392-3.179,23.125,3.456,26.283,14.805
				c3.157,11.371-3.477,23.125-14.827,26.283c-12.651,3.52-24.96,7.445-37.013,11.52v115.392l128,31.979V328.854
				c-9.92,2.24-20.032,4.245-30.336,6.165c-1.301,0.256-2.624,0.363-3.904,0.363c-10.091,0-19.051-7.168-20.971-17.451
				c-2.133-11.584,5.504-22.699,17.088-24.875c13.717-2.539,26.197-5.227,38.123-8.256V36.672l-128-32V315.051z M219.621,206.912
				c-8.341-8.341-8.341-21.824,0-30.165c8.341-8.341,21.824-8.341,30.165,0l6.144,6.144l6.165-6.208
				c8.277-8.427,21.803-8.427,30.165-0.171c8.363,8.299,8.427,21.824,0.149,30.165l-6.315,6.379l6.421,6.421
				c8.341,8.341,8.341,21.824,0,30.165c-4.16,4.16-9.621,6.251-15.083,6.251c-5.461,0-10.923-2.091-15.083-6.251l-6.272-6.272
				l-6.229,6.293c-4.16,4.224-9.664,6.336-15.147,6.336c-5.44,0-10.859-2.069-15.019-6.165c-8.384-8.299-8.448-21.824-0.149-30.165
				l6.379-6.464L219.621,206.912z"/>
			<path d="M503.532,4.284c-5.355-4.011-12.288-5.291-18.731-3.477L362.668,35.708v248.128c2.304,2.197,4.245,4.8,5.376,8
				c2.923,8.149,0.491,16.832-5.376,22.485v192.448l133.867-38.251c9.152-2.624,15.467-11.008,15.467-20.523V21.329
				C512.001,14.652,508.865,8.337,503.532,4.284z M429.228,251.58c-1.28,3.456-2.581,6.613-3.861,9.408
				c-2.24,4.885-5.013,9.771-8.149,14.293c-4.117,6.016-10.795,9.237-17.579,9.237c-4.181,0-8.384-1.237-12.096-3.776
				c-9.685-6.677-12.139-19.968-5.44-29.653c1.685-2.475,3.2-5.099,4.501-7.936c0.896-1.963,1.749-4.075,2.603-6.357
				c4.096-11.051,16.363-16.704,27.413-12.629C427.671,228.263,433.302,240.529,429.228,251.58z M445.164,184.977
				c-1.515,10.645-10.645,18.325-21.099,18.325c-1.003,0-2.005-0.064-3.029-0.192c-11.669-1.685-19.776-12.459-18.112-24.128
				c1.579-11.157,2.411-21.397,2.411-29.653c0-11.797,9.557-21.333,21.333-21.333c11.797,0,21.333,9.536,21.333,21.333
				C448.001,159.697,447.041,171.687,445.164,184.977z"/>
		</g>
	</g>
</g>
<g>
</g>
<g>
</g>
<g>
</g>
<g>
</g>
<g>
</g>
<g>
</g>
<g>
</g>
<g>
</g>
<g>
</g>
<g>
</g>
<g>
</g>
<g>
</g>
<g>
</g>
<g>
</g>
<g>
</g>
</svg>
