<?xml version="1.0" encoding="iso-8859-1"?>
<!-- Generator: Adobe Illustrator 19.0.0, SVG Export Plug-In . SVG Version: 6.00 Build 0)  -->
<svg version="1.1" id="Capa_1" xmlns="http://www.w3.org/2000/svg" xmlns:xlink="http://www.w3.org/1999/xlink" x="0px" y="0px"
	 viewBox="0 0 506.032 506.032" style="enable-background:new 0 0 506.032 506.032;" xml:space="preserve">
<g>
	<g>
		<g>
			<polygon points="274.346,500.075 359.679,471.637 359.679,0 274.346,28.437 			"/>
			<polygon points="146.346,471.646 231.679,500.062 231.679,28.446 146.346,0.009 			"/>
			<path d="M475.888,38.953L402.352,2.174v474.389l54.443,27.221c6.635,3.285,14.464,2.965,20.757-0.939
				c6.293-3.904,10.133-10.752,10.133-18.133V58.046C487.686,49.961,483.12,42.579,475.888,38.953z"/>
			<path d="M18.346,58.031v426.667c0,7.403,3.84,14.251,10.133,18.155c6.272,3.883,14.123,4.224,20.736,0.939l54.464-27.221V2.18
				L30.143,38.959C22.911,42.586,18.346,49.946,18.346,58.031z"/>
		</g>
	</g>
</g>
<g>
</g>
<g>
</g>
<g>
</g>
<g>
</g>
<g>
</g>
<g>
</g>
<g>
</g>
<g>
</g>
<g>
</g>
<g>
</g>
<g>
</g>
<g>
</g>
<g>
</g>
<g>
</g>
<g>
</g>
</svg>
