<?xml version="1.0" encoding="iso-8859-1"?>
<!-- Generator: Adobe Illustrator 19.0.0, SVG Export Plug-In . SVG Version: 6.00 Build 0)  -->
<svg version="1.1" id="Capa_1" xmlns="http://www.w3.org/2000/svg" xmlns:xlink="http://www.w3.org/1999/xlink" x="0px" y="0px"
	 viewBox="0 0 509.845 509.845" style="enable-background:new 0 0 509.845 509.845;" xml:space="preserve">
<g>
	<g>
		<g>
			<path d="M254.916,382.931c-16.555,0-33.387,2.091-49.92,5.653c14.144,62.699,35.797,101.013,49.92,101.013
				c14.144,0,35.797-38.315,49.92-101.013C288.324,385.022,271.471,382.931,254.916,382.931z"/>
			<path d="M254.921,169.596c-19.371,0-38.784-2.091-57.643-5.781c-3.072,21.504-5.184,44.864-5.952,69.781h127.189
				c-0.768-24.917-2.88-48.299-5.952-69.781C293.705,167.505,274.291,169.596,254.921,169.596z"/>
			<path d="M254.921,126.929c16.768,0,33.643-1.899,50.027-5.12C290.825,58.79,269.086,20.262,254.921,20.262
				s-35.904,38.549-50.048,101.568C221.257,125.03,238.153,126.929,254.921,126.929z"/>
			<path d="M409.66,70.054l9.429-11.307C385.916,30.95,345.617,11.516,301.35,3.366c19.861,24.213,34.517,63.211,44.416,106.965
				C372.305,100.326,395.046,86.438,409.66,70.054z"/>
			<path d="M353.534,358.138c33.088,12.096,63.275,29.824,86.699,51.968l9.984,9.963c33.472-39.509,55.083-89.237,59.627-143.808
				H361.214C360.318,302.65,357.737,330.639,353.534,358.138z"/>
			<path d="M197.333,346.534c18.987-3.968,38.357-6.272,57.579-6.272c19.243,0,38.613,2.304,57.6,6.272
				c3.093-21.632,5.227-45.163,6.016-70.272H191.317C192.107,301.372,194.24,324.924,197.333,346.534z"/>
			<path d="M148.631,276.269H0.002c4.523,54.571,26.155,104.277,59.627,143.787l9.536-9.536
				c23.68-22.379,53.995-40.192,87.147-52.352C152.109,330.669,149.506,302.658,148.631,276.269z"/>
			<path d="M98.908,441.105l-9.131,9.109c33.365,28.267,74.005,48.043,118.699,56.277c-19.627-23.957-34.176-62.421-44.075-105.6
				C139.27,410.897,116.422,424.55,98.908,441.105z"/>
			<path d="M164.058,110.447c9.899-43.797,24.555-82.859,44.416-107.093c-43.968,8.107-84.053,27.328-117.12,54.848l9.963,13.269
				C115.332,87.108,137.754,100.634,164.058,110.447z"/>
			<path d="M345.459,400.849c-9.899,43.2-24.448,81.685-44.096,105.643c44.693-8.235,85.333-28.011,118.699-56.256l-9.557-9.557
				C393.203,424.337,370.483,410.812,345.459,400.849z"/>
			<path d="M361.216,233.587h148.629c-4.565-54.955-26.496-104.981-60.373-144.64l-7.488,8.981
				c-20.736,23.232-52.267,42.048-88.32,54.635C357.781,179.785,360.341,207.475,361.216,233.587z"/>
			<path d="M156.181,152.593c-35.989-12.523-67.371-31.189-87.851-54.123l-7.509-10.005C26.709,128.188,4.587,178.406,0,233.596
				h148.629C149.504,207.484,152.043,179.814,156.181,152.593z"/>
		</g>
	</g>
</g>
<g>
</g>
<g>
</g>
<g>
</g>
<g>
</g>
<g>
</g>
<g>
</g>
<g>
</g>
<g>
</g>
<g>
</g>
<g>
</g>
<g>
</g>
<g>
</g>
<g>
</g>
<g>
</g>
<g>
</g>
</svg>
