<?xml version="1.0" encoding="iso-8859-1"?>
<!-- Generator: Adobe Illustrator 19.0.0, SVG Export Plug-In . SVG Version: 6.00 Build 0)  -->
<svg version="1.1" id="Capa_1" xmlns="http://www.w3.org/2000/svg" xmlns:xlink="http://www.w3.org/1999/xlink" x="0px" y="0px"
	 viewBox="0 0 512 512" style="enable-background:new 0 0 512 512;" xml:space="preserve">
<g>
	<g>
		<g>
			<path d="M490.667,234.667h-22.421C458.219,134.037,377.963,53.781,277.333,43.755V21.333C277.333,9.536,267.797,0,256,0
				s-21.333,9.536-21.333,21.333v22.421C134.037,53.781,53.781,134.037,43.755,234.667H21.333C9.536,234.667,0,244.203,0,256
				s9.536,21.333,21.333,21.333h22.421c10.027,100.629,90.283,180.885,190.912,190.912v22.421c0,11.797,9.536,21.333,21.333,21.333
				s21.333-9.536,21.333-21.333v-22.421c100.629-10.027,180.885-90.283,190.912-190.912h22.421c11.797,0,21.333-9.536,21.333-21.333
				S502.464,234.667,490.667,234.667z M341.333,277.333h-25.259c-6.443,18.069-20.672,32.299-38.741,38.741v25.259
				c0,11.797-9.536,21.333-21.333,21.333s-21.333-9.536-21.333-21.333v-25.259c-18.069-6.443-32.299-20.672-38.741-38.741h-25.259
				c-11.797,0-21.333-9.536-21.333-21.333s9.536-21.333,21.333-21.333h25.259c6.443-18.069,20.672-32.299,38.741-38.741v-25.259
				c0-11.797,9.536-21.333,21.333-21.333s21.333,9.536,21.333,21.333v25.259c18.069,6.443,32.299,20.672,38.741,38.741h25.259
				c11.797,0,21.333,9.536,21.333,21.333S353.131,277.333,341.333,277.333z"/>
			<path d="M256,234.667c-11.776,0-21.333,9.557-21.333,21.333s9.557,21.333,21.333,21.333s21.333-9.557,21.333-21.333
				S267.776,234.667,256,234.667z"/>
		</g>
	</g>
</g>
<g>
</g>
<g>
</g>
<g>
</g>
<g>
</g>
<g>
</g>
<g>
</g>
<g>
</g>
<g>
</g>
<g>
</g>
<g>
</g>
<g>
</g>
<g>
</g>
<g>
</g>
<g>
</g>
<g>
</g>
</svg>
