<?xml version="1.0" encoding="iso-8859-1"?>
<!-- Generator: Adobe Illustrator 19.0.0, SVG Export Plug-In . SVG Version: 6.00 Build 0)  -->
<svg version="1.1" id="Capa_1" xmlns="http://www.w3.org/2000/svg" xmlns:xlink="http://www.w3.org/1999/xlink" x="0px" y="0px"
	 viewBox="0 0 512 512" style="enable-background:new 0 0 512 512;" xml:space="preserve">
<g>
	<g>
		<g>
			<path d="M362.667,405.333H320V384h42.667v-85.333h-25.92h-140.16h-47.253V384H192v21.333h-42.667
				c-11.797,0-21.333,9.536-21.333,21.333v64c0,11.797,9.536,21.333,21.333,21.333h213.333c11.797,0,21.333-9.536,21.333-21.333v-64
				C384,414.869,374.464,405.333,362.667,405.333z M341.333,469.333H170.667V448h42.667c11.797,0,21.333-9.536,21.333-21.333V384
				h42.667v42.667c0,11.797,9.536,21.333,21.333,21.333h42.667V469.333z"/>
			<path d="M298.667,138.667c0-17.643-14.357-32-32-32c-17.643,0-32,14.357-32,32c0,17.643,14.357,32,32,32
				C284.309,170.667,298.667,156.309,298.667,138.667z"/>
			<path d="M213.333,256H320c0-23.531-23.915-42.667-53.333-42.667C237.248,213.333,213.333,232.469,213.333,256z"/>
			<path d="M490.667,0H21.333C9.536,0,0,9.536,0,21.333v341.333C0,374.464,9.536,384,21.333,384h85.333V277.333
				c0-11.797,9.536-21.333,21.333-21.333h42.667c0-28.331,15.765-53.269,39.723-68.8C199.083,174.101,192,157.269,192,138.667
				C192,97.493,225.493,64,266.667,64s74.667,33.493,74.667,74.667c0,18.603-7.083,35.435-18.389,48.533
				c23.957,15.531,39.723,40.469,39.723,68.8H384c11.797,0,21.333,9.536,21.333,21.333V384h85.333
				c11.797,0,21.333-9.536,21.333-21.333V21.333C512,9.536,502.464,0,490.667,0z M128,128h-21.333
				c-11.797,0-21.333-9.536-21.333-21.333c0-11.797,9.536-21.333,21.333-21.333H128c11.797,0,21.333,9.536,21.333,21.333
				C149.333,118.464,139.797,128,128,128z"/>
		</g>
	</g>
</g>
<g>
</g>
<g>
</g>
<g>
</g>
<g>
</g>
<g>
</g>
<g>
</g>
<g>
</g>
<g>
</g>
<g>
</g>
<g>
</g>
<g>
</g>
<g>
</g>
<g>
</g>
<g>
</g>
<g>
</g>
</svg>
