<?xml version="1.0" encoding="iso-8859-1"?>
<!-- Generator: Adobe Illustrator 19.0.0, SVG Export Plug-In . SVG Version: 6.00 Build 0)  -->
<svg version="1.1" id="Capa_1" xmlns="http://www.w3.org/2000/svg" xmlns:xlink="http://www.w3.org/1999/xlink" x="0px" y="0px"
	 viewBox="0 0 512 512" style="enable-background:new 0 0 512 512;" xml:space="preserve">
<g>
	<g>
		<g>
			<path d="M64,42.667h42.667V128c0,7.253,0.704,14.336,1.707,21.333h295.253c1.003-6.997,1.707-14.08,1.707-21.333V42.667H448
				c11.776,0,21.333-9.536,21.333-21.333C469.333,9.536,459.776,0,448,0h-64H128H64C52.224,0,42.667,9.536,42.667,21.333
				C42.667,33.131,52.224,42.667,64,42.667z"/>
			<path d="M448,469.333h-42.667v-42.667H106.667v42.667H64c-11.776,0-21.333,9.536-21.333,21.333S52.224,512,64,512h64h256h64
				c11.776,0,21.333-9.536,21.333-21.333S459.776,469.333,448,469.333z"/>
			<path d="M106.667,384h298.667c0-54.421-29.355-101.995-72.96-128.085c25.131-15.147,45.632-37.269,58.347-63.915H121.28
				c12.715,26.645,33.216,48.768,58.347,63.915C136.021,282.005,106.667,329.579,106.667,384z M234.667,275.776
				c6.976,1.003,14.08,1.557,21.333,1.557c7.253,0,14.357-0.555,21.333-1.557v65.557c0,11.797-9.557,21.333-21.333,21.333
				c-11.776,0-21.333-9.536-21.333-21.333V275.776z"/>
		</g>
	</g>
</g>
<g>
</g>
<g>
</g>
<g>
</g>
<g>
</g>
<g>
</g>
<g>
</g>
<g>
</g>
<g>
</g>
<g>
</g>
<g>
</g>
<g>
</g>
<g>
</g>
<g>
</g>
<g>
</g>
<g>
</g>
</svg>
