<?xml version="1.0" encoding="iso-8859-1"?>
<!-- Generator: Adobe Illustrator 19.0.0, SVG Export Plug-In . SVG Version: 6.00 Build 0)  -->
<svg version="1.1" id="Capa_1" xmlns="http://www.w3.org/2000/svg" xmlns:xlink="http://www.w3.org/1999/xlink" x="0px" y="0px"
	 viewBox="0 0 512 512" style="enable-background:new 0 0 512 512;" xml:space="preserve">
<g>
	<g>
		<path d="M448,469.333h-42.667v-82.347c0-35.733-17.771-68.907-47.509-88.747L294.464,256l63.36-42.261
			c29.739-19.84,47.509-53.013,47.509-88.747V42.667H448c11.776,0,21.333-9.557,21.333-21.333C469.333,9.536,459.776,0,448,0h-64
			H128H64C52.224,0,42.667,9.536,42.667,21.333c0,11.776,9.557,21.333,21.333,21.333h42.667v82.325
			c0,35.733,17.771,68.907,47.509,88.747L217.536,256l-63.36,42.24c-29.739,19.84-47.509,53.013-47.509,88.747v82.347H64
			c-11.776,0-21.333,9.536-21.333,21.333C42.667,502.443,52.224,512,64,512h64h256h64c11.776,0,21.333-9.557,21.333-21.333
			C469.333,478.869,459.776,469.333,448,469.333z M189.675,160.491c-11.904-7.915-19.008-21.184-19.008-35.499v-18.325
			c0-11.797,9.557-21.333,21.333-21.333s21.333,9.536,21.333,21.333v18.325l54.507,36.331c9.792,6.549,12.437,19.776,5.909,29.589
			c-4.117,6.165-10.88,9.493-17.771,9.493c-4.053,0-8.171-1.173-11.819-3.584L189.675,160.491z M341.333,405.333
			c0,11.776-9.557,21.333-21.333,21.333s-21.333-9.557-21.333-21.333v-18.347l-54.507-36.331
			c-9.792-6.549-12.437-19.776-5.909-29.589c6.528-9.792,19.776-12.437,29.589-5.909l54.485,36.331
			c11.904,7.915,19.008,21.184,19.008,35.499V405.333z"/>
	</g>
</g>
<g>
</g>
<g>
</g>
<g>
</g>
<g>
</g>
<g>
</g>
<g>
</g>
<g>
</g>
<g>
</g>
<g>
</g>
<g>
</g>
<g>
</g>
<g>
</g>
<g>
</g>
<g>
</g>
<g>
</g>
</svg>
