<?xml version="1.0" encoding="iso-8859-1"?>
<!-- Generator: Adobe Illustrator 19.0.0, SVG Export Plug-In . SVG Version: 6.00 Build 0)  -->
<svg version="1.1" id="Capa_1" xmlns="http://www.w3.org/2000/svg" xmlns:xlink="http://www.w3.org/1999/xlink" x="0px" y="0px"
	 viewBox="0 0 512 512" style="enable-background:new 0 0 512 512;" xml:space="preserve">
<g>
	<g>
		<g>
			<path d="M63.997,42.667h42.667v82.325c0,1.024,0.149,2.005,0.192,3.008h298.283c0.043-1.003,0.192-1.984,0.192-3.008V42.667
				h42.667c11.797,0,21.333-9.536,21.333-21.333C469.33,9.536,459.794,0,447.997,0h-64h-256h-64
				C52.199,0,42.664,9.536,42.664,21.333C42.664,33.131,52.199,42.667,63.997,42.667z"/>
			<path d="M448.003,469.333h-42.667v-82.325c0-35.755-17.749-68.928-47.509-88.768L294.446,256l63.381-42.261
				c16.363-10.88,28.907-25.899,37.056-43.072H117.102c8.149,17.173,20.715,32.192,37.056,43.072L217.539,256l-63.381,42.24
				c-29.739,19.84-47.488,53.013-47.488,88.768v82.325H64.003c-11.797,0-21.333,9.536-21.333,21.333S52.206,512,64.003,512h64h256
				h64c11.776,0,21.333-9.536,21.333-21.333S459.779,469.333,448.003,469.333z M234.67,267.413l9.493,6.336
				c3.584,2.389,7.701,3.584,11.84,3.584c4.117,0,8.235-1.195,11.819-3.584l9.515-6.336v9.92c0,11.797-9.557,21.333-21.333,21.333
				c-11.797,0-21.333-9.536-21.333-21.333V267.413z M234.67,341.333c0-11.797,9.536-21.333,21.333-21.333
				c11.776,0,21.333,9.536,21.333,21.333v21.333c0,11.797-9.557,21.333-21.333,21.333c-11.797,0-21.333-9.536-21.333-21.333V341.333
				z M256.195,448c-11.755,0-21.419-9.536-21.419-21.333s9.429-21.333,21.227-21.333h0.192c11.797,0,21.333,9.536,21.333,21.333
				S267.993,448,256.195,448z"/>
		</g>
	</g>
</g>
<g>
</g>
<g>
</g>
<g>
</g>
<g>
</g>
<g>
</g>
<g>
</g>
<g>
</g>
<g>
</g>
<g>
</g>
<g>
</g>
<g>
</g>
<g>
</g>
<g>
</g>
<g>
</g>
<g>
</g>
</svg>
