<?xml version="1.0" encoding="iso-8859-1"?>
<!-- Generator: Adobe Illustrator 19.0.0, SVG Export Plug-In . SVG Version: 6.00 Build 0)  -->
<svg version="1.1" id="Capa_1" xmlns="http://www.w3.org/2000/svg" xmlns:xlink="http://www.w3.org/1999/xlink" x="0px" y="0px"
	 viewBox="0 0 512 512" style="enable-background:new 0 0 512 512;" xml:space="preserve">
<g>
	<g>
		<g>
			<path d="M192,234.667H42.667c-11.797,0-21.333,9.536-21.333,21.333s9.536,21.333,21.333,21.333H192
				c11.797,0,21.333-9.536,21.333-21.333S203.797,234.667,192,234.667z"/>
			<path d="M192,149.333H85.333c-11.797,0-21.333,9.536-21.333,21.333C64,182.464,73.536,192,85.333,192H192
				c11.797,0,21.333-9.536,21.333-21.333C213.333,158.869,203.797,149.333,192,149.333z"/>
			<path d="M192,64h-64c-11.797,0-21.333,9.536-21.333,21.333c0,11.797,9.536,21.333,21.333,21.333h64
				c11.797,0,21.333-9.536,21.333-21.333C213.333,73.536,203.797,64,192,64z"/>
			<path d="M192,320H85.333C73.536,320,64,329.536,64,341.333c0,11.797,9.536,21.333,21.333,21.333H192
				c11.797,0,21.333-9.536,21.333-21.333C213.333,329.536,203.797,320,192,320z"/>
			<path d="M192,405.333h-64c-11.797,0-21.333,9.536-21.333,21.333S116.203,448,128,448h64c11.797,0,21.333-9.536,21.333-21.333
				S203.797,405.333,192,405.333z"/>
			<path d="M469.333,469.333h-42.667v-42.667H256v64c0,11.797,9.536,21.333,21.333,21.333h128h64
				c11.797,0,21.333-9.536,21.333-21.333S481.131,469.333,469.333,469.333z"/>
			<path d="M426.667,128V42.667h42.667c11.797,0,21.333-9.536,21.333-21.333C490.667,9.536,481.131,0,469.333,0h-64h-128
				C265.536,0,256,9.536,256,21.333v128h169.067C426.069,142.357,426.667,135.253,426.667,128z"/>
			<path d="M353.847,256c25.131-15.083,45.269-37.461,58.005-64H255.991v64v85.333V384h170.667
				C426.658,329.643,397.367,282.133,353.847,256z"/>
		</g>
	</g>
</g>
<g>
</g>
<g>
</g>
<g>
</g>
<g>
</g>
<g>
</g>
<g>
</g>
<g>
</g>
<g>
</g>
<g>
</g>
<g>
</g>
<g>
</g>
<g>
</g>
<g>
</g>
<g>
</g>
<g>
</g>
</svg>
