<?xml version="1.0" encoding="iso-8859-1"?>
<!-- Generator: Adobe Illustrator 19.0.0, SVG Export Plug-In . SVG Version: 6.00 Build 0)  -->
<svg version="1.1" id="Capa_1" xmlns="http://www.w3.org/2000/svg" xmlns:xlink="http://www.w3.org/1999/xlink" x="0px" y="0px"
	 viewBox="0 0 512.004 512.004" style="enable-background:new 0 0 512.004 512.004;" xml:space="preserve">
<g>
	<g>
		<g>
			<path d="M256.002,256.004c-23.531,0-42.667,19.136-42.667,42.667c0,23.531,19.136,42.667,42.667,42.667
				c23.531,0,42.667-19.136,42.667-42.667C298.669,275.14,279.533,256.004,256.002,256.004z"/>
			<path d="M362.669,42.671h-50.805l5.899-11.797c5.269-10.539,0.981-23.339-9.557-28.629c-10.539-5.248-23.339-0.981-28.629,9.557
				l-15.435,30.869h-16.277l-15.435-30.869c-5.291-10.539-18.091-14.805-28.629-9.557c-10.539,5.291-14.827,18.091-9.557,28.629
				l5.899,11.797h-50.805c-35.285,0-64,28.715-64,64v341.333c0,35.285,28.715,64,64,64h213.333c35.285,0,64-28.715,64-64V106.671
				C426.669,71.386,397.954,42.671,362.669,42.671z M192.002,149.338h128c11.797,0,21.333,9.536,21.333,21.333
				c0,11.797-9.536,21.333-21.333,21.333h-128c-11.797,0-21.333-9.536-21.333-21.333
				C170.669,158.874,180.205,149.338,192.002,149.338z M341.335,448.004H170.669c-11.797,0-21.333-9.536-21.333-21.333
				c0-28.629,17.856-53.867,44.971-69.355c-14.549-15.317-23.637-35.883-23.637-58.645c0-47.061,38.272-85.333,85.333-85.333
				s85.333,38.272,85.333,85.333c0,22.763-9.088,43.328-23.637,58.645c27.115,15.488,44.971,40.725,44.971,69.355
				C362.669,438.468,353.133,448.004,341.335,448.004z"/>
		</g>
	</g>
</g>
<g>
</g>
<g>
</g>
<g>
</g>
<g>
</g>
<g>
</g>
<g>
</g>
<g>
</g>
<g>
</g>
<g>
</g>
<g>
</g>
<g>
</g>
<g>
</g>
<g>
</g>
<g>
</g>
<g>
</g>
</svg>
