<?xml version="1.0" encoding="iso-8859-1"?>
<!-- Generator: Adobe Illustrator 19.0.0, SVG Export Plug-In . SVG Version: 6.00 Build 0)  -->
<svg version="1.1" id="Capa_1" xmlns="http://www.w3.org/2000/svg" xmlns:xlink="http://www.w3.org/1999/xlink" x="0px" y="0px"
	 viewBox="0 0 512.004 512.004" style="enable-background:new 0 0 512.004 512.004;" xml:space="preserve">
<g>
	<g>
		<g>
			<path d="M298.669,298.671c0-23.531-19.136-42.667-42.667-42.667s-42.667,19.136-42.667,42.667
				c0,23.531,19.136,42.667,42.667,42.667S298.669,322.202,298.669,298.671z"/>
			<path d="M42.669,405.338h110.443c6.4-19.648,21.099-36.544,41.195-48.021c-14.549-15.317-23.637-35.883-23.637-58.645
				c0-47.061,38.272-85.333,85.333-85.333s85.333,38.272,85.333,85.333c0,22.763-9.088,43.328-23.637,58.645
				c20.096,11.477,34.795,28.373,41.195,48.021h110.443V192.004H42.669V405.338z"/>
			<path d="M170.669,448.004h-128c0,35.285,28.715,64,64,64h298.667c35.285,0,64-28.715,64-64h-128H170.669z"/>
			<path d="M405.335,42.671h-93.483l5.909-11.797c5.269-10.539,0.981-23.339-9.557-28.629c-10.517-5.248-23.317-0.981-28.629,9.557
				l-15.424,30.869h-16.299l-15.424-30.869c-5.291-10.539-18.091-14.805-28.629-9.557c-10.539,5.291-14.827,18.091-9.557,28.629
				l5.909,11.797h-93.483c-35.285,0-64,28.715-64,64v42.667h426.667v-42.667C469.335,71.386,440.621,42.671,405.335,42.671z"/>
		</g>
	</g>
</g>
<g>
</g>
<g>
</g>
<g>
</g>
<g>
</g>
<g>
</g>
<g>
</g>
<g>
</g>
<g>
</g>
<g>
</g>
<g>
</g>
<g>
</g>
<g>
</g>
<g>
</g>
<g>
</g>
<g>
</g>
</svg>
