<?xml version="1.0" encoding="iso-8859-1"?>
<!-- Generator: Adobe Illustrator 19.0.0, SVG Export Plug-In . SVG Version: 6.00 Build 0)  -->
<svg version="1.1" id="Capa_1" xmlns="http://www.w3.org/2000/svg" xmlns:xlink="http://www.w3.org/1999/xlink" x="0px" y="0px"
	 viewBox="0 0 512.004 512.004" style="enable-background:new 0 0 512.004 512.004;" xml:space="preserve">
<g>
	<g>
		<path d="M362.669,42.671h-50.816l5.909-11.797c5.269-10.539,0.981-23.339-9.557-28.629c-10.56-5.248-23.317-0.981-28.629,9.557
			l-15.424,30.869h-16.299l-15.424-30.869c-5.312-10.539-18.091-14.805-28.629-9.557c-10.539,5.291-14.827,18.091-9.557,28.629
			l5.909,11.797h-50.816c-35.285,0-64,28.715-64,64v341.333c0,35.285,28.715,64,64,64h213.333c35.285,0,64-28.715,64-64V106.671
			C426.669,71.386,397.954,42.671,362.669,42.671z M341.335,448.004h-42.667v-21.333c0-23.531-19.136-42.667-42.667-42.667
			c-23.531,0-42.667,19.136-42.667,42.667v21.333h-42.667v-21.333c0-47.061,38.272-85.333,85.333-85.333
			s85.333,38.272,85.333,85.333V448.004z M213.335,256.004c0-23.467,19.2-42.667,42.667-42.667s42.667,19.2,42.667,42.667
			s-19.2,42.667-42.667,42.667S213.335,279.471,213.335,256.004z M320.002,192.004h-128c-11.797,0-21.333-9.536-21.333-21.333
			c0-11.797,9.536-21.333,21.333-21.333h128c11.797,0,21.333,9.536,21.333,21.333C341.335,182.468,331.8,192.004,320.002,192.004z"
			/>
	</g>
</g>
<g>
</g>
<g>
</g>
<g>
</g>
<g>
</g>
<g>
</g>
<g>
</g>
<g>
</g>
<g>
</g>
<g>
</g>
<g>
</g>
<g>
</g>
<g>
</g>
<g>
</g>
<g>
</g>
<g>
</g>
</svg>
