<?xml version="1.0" encoding="iso-8859-1"?>
<!-- Generator: Adobe Illustrator 19.0.0, SVG Export Plug-In . SVG Version: 6.00 Build 0)  -->
<svg version="1.1" id="Capa_1" xmlns="http://www.w3.org/2000/svg" xmlns:xlink="http://www.w3.org/1999/xlink" x="0px" y="0px"
	 viewBox="0 0 512 512" style="enable-background:new 0 0 512 512;" xml:space="preserve">
<g>
	<g>
		<g>
			<path d="M170.667,149.333C147.136,149.333,128,168.469,128,192c0,23.531,19.136,42.667,42.667,42.667
				c23.531,0,42.667-19.136,42.667-42.667C213.333,168.469,194.197,149.333,170.667,149.333z"/>
			<path d="M448,42.667H64c-35.285,0-64,28.715-64,64v298.667c0,35.285,28.715,64,64,64h384c35.285,0,64-28.715,64-64V106.667
				C512,71.381,483.285,42.667,448,42.667z M320,128h64c11.797,0,21.333,9.536,21.333,21.333c0,11.797-9.536,21.333-21.333,21.333
				h-64c-11.797,0-21.333-9.536-21.333-21.333C298.667,137.536,308.203,128,320,128z M64,320c0-28.629,17.856-53.867,44.971-69.355
				C94.421,235.328,85.333,214.763,85.333,192c0-47.061,38.272-85.333,85.333-85.333S256,144.939,256,192
				c0,22.763-9.088,43.328-23.637,58.645c27.115,15.488,44.971,40.725,44.971,69.355c0,11.797-9.536,21.333-21.333,21.333H85.333
				C73.536,341.333,64,331.797,64,320z M362.667,405.333H149.333C137.536,405.333,128,395.797,128,384
				c0-11.797,9.536-21.333,21.333-21.333h213.333c11.797,0,21.333,9.536,21.333,21.333C384,395.797,374.464,405.333,362.667,405.333
				z M426.667,298.667H320c-11.797,0-21.333-9.536-21.333-21.333c0-11.797,9.536-21.333,21.333-21.333h106.667
				c11.797,0,21.333,9.536,21.333,21.333C448,289.131,438.464,298.667,426.667,298.667z M426.667,234.667H320
				c-11.797,0-21.333-9.536-21.333-21.333c0-11.797,9.536-21.333,21.333-21.333h106.667c11.797,0,21.333,9.536,21.333,21.333
				C448,225.131,438.464,234.667,426.667,234.667z"/>
		</g>
	</g>
</g>
<g>
</g>
<g>
</g>
<g>
</g>
<g>
</g>
<g>
</g>
<g>
</g>
<g>
</g>
<g>
</g>
<g>
</g>
<g>
</g>
<g>
</g>
<g>
</g>
<g>
</g>
<g>
</g>
<g>
</g>
</svg>
