<?xml version="1.0" encoding="iso-8859-1"?>
<!-- Generator: Adobe Illustrator 19.0.0, SVG Export Plug-In . SVG Version: 6.00 Build 0)  -->
<svg version="1.1" id="Capa_1" xmlns="http://www.w3.org/2000/svg" xmlns:xlink="http://www.w3.org/1999/xlink" x="0px" y="0px"
	 viewBox="0 0 512 512" style="enable-background:new 0 0 512 512;" xml:space="preserve">
<g>
	<g>
		<g>
			<rect y="170.667" width="512" height="42.667"/>
			<path d="M0,384c0,35.285,28.715,64,64,64h384c35.285,0,64-28.715,64-64V256H0V384z M298.667,277.333h128
				c11.797,0,21.333,9.536,21.333,21.333c0,11.797-9.536,21.333-21.333,21.333h-128c-11.797,0-21.333-9.536-21.333-21.333
				C277.333,286.869,286.869,277.333,298.667,277.333z M100.416,334.933c12.373,13.44,29.269-0.107,40.811-7.189
				c9.707-5.952,23.637-2.24,29.184,7.659c5.653,10.069,32.896-7.339,43.883-6.741c14.165,0.768,22.123,6.869,30.101,17.792
				c16.213,22.208-20.821,43.477-36.843,21.525c8.683,11.883-32.789,16.107-39.488,14.912c-8.171-1.429-15.168-4.949-21.12-9.835
				c-25.963,12.245-54.549,16.107-76.693-7.957C51.669,344.896,81.792,314.667,100.416,334.933z"/>
			<path d="M448,64H64C28.715,64,0,92.715,0,128h512C512,92.715,483.285,64,448,64z"/>
		</g>
	</g>
</g>
<g>
</g>
<g>
</g>
<g>
</g>
<g>
</g>
<g>
</g>
<g>
</g>
<g>
</g>
<g>
</g>
<g>
</g>
<g>
</g>
<g>
</g>
<g>
</g>
<g>
</g>
<g>
</g>
<g>
</g>
</svg>
