<?xml version="1.0" encoding="iso-8859-1"?>
<!-- Generator: Adobe Illustrator 19.0.0, SVG Export Plug-In . SVG Version: 6.00 Build 0)  -->
<svg version="1.1" id="Capa_1" xmlns="http://www.w3.org/2000/svg" xmlns:xlink="http://www.w3.org/1999/xlink" x="0px" y="0px"
	 viewBox="0 0 511.9 511.9" style="enable-background:new 0 0 511.9 511.9;" xml:space="preserve">
<g>
	<g>
		<path d="M362.6,64h-21.3V21.3C341.2,9.5,331.7,0,319.9,0h-128c-11.8,0-21.3,9.6-21.3,21.3V64h-21.3c-11.8,0-21.3,9.6-21.3,21.3
			v405.3c0,11.8,9.6,21.3,21.3,21.3h213.3c11.8,0,21.3-9.5,21.3-21.3V85.3C383.9,73.5,374.3,64,362.6,64z M213.2,42.7h85.3V64h-85.3
			V42.7z M315.6,290.1l-64,85.3c-4.2,5.6-10.6,8.5-17.1,8.5c-4.4,0-8.9-1.4-12.8-4.3c-9.4-7.1-11.3-20.4-4.3-29.8l44.7-59.6
			l-54.2-13.5c-6.9-1.7-12.5-6.8-14.9-13.5c-2.4-6.7-1.3-14.2,3-19.9l64-85.3c7.1-9.5,20.4-11.3,29.9-4.3
			c9.4,7.1,11.3,20.4,4.3,29.8l-44.7,59.6l54.2,13.5c6.9,1.7,12.5,6.8,14.9,13.5C321.1,276.9,319.9,284.4,315.6,290.1z"/>
	</g>
</g>
<g>
</g>
<g>
</g>
<g>
</g>
<g>
</g>
<g>
</g>
<g>
</g>
<g>
</g>
<g>
</g>
<g>
</g>
<g>
</g>
<g>
</g>
<g>
</g>
<g>
</g>
<g>
</g>
<g>
</g>
</svg>
