<?xml version="1.0" encoding="iso-8859-1"?>
<!-- Generator: Adobe Illustrator 19.0.0, SVG Export Plug-In . SVG Version: 6.00 Build 0)  -->
<svg version="1.1" id="Capa_1" xmlns="http://www.w3.org/2000/svg" xmlns:xlink="http://www.w3.org/1999/xlink" x="0px" y="0px"
	 viewBox="0 0 512 512" style="enable-background:new 0 0 512 512;" xml:space="preserve">
<g>
	<g>
		<polygon points="127.95,192 127.95,298.7 127.95,362.7 383.95,362.7 383.95,298.7 383.95,192 		"/>
	</g>
</g>
<g>
	<g>
		<path d="M362.65,64h-21.3V21.3c-0.1-11.8-9.6-21.3-21.4-21.3h-128c-11.8,0-21.3,9.5-21.3,21.3V64h-21.3
			c-11.8,0-21.3,9.5-21.3,21.3v64h256v-64C383.95,73.5,374.45,64,362.65,64z M298.65,64h-85.3V42.7h85.3V64z"/>
	</g>
</g>
<g>
	<g>
		<path d="M127.95,405.4v85.3c0,11.8,9.5,21.3,21.3,21.3h213.3c11.8,0,21.3-9.5,21.3-21.3v-85.3H127.95z"/>
	</g>
</g>
<g>
</g>
<g>
</g>
<g>
</g>
<g>
</g>
<g>
</g>
<g>
</g>
<g>
</g>
<g>
</g>
<g>
</g>
<g>
</g>
<g>
</g>
<g>
</g>
<g>
</g>
<g>
</g>
<g>
</g>
</svg>
