<?xml version="1.0" encoding="iso-8859-1"?>
<!-- Generator: Adobe Illustrator 19.0.0, SVG Export Plug-In . SVG Version: 6.00 Build 0)  -->
<svg version="1.1" id="Capa_1" xmlns="http://www.w3.org/2000/svg" xmlns:xlink="http://www.w3.org/1999/xlink" x="0px" y="0px"
	 viewBox="0 0 512.004 512.004" style="enable-background:new 0 0 512.004 512.004;" xml:space="preserve">
<g>
	<g>
		<g>
			<path d="M184.105,256.819c21.056-14.379,45.888-22.144,71.893-22.144c26.027,0,50.837,7.765,71.893,22.144l47.275-60.779
				l-53.163-39.872l-50.923,50.923c-4.16,4.16-9.621,6.251-15.083,6.251c-5.461,0-10.901-2.091-15.083-6.251l-50.901-50.923
				l-53.184,39.872L184.105,256.819z"/>
			<path d="M256.006,349.248l45.653-58.688c-27.093-17.237-64.213-17.237-91.307,0L256.006,349.248z"/>
			<path d="M170.669,14.935c-14.912,5.291-29.163,11.861-42.667,19.712v114.688l42.667-32V14.935z"/>
			<path d="M426.669,65.732v126.272c0,1.707-0.299,3.349-0.704,4.971c-0.043,0.235-0.021,0.491-0.085,0.725
				c-0.683,2.411-1.856,4.608-3.307,6.613c-0.171,0.256-0.213,0.555-0.384,0.789l-74.005,95.147c0,0,0,0.021-0.021,0.021
				l-75.307,96.832c-4.053,5.184-10.261,8.235-16.853,8.235c-6.592,0-12.8-3.051-16.853-8.235l-75.307-96.832
				c-0.021,0-0.021-0.021-0.021-0.021l-74.005-95.147c-0.171-0.235-0.213-0.533-0.384-0.789c-1.451-2.005-2.624-4.203-3.307-6.613
				c-0.064-0.235-0.043-0.491-0.085-0.725c-0.405-1.621-0.704-3.264-0.704-4.971V65.732C33.111,112.623,0.002,180.442,0.002,256.004
				c0,141.163,114.837,256,256,256s256-114.837,256-256C512.002,180.442,478.893,112.623,426.669,65.732z"/>
			<path d="M384.002,34.647c-13.504-7.851-27.755-14.421-42.667-19.712v102.4l42.667,32V34.647z"/>
			<path d="M298.669,119.168V3.861C284.759,1.515,270.573,0,256.002,0c-14.571,0-28.757,1.515-42.667,3.861v115.307l42.667,42.667
				L298.669,119.168z"/>
		</g>
	</g>
</g>
<g>
</g>
<g>
</g>
<g>
</g>
<g>
</g>
<g>
</g>
<g>
</g>
<g>
</g>
<g>
</g>
<g>
</g>
<g>
</g>
<g>
</g>
<g>
</g>
<g>
</g>
<g>
</g>
<g>
</g>
</svg>
