<?xml version="1.0" encoding="iso-8859-1"?>
<!-- Generator: Adobe Illustrator 19.0.0, SVG Export Plug-In . SVG Version: 6.00 Build 0)  -->
<svg version="1.1" id="Capa_1" xmlns="http://www.w3.org/2000/svg" xmlns:xlink="http://www.w3.org/1999/xlink" x="0px" y="0px"
	 viewBox="0 0 512 512" style="enable-background:new 0 0 512 512;" xml:space="preserve">
<g>
	<g>
		<path d="M448,0H298.667C282.219,0,267.349,6.421,256,16.64C244.651,6.421,229.781,0,213.333,0H64C28.715,0,0,28.715,0,64v341.333
			c0,35.285,28.715,64,64,64h149.333c11.776,0,21.333,9.557,21.333,21.333c0,11.797,9.536,21.333,21.333,21.333
			s21.333-9.536,21.333-21.333c0-11.776,9.557-21.333,21.333-21.333H448c35.285,0,64-28.715,64-64V64C512,28.715,483.285,0,448,0z"
			/>
	</g>
</g>
<g>
</g>
<g>
</g>
<g>
</g>
<g>
</g>
<g>
</g>
<g>
</g>
<g>
</g>
<g>
</g>
<g>
</g>
<g>
</g>
<g>
</g>
<g>
</g>
<g>
</g>
<g>
</g>
<g>
</g>
</svg>
