<?xml version="1.0" encoding="iso-8859-1"?>
<!-- Generator: Adobe Illustrator 19.0.0, SVG Export Plug-In . SVG Version: 6.00 Build 0)  -->
<svg version="1.1" id="Capa_1" xmlns="http://www.w3.org/2000/svg" xmlns:xlink="http://www.w3.org/1999/xlink" x="0px" y="0px"
	 viewBox="0 0 512 512" style="enable-background:new 0 0 512 512;" xml:space="preserve">
<g>
	<g>
		<path d="M366.976,192l77.44-116.16c4.352-6.549,4.779-14.955,1.067-21.909c-3.712-6.933-10.944-11.264-18.816-11.264h-320V21.333
			C106.667,9.536,97.131,0,85.334,0C73.536,0,64,9.536,64,21.333V64v256v170.667C64,502.464,73.536,512,85.334,512
			c11.797,0,21.333-9.536,21.333-21.333V341.333h320c7.872,0,15.104-4.331,18.816-11.264c3.712-6.955,3.285-15.36-1.067-21.909
			L366.976,192z"/>
	</g>
</g>
<g>
</g>
<g>
</g>
<g>
</g>
<g>
</g>
<g>
</g>
<g>
</g>
<g>
</g>
<g>
</g>
<g>
</g>
<g>
</g>
<g>
</g>
<g>
</g>
<g>
</g>
<g>
</g>
<g>
</g>
</svg>
