<?xml version="1.0" encoding="iso-8859-1"?>
<!-- Generator: Adobe Illustrator 19.0.0, SVG Export Plug-In . SVG Version: 6.00 Build 0)  -->
<svg version="1.1" id="Capa_1" xmlns="http://www.w3.org/2000/svg" xmlns:xlink="http://www.w3.org/1999/xlink" x="0px" y="0px"
	 viewBox="0 0 512 512" style="enable-background:new 0 0 512 512;" xml:space="preserve">
<g>
	<g>
		<path d="M389.978,213.333L464.666,120c5.12-6.421,6.101-15.189,2.56-22.592c-3.563-7.36-11.008-12.075-19.221-12.075h-192V64
			c0-11.797-9.536-21.333-21.333-21.333H85.338V21.333C85.338,9.536,75.802,0,64.004,0C52.207,0,42.671,9.536,42.671,21.333V64
			v170.667v256c0,11.797,9.536,21.333,21.333,21.333c11.797,0,21.333-9.536,21.333-21.333V256h89.088
			c-2.368,6.699-3.755,13.845-3.755,21.333c0,35.285,28.715,64,64,64h213.333c8.213,0,15.659-4.715,19.221-12.075
			c3.541-7.403,2.56-16.171-2.56-22.592L389.978,213.333z M213.338,106.667v106.667h-128v-128h128V106.667z"/>
	</g>
</g>
<g>
</g>
<g>
</g>
<g>
</g>
<g>
</g>
<g>
</g>
<g>
</g>
<g>
</g>
<g>
</g>
<g>
</g>
<g>
</g>
<g>
</g>
<g>
</g>
<g>
</g>
<g>
</g>
<g>
</g>
</svg>
