<?xml version="1.0" encoding="iso-8859-1"?>
<!-- Generator: Adobe Illustrator 19.0.0, SVG Export Plug-In . SVG Version: 6.00 Build 0)  -->
<svg version="1.1" id="Capa_1" xmlns="http://www.w3.org/2000/svg" xmlns:xlink="http://www.w3.org/1999/xlink" x="0px" y="0px"
	 viewBox="0 0 512 512" style="enable-background:new 0 0 512 512;" xml:space="preserve">
<g>
	<g>
		<g>
			<path d="M106.667,344.363V21.333C106.667,9.536,97.109,0,85.333,0S64,9.536,64,21.333v323.029c-36.693,9.536-64,42.645-64,82.304
				C0,473.728,38.272,512,85.333,512s85.333-38.272,85.333-85.333C170.667,387.008,143.36,353.899,106.667,344.363z"/>
			<path d="M426.667,0c-47.061,0-85.333,38.272-85.333,85.333c0,39.659,27.307,72.768,64,82.304v323.029
				c0,11.797,9.557,21.333,21.333,21.333S448,502.464,448,490.667V167.637c36.693-9.536,64-42.645,64-82.304
				C512,38.272,473.728,0,426.667,0z"/>
			<path d="M277.333,173.696V21.333C277.333,9.536,267.776,0,256,0s-21.333,9.536-21.333,21.333v152.363
				c-36.693,9.536-64,42.645-64,82.304s27.307,72.768,64,82.304v152.363c0,11.797,9.557,21.333,21.333,21.333
				s21.333-9.536,21.333-21.333V338.304c36.693-9.536,64-42.645,64-82.304S314.027,183.232,277.333,173.696z"/>
		</g>
	</g>
</g>
<g>
</g>
<g>
</g>
<g>
</g>
<g>
</g>
<g>
</g>
<g>
</g>
<g>
</g>
<g>
</g>
<g>
</g>
<g>
</g>
<g>
</g>
<g>
</g>
<g>
</g>
<g>
</g>
<g>
</g>
</svg>
