<?xml version="1.0" encoding="iso-8859-1"?>
<!-- Generator: Adobe Illustrator 19.0.0, SVG Export Plug-In . SVG Version: 6.00 Build 0)  -->
<svg version="1.1" id="Capa_1" xmlns="http://www.w3.org/2000/svg" xmlns:xlink="http://www.w3.org/1999/xlink" x="0px" y="0px"
	 viewBox="0 0 512 512" style="enable-background:new 0 0 512 512;" xml:space="preserve">
<g>
	<g>
		<path d="M490.667,0H21.333C9.557,0,0,9.557,0,21.333v469.333C0,502.464,9.557,512,21.333,512h469.333
			c11.797,0,21.333-9.536,21.333-21.333V21.333C512,9.557,502.464,0,490.667,0z M128,448c-35.285,0-64-28.693-64-64
			c0-27.776,17.899-51.221,42.667-60.053V85.333C106.667,73.557,116.224,64,128,64s21.333,9.557,21.333,21.333v238.613
			C174.101,332.779,192,356.224,192,384C192,419.307,163.285,448,128,448z M277.333,316.075v110.592
			c0,11.797-9.557,21.333-21.333,21.333s-21.333-9.536-21.333-21.333V316.075C209.899,307.243,192,283.776,192,256
			s17.899-51.221,42.667-60.053V85.333C234.667,73.557,244.224,64,256,64s21.333,9.557,21.333,21.333v110.613
			C302.101,204.779,320,228.224,320,256S302.101,307.243,277.333,316.075z M405.333,188.075v238.592
			c0,11.797-9.557,21.333-21.333,21.333s-21.333-9.536-21.333-21.333V188.075C337.899,179.243,320,155.776,320,128
			c0-35.285,28.715-64,64-64c35.285,0,64,28.715,64,64C448,155.776,430.101,179.243,405.333,188.075z"/>
	</g>
</g>
<g>
</g>
<g>
</g>
<g>
</g>
<g>
</g>
<g>
</g>
<g>
</g>
<g>
</g>
<g>
</g>
<g>
</g>
<g>
</g>
<g>
</g>
<g>
</g>
<g>
</g>
<g>
</g>
<g>
</g>
</svg>
