<?xml version="1.0" encoding="iso-8859-1"?>
<!-- Generator: Adobe Illustrator 19.0.0, SVG Export Plug-In . SVG Version: 6.00 Build 0)  -->
<svg version="1.1" id="Capa_1" xmlns="http://www.w3.org/2000/svg" xmlns:xlink="http://www.w3.org/1999/xlink" x="0px" y="0px"
	 viewBox="0 0 512 512" style="enable-background:new 0 0 512 512;" xml:space="preserve">
<g>
	<g>
		<g>
			<path d="M298.667,170.667h-21.333V21.333C277.333,9.536,267.797,0,256,0s-21.333,9.536-21.333,21.333v149.333h-21.333
				C201.536,170.667,192,180.203,192,192v128c0,11.797,9.536,21.333,21.333,21.333h21.333v149.333
				c0,11.797,9.536,21.333,21.333,21.333s21.333-9.536,21.333-21.333V341.333h21.333c11.797,0,21.333-9.536,21.333-21.333V192
				C320,180.203,310.464,170.667,298.667,170.667z"/>
			<path d="M469.333,42.667H448V21.333C448,9.536,438.464,0,426.667,0c-11.797,0-21.333,9.536-21.333,21.333v21.333H384
				c-11.797,0-21.333,9.536-21.333,21.333v128c0,11.797,9.536,21.333,21.333,21.333h21.333v277.333
				c0,11.797,9.536,21.333,21.333,21.333c11.797,0,21.333-9.536,21.333-21.333V213.333h21.333c11.797,0,21.333-9.536,21.333-21.333
				V64C490.667,52.203,481.131,42.667,469.333,42.667z"/>
			<path d="M128,298.667h-21.333V21.333C106.667,9.536,97.131,0,85.333,0C73.536,0,64,9.536,64,21.333v277.333H42.667
				c-11.797,0-21.333,9.536-21.333,21.333v128c0,11.797,9.536,21.333,21.333,21.333H64v21.333C64,502.464,73.536,512,85.333,512
				c11.797,0,21.333-9.536,21.333-21.333v-21.333H128c11.797,0,21.333-9.536,21.333-21.333V320
				C149.333,308.203,139.797,298.667,128,298.667z"/>
		</g>
	</g>
</g>
<g>
</g>
<g>
</g>
<g>
</g>
<g>
</g>
<g>
</g>
<g>
</g>
<g>
</g>
<g>
</g>
<g>
</g>
<g>
</g>
<g>
</g>
<g>
</g>
<g>
</g>
<g>
</g>
<g>
</g>
</svg>
