<?xml version="1.0" encoding="iso-8859-1"?>
<!-- Generator: Adobe Illustrator 19.0.0, SVG Export Plug-In . SVG Version: 6.00 Build 0)  -->
<svg version="1.1" id="Capa_1" xmlns="http://www.w3.org/2000/svg" xmlns:xlink="http://www.w3.org/1999/xlink" x="0px" y="0px"
	 viewBox="0 0 512 512" style="enable-background:new 0 0 512 512;" xml:space="preserve">
<g>
	<g>
		<g>
			<rect x="341.333" y="170.667" width="42.667" height="85.333"/>
			<path d="M490.667,0H21.333C9.536,0,0,9.536,0,21.333v469.333C0,502.464,9.536,512,21.333,512h469.333
				c11.797,0,21.333-9.536,21.333-21.333V21.333C512,9.536,502.464,0,490.667,0z M213.333,362.667
				c0,11.797-9.536,21.333-21.333,21.333h-21.333v21.333c0,11.797-9.536,21.333-21.333,21.333c-11.797,0-21.333-9.536-21.333-21.333
				V384h-21.333c-11.797,0-21.333-9.536-21.333-21.333v-128c0-11.797,9.536-21.333,21.333-21.333H128V106.667
				c0-11.797,9.536-21.333,21.333-21.333c11.797,0,21.333,9.536,21.333,21.333v106.667H192c11.797,0,21.333,9.536,21.333,21.333
				V362.667z M426.667,277.333c0,11.797-9.536,21.333-21.333,21.333H384v106.667c0,11.797-9.536,21.333-21.333,21.333
				s-21.333-9.536-21.333-21.333V298.667H320c-11.797,0-21.333-9.536-21.333-21.333v-128c0-11.797,9.536-21.333,21.333-21.333
				h21.333v-21.333c0-11.797,9.536-21.333,21.333-21.333S384,94.869,384,106.667V128h21.333c11.797,0,21.333,9.536,21.333,21.333
				V277.333z"/>
			<rect x="128" y="256" width="42.667" height="85.333"/>
		</g>
	</g>
</g>
<g>
</g>
<g>
</g>
<g>
</g>
<g>
</g>
<g>
</g>
<g>
</g>
<g>
</g>
<g>
</g>
<g>
</g>
<g>
</g>
<g>
</g>
<g>
</g>
<g>
</g>
<g>
</g>
<g>
</g>
</svg>
