<?xml version="1.0" encoding="iso-8859-1"?>
<!-- Generator: Adobe Illustrator 19.0.0, SVG Export Plug-In . SVG Version: 6.00 Build 0)  -->
<svg version="1.1" id="Capa_1" xmlns="http://www.w3.org/2000/svg" xmlns:xlink="http://www.w3.org/1999/xlink" x="0px" y="0px"
	 viewBox="0 0 512 512" style="enable-background:new 0 0 512 512;" xml:space="preserve">
<g>
	<g>
		<path d="M490.667,0H21.333C9.536,0,0,9.536,0,21.333v469.333C0,502.464,9.536,512,21.333,512h469.333
			c11.797,0,21.333-9.536,21.333-21.333V21.333C512,9.536,502.464,0,490.667,0z M384,448c-27.776,0-51.243-17.899-60.075-42.667
			H85.333C73.536,405.333,64,395.797,64,384c0-11.797,9.536-21.333,21.333-21.333h238.592C332.757,337.899,356.224,320,384,320
			c35.285,0,64,28.715,64,64C448,419.285,419.285,448,384,448z M426.667,277.333H316.075C307.243,302.101,283.776,320,256,320
			s-51.243-17.899-60.075-42.667H85.333C73.536,277.333,64,267.797,64,256s9.536-21.333,21.333-21.333h110.592
			C204.757,209.899,228.224,192,256,192s51.243,17.899,60.075,42.667h110.592c11.797,0,21.333,9.536,21.333,21.333
			S438.464,277.333,426.667,277.333z M426.667,149.333H188.075C179.243,174.101,155.776,192,128,192c-35.285,0-64-28.715-64-64
			s28.715-64,64-64c27.776,0,51.243,17.899,60.075,42.667h238.592c11.797,0,21.333,9.536,21.333,21.333
			C448,139.797,438.464,149.333,426.667,149.333z"/>
	</g>
</g>
<g>
</g>
<g>
</g>
<g>
</g>
<g>
</g>
<g>
</g>
<g>
</g>
<g>
</g>
<g>
</g>
<g>
</g>
<g>
</g>
<g>
</g>
<g>
</g>
<g>
</g>
<g>
</g>
<g>
</g>
</svg>
