<?xml version="1.0" encoding="iso-8859-1"?>
<!-- Generator: Adobe Illustrator 19.0.0, SVG Export Plug-In . SVG Version: 6.00 Build 0)  -->
<svg version="1.1" id="Capa_1" xmlns="http://www.w3.org/2000/svg" xmlns:xlink="http://www.w3.org/1999/xlink" x="0px" y="0px"
	 viewBox="0 0 512 512" style="enable-background:new 0 0 512 512;" xml:space="preserve">
<g>
	<g>
		<path d="M490.667,0H21.333C9.536,0,0,9.536,0,21.333v469.333C0,502.464,9.536,512,21.333,512h469.333
			c11.797,0,21.333-9.536,21.333-21.333V21.333C512,9.536,502.464,0,490.667,0z M405.333,384H384v21.333
			c0,11.797-9.536,21.333-21.333,21.333h-128c-11.797,0-21.333-9.536-21.333-21.333V384H106.667
			c-11.797,0-21.333-9.536-21.333-21.333s9.536-21.333,21.333-21.333h106.667V320c0-11.797,9.536-21.333,21.333-21.333h128
			c11.797,0,21.333,9.536,21.333,21.333v21.333h21.333c11.797,0,21.333,9.536,21.333,21.333S417.131,384,405.333,384z
			 M405.333,170.667H298.667V192c0,11.797-9.536,21.333-21.333,21.333h-128C137.536,213.333,128,203.797,128,192v-21.333h-21.333
			c-11.797,0-21.333-9.536-21.333-21.333c0-11.797,9.536-21.333,21.333-21.333H128v-21.333c0-11.797,9.536-21.333,21.333-21.333h128
			c11.797,0,21.333,9.536,21.333,21.333V128h106.667c11.797,0,21.333,9.536,21.333,21.333
			C426.667,161.131,417.131,170.667,405.333,170.667z"/>
	</g>
</g>
<g>
</g>
<g>
</g>
<g>
</g>
<g>
</g>
<g>
</g>
<g>
</g>
<g>
</g>
<g>
</g>
<g>
</g>
<g>
</g>
<g>
</g>
<g>
</g>
<g>
</g>
<g>
</g>
<g>
</g>
</svg>
