<?xml version="1.0" encoding="iso-8859-1"?>
<!-- Generator: Adobe Illustrator 19.0.0, SVG Export Plug-In . SVG Version: 6.00 Build 0)  -->
<svg version="1.1" id="Capa_1" xmlns="http://www.w3.org/2000/svg" xmlns:xlink="http://www.w3.org/1999/xlink" x="0px" y="0px"
	 viewBox="0 0 512 512" style="enable-background:new 0 0 512 512;" xml:space="preserve">
<g>
	<g>
		<g>
			<path d="M405.333,66.389V21.333C405.333,9.536,395.797,0,384,0s-21.333,9.536-21.333,21.333v44.843
				c-48.619,10.048-85.333,53.653-85.333,105.813c0,50.859,36.715,93.419,85.333,103.211v215.467
				c0,11.797,9.536,21.333,21.333,21.333s21.333-9.536,21.333-21.333V275.179c48.619-9.92,85.333-53.013,85.333-104.512
				C490.667,121.109,452.715,76.907,405.333,66.389z M405.333,192h-42.667c-11.797,0-21.333-9.536-21.333-21.333
				c0-11.797,9.536-21.333,21.333-21.333h42.667c11.797,0,21.333,9.536,21.333,21.333C426.667,182.464,417.131,192,405.333,192z"/>
			<path d="M149.333,236.821V21.333C149.333,9.536,139.797,0,128,0c-11.797,0-21.333,9.536-21.333,21.333v215.488
				c-48.619,9.92-85.333,53.013-85.333,104.512c0,51.499,36.715,94.592,85.333,104.512v44.821c0,11.797,9.536,21.333,21.333,21.333
				c11.797,0,21.333-9.536,21.333-21.333v-44.821c48.619-9.92,85.333-53.013,85.333-104.512
				C234.667,289.835,197.952,246.741,149.333,236.821z M149.333,362.667h-42.667c-11.797,0-21.333-9.536-21.333-21.333
				c0-11.797,9.536-21.333,21.333-21.333h42.667c11.797,0,21.333,9.536,21.333,21.333
				C170.667,353.131,161.131,362.667,149.333,362.667z"/>
		</g>
	</g>
</g>
<g>
</g>
<g>
</g>
<g>
</g>
<g>
</g>
<g>
</g>
<g>
</g>
<g>
</g>
<g>
</g>
<g>
</g>
<g>
</g>
<g>
</g>
<g>
</g>
<g>
</g>
<g>
</g>
<g>
</g>
</svg>
