<?xml version="1.0" encoding="iso-8859-1"?>
<!-- Generator: Adobe Illustrator 19.0.0, SVG Export Plug-In . SVG Version: 6.00 Build 0)  -->
<svg version="1.1" id="Capa_1" xmlns="http://www.w3.org/2000/svg" xmlns:xlink="http://www.w3.org/1999/xlink" x="0px" y="0px"
	 viewBox="0 0 512 512" style="enable-background:new 0 0 512 512;" xml:space="preserve">
<g>
	<g>
		<g>
			<path d="M213.333,234.667h-64V21.333C149.333,9.536,139.797,0,128,0c-11.797,0-21.333,9.536-21.333,21.333v213.333h-64
				c-11.797,0-21.333,9.536-21.333,21.333v170.667c0,11.797,9.536,21.333,21.333,21.333h64v42.667
				c0,11.797,9.536,21.333,21.333,21.333c11.797,0,21.333-9.536,21.333-21.333V448h64c11.797,0,21.333-9.536,21.333-21.333V256
				C234.667,244.203,225.131,234.667,213.333,234.667z M149.333,362.667h-42.667c-11.797,0-21.333-9.536-21.333-21.333
				c0-11.797,9.536-21.333,21.333-21.333h42.667c11.797,0,21.333,9.536,21.333,21.333
				C170.667,353.131,161.131,362.667,149.333,362.667z"/>
			<path d="M469.333,64h-64V21.333C405.333,9.536,395.797,0,384,0s-21.333,9.536-21.333,21.333V64h-64
				c-11.797,0-21.333,9.536-21.333,21.333V256c0,11.797,9.536,21.333,21.333,21.333h64v213.333c0,11.797,9.536,21.333,21.333,21.333
				s21.333-9.536,21.333-21.333V277.333h64c11.797,0,21.333-9.536,21.333-21.333V85.333C490.667,73.536,481.131,64,469.333,64z
				 M405.333,192h-42.667c-11.797,0-21.333-9.536-21.333-21.333c0-11.797,9.536-21.333,21.333-21.333h42.667
				c11.797,0,21.333,9.536,21.333,21.333C426.667,182.464,417.131,192,405.333,192z"/>
		</g>
	</g>
</g>
<g>
</g>
<g>
</g>
<g>
</g>
<g>
</g>
<g>
</g>
<g>
</g>
<g>
</g>
<g>
</g>
<g>
</g>
<g>
</g>
<g>
</g>
<g>
</g>
<g>
</g>
<g>
</g>
<g>
</g>
</svg>
