<?xml version="1.0" encoding="iso-8859-1"?>
<!-- Generator: Adobe Illustrator 19.0.0, SVG Export Plug-In . SVG Version: 6.00 Build 0)  -->
<svg version="1.1" id="Capa_1" xmlns="http://www.w3.org/2000/svg" xmlns:xlink="http://www.w3.org/1999/xlink" x="0px" y="0px"
	 viewBox="0 0 512 512" style="enable-background:new 0 0 512 512;" xml:space="preserve">
<g>
	<g>
		<path d="M277.333,43.755V21.333C277.333,9.557,267.776,0,256,0c-11.776,0-21.333,9.557-21.333,21.333v22.421
			c-107.648,10.752-192,101.824-192,212.245c0,11.797,9.557,21.333,21.333,21.333h3.925c9.003,0,17.067-5.675,20.075-14.187
			c6.08-17.045,22.144-28.48,40-28.48s33.92,11.435,40,28.48c3.008,8.512,11.072,14.187,20.075,14.187h7.851
			c9.003,0,17.067-5.675,20.075-14.187c3.456-9.664,10.304-17.173,18.667-22.187V448c0,11.776-9.579,21.333-21.333,21.333
			C201.579,469.333,192,459.776,192,448s-9.557-21.333-21.333-21.333s-21.333,9.557-21.333,21.333c0,35.307,28.715,64,64,64
			s64-28.693,64-64V240.96c8.363,5.013,15.211,12.523,18.667,22.187c3.008,8.512,11.072,14.187,20.075,14.187h7.851
			c9.003,0,17.067-5.675,20.075-14.187c6.08-17.045,22.144-28.48,40-28.48s33.92,11.435,40,28.48
			c3.008,8.512,11.072,14.187,20.075,14.187H448c11.776,0,21.333-9.536,21.333-21.333
			C469.333,145.579,384.981,54.507,277.333,43.755z"/>
	</g>
</g>
<g>
</g>
<g>
</g>
<g>
</g>
<g>
</g>
<g>
</g>
<g>
</g>
<g>
</g>
<g>
</g>
<g>
</g>
<g>
</g>
<g>
</g>
<g>
</g>
<g>
</g>
<g>
</g>
<g>
</g>
</svg>
