<?xml version="1.0" encoding="iso-8859-1"?>
<!-- Generator: Adobe Illustrator 19.0.0, SVG Export Plug-In . SVG Version: 6.00 Build 0)  -->
<svg version="1.1" id="Capa_1" xmlns="http://www.w3.org/2000/svg" xmlns:xlink="http://www.w3.org/1999/xlink" x="0px" y="0px"
	 viewBox="0 0 512 512" style="enable-background:new 0 0 512 512;" xml:space="preserve">
<g>
	<g>
		<g>
			<rect x="320" y="320" width="42.667" height="192"/>
			<path d="M0,256c0,141.163,114.837,256,256,256h21.333V320H256c-35.285,0-64-28.715-64-64s28.715-64,64-64h21.333V0H256
				C114.837,0,0,114.837,0,256z"/>
			<rect x="320" width="42.667" height="192"/>
			<path d="M490.667,0h-85.333v192h85.333c11.797,0,21.333-9.536,21.333-21.333V21.333C512,9.536,502.464,0,490.667,0z"/>
			<path d="M490.667,320h-85.333v192h85.333c11.797,0,21.333-9.536,21.333-21.333V341.333C512,329.536,502.464,320,490.667,320z"/>
		</g>
	</g>
</g>
<g>
</g>
<g>
</g>
<g>
</g>
<g>
</g>
<g>
</g>
<g>
</g>
<g>
</g>
<g>
</g>
<g>
</g>
<g>
</g>
<g>
</g>
<g>
</g>
<g>
</g>
<g>
</g>
<g>
</g>
</svg>
