<?xml version="1.0" encoding="iso-8859-1"?>
<!-- Generator: Adobe Illustrator 19.0.0, SVG Export Plug-In . SVG Version: 6.00 Build 0)  -->
<svg version="1.1" id="Capa_1" xmlns="http://www.w3.org/2000/svg" xmlns:xlink="http://www.w3.org/1999/xlink" x="0px" y="0px"
	 viewBox="0 0 512 512" style="enable-background:new 0 0 512 512;" xml:space="preserve">
<g>
	<g>
		<path d="M256,213.333h234.667c11.797,0,21.333-9.536,21.333-21.333V21.333C512,9.536,502.464,0,490.667,0H256
			C114.837,0,0,114.837,0,256s114.837,256,256,256h234.667c11.797,0,21.333-9.536,21.333-21.333V320
			c0-11.797-9.536-21.333-21.333-21.333H256c-23.531,0-42.667-19.136-42.667-42.667S232.469,213.333,256,213.333z M320,85.333
			h21.333V64c0-11.797,9.536-21.333,21.333-21.333S384,52.203,384,64v21.333h21.333c11.797,0,21.333,9.536,21.333,21.333
			c0,11.797-9.536,21.333-21.333,21.333H384v21.333c0,11.797-9.536,21.333-21.333,21.333s-21.333-9.536-21.333-21.333V128H320
			c-11.797,0-21.333-9.536-21.333-21.333C298.667,94.869,308.203,85.333,320,85.333z M320,384h85.333
			c11.797,0,21.333,9.536,21.333,21.333c0,11.797-9.536,21.333-21.333,21.333H320c-11.797,0-21.333-9.536-21.333-21.333
			C298.667,393.536,308.203,384,320,384z"/>
	</g>
</g>
<g>
</g>
<g>
</g>
<g>
</g>
<g>
</g>
<g>
</g>
<g>
</g>
<g>
</g>
<g>
</g>
<g>
</g>
<g>
</g>
<g>
</g>
<g>
</g>
<g>
</g>
<g>
</g>
<g>
</g>
</svg>
