<?xml version="1.0" encoding="iso-8859-1"?>
<!-- Generator: Adobe Illustrator 19.0.0, SVG Export Plug-In . SVG Version: 6.00 Build 0)  -->
<svg version="1.1" id="Capa_1" xmlns="http://www.w3.org/2000/svg" xmlns:xlink="http://www.w3.org/1999/xlink" x="0px" y="0px"
	 viewBox="0 0 491.52 491.52" style="enable-background:new 0 0 491.52 491.52;" xml:space="preserve">
<g>
	<g>
		<path d="M0,0v491.52h491.52V0H0z M118.374,115.241c-34.017,42.271-39.997,108.38-16.835,186.122
			c3.256,10.834-2.929,22.241-13.783,25.457c-1.925,0.573-3.912,0.86-5.837,0.86c-8.827,0-16.978-5.734-19.62-14.643
			C35.185,222.024,43.745,142.664,86.446,89.559c7.086-8.786,20.009-10.199,28.795-3.113
			C124.047,93.512,125.44,106.414,118.374,115.241z M170.414,247.214c0.717,2.929,13.906,59.105,13.906,141.906
			c0,11.326-9.155,20.48-20.48,20.48c-11.305,0-20.48-9.155-20.48-20.48c0-78.029-12.513-131.256-12.636-131.809
			c-10.199-37.663-3.461-78.234,18.166-107.909c6.676-9.134,19.477-11.121,28.611-4.506c9.155,6.676,11.162,19.477,4.506,28.631
			C167.608,193.27,163.267,220.815,170.414,247.214z M245.74,430.797c-0.369,11.059-9.462,19.763-20.439,19.763
			c-0.225,0-0.471,0-0.737-0.02c-11.305-0.389-20.132-9.871-19.743-21.176c5.038-145.019,0.082-222.454,0.021-223.211
			c-0.737-11.264,7.803-21.033,19.087-21.791c11.1-0.41,21.033,7.803,21.791,19.067C245.924,206.623,250.88,283.382,245.74,430.797z
			 M327.66,451.379c-0.43,11.018-9.503,19.661-20.439,19.661c-0.266,0-0.553,0-0.84-0.021c-11.284-0.451-20.091-9.974-19.64-21.279
			c4.096-102.236-19.272-176.497-19.517-177.213c-3.441-10.793,2.478-22.303,13.251-25.764c10.732-3.502,22.262,2.437,25.723,13.169
			C307.261,263.209,332.063,341.422,327.66,451.379z M389.1,430.797c-0.369,11.059-9.462,19.763-20.439,19.763
			c-0.225,0-0.492,0-0.737-0.02c-11.305-0.389-20.132-9.892-19.743-21.176c3.584-102.932-20.07-199.291-36.864-238.94
			c-11.919-28.16-39.342-46.346-69.919-46.346c-5.53,0-10.998,0.594-16.241,1.761c-11.162,2.376-21.996-4.547-24.433-15.565
			c-2.437-11.039,4.526-21.975,15.565-24.433c8.151-1.802,16.589-2.724,25.109-2.724c47.063,0,89.313,27.996,107.643,71.332
			C370.852,225.997,392.684,328.192,389.1,430.797z M432.067,266.138c-0.655,0.061-1.331,0.102-2.007,0.102
			c-10.404,0-19.333-7.926-20.357-18.493c-2.806-28.672-11.735-64.655-22.262-89.539C362.557,99.41,305.234,61.44,241.398,61.44
			c-20.992,0-78.008,12.513-87.306,17.428c-9.667,5.099-22.241,2.068-27.812-7.393c-5.55-9.441-3.256-21.258,5.919-27.218
			c16.507-10.691,85.238-23.777,109.199-23.777c80.323,0,152.453,47.8,183.767,121.774c12.165,28.754,22.098,68.608,25.293,101.519
			C451.564,255.037,443.331,265.032,432.067,266.138z"/>
	</g>
</g>
<g>
</g>
<g>
</g>
<g>
</g>
<g>
</g>
<g>
</g>
<g>
</g>
<g>
</g>
<g>
</g>
<g>
</g>
<g>
</g>
<g>
</g>
<g>
</g>
<g>
</g>
<g>
</g>
<g>
</g>
</svg>
