<?xml version="1.0" encoding="iso-8859-1"?>
<!-- Generator: Adobe Illustrator 19.0.0, SVG Export Plug-In . SVG Version: 6.00 Build 0)  -->
<svg version="1.1" id="Capa_1" xmlns="http://www.w3.org/2000/svg" xmlns:xlink="http://www.w3.org/1999/xlink" x="0px" y="0px"
	 viewBox="0 0 512 512" style="enable-background:new 0 0 512 512;" xml:space="preserve">
<g>
	<g>
		<path d="M0,0v512h512V0H0z M463.125,224.32L226.112,462.635c-23.403,23.403-54.144,35.093-84.864,35.093
			c-30.699,0-61.419-11.669-84.779-35.051c-46.763-46.763-46.763-122.837,0-169.579L300.416,47.851
			c35.285-35.264,92.608-35.264,127.808-0.043c35.243,35.221,35.243,92.523,0,127.765L226.069,377.728
			c-11.477,11.477-26.752,17.813-42.987,17.813c-16.235,0-31.509-6.336-42.987-17.813c-11.456-11.456-17.792-26.731-17.792-42.944
			c0-16.256,6.336-31.531,17.813-43.008l97.6-97.579c8.32-8.341,21.824-8.341,30.165,0c8.32,8.341,8.32,21.824,0,30.165l-97.6,97.6
			c-3.435,3.435-5.312,7.979-5.312,12.821c0,4.8,1.877,9.344,5.312,12.757c6.891,6.933,18.731,6.869,25.621,0.021l202.155-202.155
			c9.003-9.024,13.952-20.992,13.952-33.707c0-12.757-4.949-24.704-13.952-33.728c-18.603-18.603-48.875-18.56-67.435,0
			L86.656,323.221c-30.165,30.165-30.165,79.168-0.021,109.291c30.123,30.123,79.147,30.144,109.269,0L432.875,194.24
			c8.32-8.341,21.803-8.405,30.165-0.085S471.445,215.957,463.125,224.32z"/>
	</g>
</g>
<g>
</g>
<g>
</g>
<g>
</g>
<g>
</g>
<g>
</g>
<g>
</g>
<g>
</g>
<g>
</g>
<g>
</g>
<g>
</g>
<g>
</g>
<g>
</g>
<g>
</g>
<g>
</g>
<g>
</g>
</svg>
