<?xml version="1.0" encoding="iso-8859-1"?>
<!-- Generator: Adobe Illustrator 19.0.0, SVG Export Plug-In . SVG Version: 6.00 Build 0)  -->
<svg version="1.1" id="Capa_1" xmlns="http://www.w3.org/2000/svg" xmlns:xlink="http://www.w3.org/1999/xlink" x="0px" y="0px"
	 viewBox="0 0 512 512" style="enable-background:new 0 0 512 512;" xml:space="preserve">
<g>
	<g>
		<g>
			<path d="M106.671,341.331c-19.669,0-38.4,6.912-54.144,20.011c-0.64,0.533-1.323,1.024-2.027,1.493l-20.437,13.248
				c29.184,54.699,77.696,97.387,136.277,119.403l11.712-22.464c9.408-15.211,13.952-30.72,13.952-46.357
				C192.004,379.603,153.711,341.331,106.671,341.331z"/>
			<path d="M405.323,341.327c-47.04,0-85.333,38.272-85.333,85.333c0,15.637,4.544,31.147,13.141,44.928l15.211,22.912
				c56.896-22.123,104.107-63.787,132.907-116.971l-20.843-15.445C443.723,348.26,424.992,341.327,405.323,341.327z"/>
			<path d="M256,0C114.837,0,0,114.837,0,256c0,28.053,4.693,54.976,13.077,80.256l13.184-8.576
				c17.579-14.293,37.675-23.509,59.072-27.179v-23.168c0-11.797,9.557-21.333,21.333-21.333S128,265.536,128,277.333v23.253
				c19.392,3.285,37.312,10.88,52.715,21.867l16.448-16.469c8.341-8.341,21.845-8.341,30.187,0c8.32,8.299,8.32,21.824,0,30.165
				l-16.469,16.469c14.912,20.928,23.787,46.443,23.787,74.048c0,23.616-6.784,46.955-19.605,67.499l-6.848,13.205
				C223.701,510.315,239.659,512,256,512c16.939,0,33.472-1.749,49.493-4.907l-8.235-12.416
				c-13.163-21.056-19.925-44.416-19.925-68.011c0-27.605,8.875-53.12,23.787-74.048l-16.469-16.469
				c-8.32-8.341-8.32-21.867,0-30.165c8.341-8.341,21.845-8.341,30.187,0l16.448,16.469c15.403-10.987,33.323-18.581,52.715-21.867
				v-23.253c0-11.797,9.557-21.333,21.333-21.333s21.333,9.536,21.333,21.333v23.189c21.803,3.755,42.283,13.227,60.075,28.011
				l11.819,8.747C507.136,311.701,512,284.437,512,256C512,114.837,397.163,0,256,0z M256,256c-11.776,0-21.333-9.557-21.333-21.333
				s9.557-21.333,21.333-21.333s21.333,9.557,21.333,21.333S267.776,256,256,256z M362.667,256
				c-11.776,0-21.333-9.536-21.333-21.333c0-47.061-38.272-85.333-85.333-85.333s-85.333,38.272-85.333,85.333
				c0,11.797-9.557,21.333-21.333,21.333S128,246.464,128,234.667c0-27.605,8.875-53.12,23.787-74.048l-16.469-16.469
				c-8.32-8.341-8.32-21.867,0-30.165c8.341-8.341,21.845-8.341,30.187,0l16.448,16.469c15.403-10.987,33.323-18.581,52.715-21.867
				V85.333C234.667,73.536,244.224,64,256,64s21.333,9.536,21.333,21.333v23.253c19.392,3.285,37.312,10.88,52.715,21.867
				l16.448-16.469c8.341-8.341,21.845-8.341,30.187,0c8.32,8.299,8.32,21.824,0,30.165l-16.469,16.469
				C375.125,181.547,384,207.061,384,234.667C384,246.464,374.443,256,362.667,256z"/>
		</g>
	</g>
</g>
<g>
</g>
<g>
</g>
<g>
</g>
<g>
</g>
<g>
</g>
<g>
</g>
<g>
</g>
<g>
</g>
<g>
</g>
<g>
</g>
<g>
</g>
<g>
</g>
<g>
</g>
<g>
</g>
<g>
</g>
</svg>
