<?xml version="1.0" encoding="iso-8859-1"?>
<!-- Generator: Adobe Illustrator 19.0.0, SVG Export Plug-In . SVG Version: 6.00 Build 0)  -->
<svg version="1.1" id="Capa_1" xmlns="http://www.w3.org/2000/svg" xmlns:xlink="http://www.w3.org/1999/xlink" x="0px" y="0px"
	 viewBox="0 0 512.013 512.013" style="enable-background:new 0 0 512.013 512.013;" xml:space="preserve">
<g>
	<g>
		<g>
			<path d="M346.5,316.331l6.123,6.123c15.403-10.987,33.323-18.581,52.715-21.867v-1.92c0-11.797,9.536-21.333,21.333-21.333
				s21.333,9.536,21.333,21.333v1.899c19.883,3.435,38.805,11.605,55.531,24.235l8.469,5.568V21.333
				C512.004,9.536,502.468,0,490.671,0H21.338C9.54,0,0.004,9.536,0.004,21.333v308.992l9.579-6.315
				c15.915-12.053,34.603-20.053,54.421-23.467v-1.877c0-11.797,9.536-21.333,21.333-21.333c11.797,0,21.333,9.536,21.333,21.333
				v1.92c19.413,3.285,37.312,10.88,52.715,21.867l6.123-6.123c8.341-8.32,21.824-8.32,30.165,0c8.341,8.341,8.341,21.845,0,30.165
				l-6.123,6.123c10.987,15.403,18.581,33.323,21.867,52.715h1.92c11.797,0,21.333,9.536,21.333,21.333S225.135,448,213.338,448
				h-1.877c-3.435,19.883-11.605,38.805-24.235,55.531L181.636,512H330.33l-6.315-9.579c-12.053-15.915-20.053-34.603-23.467-54.421
				h-1.877c-11.797,0-21.333-9.536-21.333-21.333s9.536-21.333,21.333-21.333h1.941c3.264-19.392,10.859-37.312,21.845-52.715
				l-6.123-6.123c-8.32-8.32-8.32-21.824,0-30.165C324.676,308.011,338.18,308.011,346.5,316.331z M256.004,234.667
				c-11.776,0-21.333-9.557-21.333-21.333S244.228,192,256.004,192c11.797,0,21.333,9.557,21.333,21.333
				S267.802,234.667,256.004,234.667z M256.004,149.333c-47.061,0-85.333,38.272-85.333,85.333c0,11.797-9.536,21.333-21.333,21.333
				c-11.797,0-21.333-9.536-21.333-21.333c0-27.605,8.875-53.12,23.787-74.048l-16.469-16.469c-8.341-8.341-8.341-21.824,0-30.165
				c8.341-8.341,21.824-8.341,30.165,0l16.469,16.469c15.403-10.987,33.323-18.581,52.715-21.867V85.333
				c0-11.797,9.536-21.333,21.333-21.333c11.797,0,21.333,9.536,21.333,21.333v23.253c19.413,3.285,37.312,10.88,52.715,21.867
				l16.469-16.469c8.341-8.341,21.845-8.341,30.165,0c8.341,8.341,8.341,21.824,0,30.165l-16.469,16.469
				c14.912,20.928,23.787,46.443,23.787,74.048c0,11.797-9.536,21.333-21.333,21.333s-21.333-9.536-21.333-21.333
				C341.338,187.605,303.066,149.333,256.004,149.333z"/>
			<path d="M85.333,341.342c-18.283,0-35.968,6.059-51.136,17.493L0,381.406v109.269c0,11.797,9.557,21.333,21.333,21.333h109.248
				l21.803-33.088c12.224-16.277,18.283-33.963,18.283-52.245C170.667,379.614,132.395,341.342,85.333,341.342z"/>
			<path d="M478.925,359.629c-16.277-12.224-33.963-18.283-52.245-18.283c-47.061,0-85.333,38.272-85.333,85.333
				c0,18.283,6.059,35.968,17.493,51.136l22.571,34.197H490.68c11.797,0,21.333-9.557,21.333-21.333V381.432L478.925,359.629z"/>
		</g>
	</g>
</g>
<g>
</g>
<g>
</g>
<g>
</g>
<g>
</g>
<g>
</g>
<g>
</g>
<g>
</g>
<g>
</g>
<g>
</g>
<g>
</g>
<g>
</g>
<g>
</g>
<g>
</g>
<g>
</g>
<g>
</g>
</svg>
