<?xml version="1.0" encoding="iso-8859-1"?>
<!-- Generator: Adobe Illustrator 19.0.0, SVG Export Plug-In . SVG Version: 6.00 Build 0)  -->
<svg version="1.1" id="Capa_1" xmlns="http://www.w3.org/2000/svg" xmlns:xlink="http://www.w3.org/1999/xlink" x="0px" y="0px"
	 viewBox="0 0 512 512" style="enable-background:new 0 0 512 512;" xml:space="preserve">
<g>
	<g>
		<g>
			<path d="M256,213.333c-23.531,0-42.667,19.136-42.667,42.667s19.136,42.667,42.667,42.667s42.667-19.136,42.667-42.667
				S279.531,213.333,256,213.333z"/>
			<path d="M475.584,192H414.08l44.8-44.885c6.699-6.72,10.411-15.659,10.389-25.173c0-9.493-3.712-18.432-10.411-25.109
				l-42.368-42.347c-7.061-7.083-16.427-10.987-26.453-11.008h-0.021c-9.984,0-19.371,3.904-26.411,10.944L320,97.899V36.416
				C320,16.341,303.659,0,283.584,0h-55.168C208.341,0,192,16.341,192,36.416v61.483l-43.584-43.456
				c-7.061-7.061-16.427-10.965-26.432-10.965h-0.021c-10.027,0.021-19.392,3.925-26.432,10.987L53.163,96.811
				c-6.72,6.699-10.432,15.637-10.432,25.131c-0.021,9.515,3.691,18.453,10.368,25.152L97.92,192H36.416
				C16.341,192,0,208.341,0,228.416v55.168C0,303.659,16.341,320,36.416,320H97.92l-43.541,43.627
				c-14.528,14.592-14.485,38.315,0.064,52.843l41.067,41.045c7.061,7.083,16.427,10.987,26.453,11.008h0.021
				c9.984,0,19.371-3.904,26.411-10.944L192,414.101v61.483C192,495.659,208.341,512,228.416,512h55.168
				C303.659,512,320,495.659,320,475.584v-61.483l43.584,43.456c7.061,7.061,16.427,10.965,26.432,10.965h0.021
				c10.027-0.021,19.392-3.925,26.432-10.987l41.088-41.067c14.549-14.528,14.592-38.251,0.043-52.864L414.08,320h61.504
				C495.659,320,512,303.659,512,283.584v-55.168C512,208.341,495.659,192,475.584,192z M256,341.333
				c-47.061,0-85.333-38.272-85.333-85.333s38.272-85.333,85.333-85.333s85.333,38.272,85.333,85.333S303.061,341.333,256,341.333z"
				/>
		</g>
	</g>
</g>
<g>
</g>
<g>
</g>
<g>
</g>
<g>
</g>
<g>
</g>
<g>
</g>
<g>
</g>
<g>
</g>
<g>
</g>
<g>
</g>
<g>
</g>
<g>
</g>
<g>
</g>
<g>
</g>
<g>
</g>
</svg>
