<?xml version="1.0" encoding="iso-8859-1"?>
<!-- Generator: Adobe Illustrator 19.0.0, SVG Export Plug-In . SVG Version: 6.00 Build 0)  -->
<svg version="1.1" id="Capa_1" xmlns="http://www.w3.org/2000/svg" xmlns:xlink="http://www.w3.org/1999/xlink" x="0px" y="0px"
	 viewBox="0 0 512 512" style="enable-background:new 0 0 512 512;" xml:space="preserve">
<g>
	<g>
		<g>
			<path d="M490.667,234.667h-22.421c-4.267-42.837-21.291-81.963-47.168-113.579l15.936-15.936c8.341-8.341,8.341-21.845,0-30.165
				c-8.32-8.341-21.824-8.341-30.165,0l-15.936,15.936c-31.616-25.877-70.741-42.901-113.579-47.168V21.333
				C277.333,9.536,267.797,0,256,0s-21.333,9.536-21.333,21.333v22.421c-42.837,4.267-81.963,21.291-113.579,47.168l-15.936-15.936
				c-8.341-8.341-21.845-8.341-30.165,0c-8.341,8.32-8.341,21.824,0,30.165l15.936,15.936
				c-25.877,31.616-42.901,70.741-47.168,113.579H21.333C9.536,234.667,0,244.203,0,256s9.536,21.333,21.333,21.333h22.421
				c4.267,42.837,21.291,81.963,47.168,113.579l-15.936,15.936c-8.341,8.341-8.341,21.845,0,30.165
				c4.16,4.181,9.621,6.251,15.083,6.251c5.461,0,10.901-2.069,15.083-6.251l15.936-15.936
				c31.616,25.877,70.741,42.901,113.579,47.168v22.421c0,11.797,9.536,21.333,21.333,21.333s21.333-9.536,21.333-21.333v-22.421
				c42.837-4.267,81.963-21.291,113.579-47.168l15.936,15.936c4.181,4.181,9.621,6.251,15.083,6.251
				c5.461,0,10.923-2.069,15.083-6.251c8.341-8.32,8.341-21.824,0-30.165l-15.936-15.936
				c25.877-31.616,42.901-70.741,47.168-113.579h22.421c11.797,0,21.333-9.536,21.333-21.333S502.464,234.667,490.667,234.667z
				 M256,341.333c-47.061,0-85.333-38.272-85.333-85.333s38.272-85.333,85.333-85.333s85.333,38.272,85.333,85.333
				S303.061,341.333,256,341.333z"/>
			<path d="M256,213.333c-23.531,0-42.667,19.136-42.667,42.667s19.136,42.667,42.667,42.667s42.667-19.136,42.667-42.667
				S279.531,213.333,256,213.333z"/>
		</g>
	</g>
</g>
<g>
</g>
<g>
</g>
<g>
</g>
<g>
</g>
<g>
</g>
<g>
</g>
<g>
</g>
<g>
</g>
<g>
</g>
<g>
</g>
<g>
</g>
<g>
</g>
<g>
</g>
<g>
</g>
<g>
</g>
</svg>
