<?xml version="1.0" encoding="iso-8859-1"?>
<!-- Generator: Adobe Illustrator 19.0.0, SVG Export Plug-In . SVG Version: 6.00 Build 0)  -->
<svg version="1.1" id="Capa_1" xmlns="http://www.w3.org/2000/svg" xmlns:xlink="http://www.w3.org/1999/xlink" x="0px" y="0px"
	 viewBox="0 0 511.994 511.994" style="enable-background:new 0 0 511.994 511.994;" xml:space="preserve">
<g>
	<g>
		<g>
			<path d="M490.66,226.831h-22.443c-1.557-15.68-4.992-30.784-9.771-45.291l20.651-9.195c10.773-4.779,15.595-17.387,10.837-28.16
				c-4.8-10.752-17.387-15.595-28.16-10.837l-20.715,9.216c-5.909-10.304-12.629-20.053-20.117-29.184l16.064-16.064
				c8.341-8.341,8.341-21.845,0-30.165c-8.32-8.341-21.824-8.341-30.165,0l-16.064,16.064
				c-11.925-9.771-24.811-18.411-38.699-25.429l8.085-20.971c4.224-11.008-1.259-23.339-12.245-27.584
				c-10.944-4.16-23.339,1.237-27.584,12.245l-8.128,21.056c-11.307-3.093-22.912-5.419-34.88-6.613v86.165
				c60.437,10.219,106.667,62.784,106.667,126.08c0,11.925-1.771,23.445-4.843,34.411l76.501,40.021
				c6.315-16.811,10.581-34.603,12.501-53.099h22.507c11.797,0,21.333-9.536,21.333-21.333S502.458,226.831,490.66,226.831z"/>
			<path d="M420.924,382.927c5.717-6.997,11.029-14.357,15.851-22.059l-75.797-39.68c-23.168,33.195-61.547,54.976-104.981,54.976
				c-44.16,0-83.179-22.485-106.176-56.597L75.324,361.06c4.779,7.637,10.048,14.933,15.723,21.867l-16.064,16.085
				c-8.341,8.341-8.341,21.845,0,30.165c4.16,4.181,9.621,6.251,15.083,6.251c5.44,0,10.901-2.069,15.083-6.251l16.299-16.299
				c11.883,9.771,24.789,18.219,38.613,25.259l-8.235,21.376c-4.224,11.008,1.259,23.339,12.245,27.584
				c2.517,0.96,5.12,1.429,7.68,1.429c8.555,0,16.64-5.205,19.904-13.675l8.085-20.992c11.285,3.093,22.976,5.035,34.923,6.229
				v22.741c0,11.797,9.536,21.333,21.333,21.333c11.797,0,21.333-9.536,21.333-21.333V460.09c15.659-1.579,30.72-4.907,45.184-9.707
				l9.301,20.885c3.541,7.957,11.328,12.672,19.52,12.672c2.88,0,5.824-0.597,8.64-1.835c10.773-4.8,15.595-17.408,10.837-28.181
				l-9.195-20.651c10.283-5.909,19.819-12.907,28.928-20.395l16.299,16.299c4.181,4.181,9.621,6.251,15.083,6.251
				c5.461,0,10.923-2.069,15.083-6.251c8.341-8.32,8.341-21.824,0-30.165L420.924,382.927z"/>
			<path d="M170.66,248.164c0,47.061,38.272,85.333,85.333,85.333s85.333-38.272,85.333-85.333s-38.272-85.333-85.333-85.333
				S170.66,201.103,170.66,248.164z M255.994,205.498c23.531,0,42.667,19.136,42.667,42.667s-19.136,42.667-42.667,42.667
				s-42.667-19.136-42.667-42.667S232.463,205.498,255.994,205.498z"/>
			<path d="M255.994,269.498c11.776,0,21.333-9.557,21.333-21.333s-9.557-21.333-21.333-21.333
				c-11.776,0-21.333,9.557-21.333,21.333S244.218,269.498,255.994,269.498z"/>
			<path d="M128,248.16c0-63.296,46.229-115.861,106.667-126.059V35.915c-15.68,1.557-30.784,5.013-45.291,9.813l-9.195-20.672
				c-4.8-10.752-17.387-15.595-28.16-10.837c-10.773,4.8-15.616,17.408-10.837,28.181l9.216,20.715
				c-10.304,5.909-20.053,12.608-29.205,20.096l-16.064-16.064c-8.32-8.341-21.824-8.341-30.165,0c-8.32,8.32-8.32,21.824,0,30.165
				l16.064,16.064c-9.771,11.925-18.432,24.811-25.451,38.677l-20.949-8.064c-10.923-4.139-23.317,1.237-27.563,12.267
				c-4.245,10.987,1.237,23.317,12.245,27.584l21.013,8.085c-3.093,11.307-5.376,22.933-6.571,34.901H21.333
				C9.536,226.827,0,236.363,0,248.16c0,11.797,9.536,21.333,21.333,21.333H43.84c1.92,18.539,6.208,36.395,12.544,53.269
				l75.904-42.283C129.579,270.133,128,259.339,128,248.16z"/>
		</g>
	</g>
</g>
<g>
</g>
<g>
</g>
<g>
</g>
<g>
</g>
<g>
</g>
<g>
</g>
<g>
</g>
<g>
</g>
<g>
</g>
<g>
</g>
<g>
</g>
<g>
</g>
<g>
</g>
<g>
</g>
<g>
</g>
</svg>
