<?xml version="1.0" encoding="iso-8859-1"?>
<!-- Generator: Adobe Illustrator 19.0.0, SVG Export Plug-In . SVG Version: 6.00 Build 0)  -->
<svg version="1.1" id="Capa_1" xmlns="http://www.w3.org/2000/svg" xmlns:xlink="http://www.w3.org/1999/xlink" x="0px" y="0px"
	 viewBox="0 0 512 512" style="enable-background:new 0 0 512 512;" xml:space="preserve">
<g>
	<g>
		<g>
			<path d="M490.667,106.117h-91.883c4.544-9.749,7.147-20.373,7.147-31.488c0-20.032-7.765-38.848-21.867-52.928
				c-28.181-28.203-77.931-27.947-105.6-0.277L253.675,45.36l-17.237-21.803l-1.643-1.856c-28.203-28.203-77.717-28.203-105.877,0
				c-21.461,21.461-27.392,54.251-16.939,84.416H21.333C9.557,106.117,0,115.653,0,127.451v106.667
				c0,11.797,9.557,21.333,21.333,21.333h21.333v85.333h192v-85.333h42.667v85.333h192v-85.333h21.333
				c11.776,0,21.333-9.536,21.333-21.333V127.451C512,115.653,502.443,106.117,490.667,106.117z M252.907,105.435l55.467-53.568
				c12.075-12.075,33.429-12.075,45.525,0c6.037,6.037,9.365,14.123,9.365,22.763c0,8.64-3.328,16.725-8.064,21.547l-11.733,9.941
				h-91.264L252.907,105.435z M159.104,51.867c11.819-11.819,32.576-12.16,44.736-0.747l19.008,24.043l-24.96,24.107
				c-2.112,2.112-4.096,4.395-5.952,6.848h-31.403l-4.928-6.016C147.861,85.915,145.707,65.243,159.104,51.867z M469.333,212.784
				H448H256H64H42.667v-64h97.664h28.203h48.085h142.464h110.251V212.784z"/>
			<path d="M42.667,490.117c0,11.797,9.557,21.333,21.333,21.333h170.667v-128h-192V490.117z"/>
			<path d="M277.333,511.451H448c11.776,0,21.333-9.536,21.333-21.333V383.451h-192V511.451z"/>
		</g>
	</g>
</g>
<g>
</g>
<g>
</g>
<g>
</g>
<g>
</g>
<g>
</g>
<g>
</g>
<g>
</g>
<g>
</g>
<g>
</g>
<g>
</g>
<g>
</g>
<g>
</g>
<g>
</g>
<g>
</g>
<g>
</g>
</svg>
