<?xml version="1.0" encoding="iso-8859-1"?>
<!-- Generator: Adobe Illustrator 19.0.0, SVG Export Plug-In . SVG Version: 6.00 Build 0)  -->
<svg version="1.1" id="Capa_1" xmlns="http://www.w3.org/2000/svg" xmlns:xlink="http://www.w3.org/1999/xlink" x="0px" y="0px"
	 viewBox="0 0 512.384 512.384" style="enable-background:new 0 0 512.384 512.384;" xml:space="preserve">
<g>
	<g>
		<g>
			<path d="M486.112,150.268c-7.403-9.152-20.864-10.581-29.995-3.157c-9.173,7.403-10.581,20.821-3.179,29.995
				c10.837,13.397,16.576,29.611,16.576,46.891c0,17.301-5.739,33.515-16.576,46.912c-7.403,9.173-5.995,22.592,3.179,30.016
				c3.925,3.179,8.683,4.736,13.397,4.736c6.229,0,12.395-2.709,16.597-7.915c16.811-20.779,26.069-46.955,26.069-73.749
				C512.181,197.222,502.923,171.046,486.112,150.268z"/>
			<path d="M59.424,270.935c-10.837-13.419-16.555-29.632-16.555-46.912c0-17.301,5.717-33.536,16.555-46.912
				c7.424-9.173,5.995-22.592-3.157-30.016c-9.152-7.403-22.613-5.973-30.016,3.179C9.44,171.031,0.203,197.229,0.203,224.023
				c0,26.752,9.237,52.928,26.005,73.707c4.245,5.227,10.411,7.936,16.64,7.936c4.693,0,9.429-1.536,13.376-4.736
				C65.376,293.527,66.827,280.087,59.424,270.935z"/>
			<path d="M451.535,362.965c-15.147-11.712-25.003-75.541-24.704-127.915v-64C426.831,76.736,350.287,0,256.164,0
				C162.063,0,85.498,76.736,85.498,171.051v64.043c0.128,52.288-9.92,116.139-25.024,127.829
				c-7.872,6.037-11.563,16.128-9.451,25.685c2.112,9.536,9.387,16.811,19.264,19.029c26.539,5.611,53.461,9.771,80.512,12.928
				c7.317,51.733,51.456,91.819,105.173,91.819s97.856-40.085,105.152-91.819c27.157-3.179,54.144-7.36,80.811-12.992
				c9.579-2.133,16.853-9.408,18.944-18.923C463.012,379.093,459.343,369.024,451.535,362.965z M170.639,192.384
				c-11.797,0-21.333-9.557-21.333-21.333c0-58.816,47.851-106.667,106.667-106.667c11.776,0,21.333,9.536,21.333,21.333
				c0,11.776-9.557,21.333-21.333,21.333c-35.307,0-64,28.693-64,64C191.972,182.827,182.415,192.384,170.639,192.384z
				 M255.972,469.717c-28.757,0-53.141-19.072-61.184-44.907c1.728,0.128,3.456,0.064,5.184,0.171
				c18.496,1.152,37.013,1.899,55.552,1.899h1.259c18.197-0.021,36.373-0.747,54.528-1.856c1.899-0.107,3.819-0.064,5.739-0.192
				C308.9,450.816,284.602,469.717,255.972,469.717z"/>
		</g>
	</g>
</g>
<g>
</g>
<g>
</g>
<g>
</g>
<g>
</g>
<g>
</g>
<g>
</g>
<g>
</g>
<g>
</g>
<g>
</g>
<g>
</g>
<g>
</g>
<g>
</g>
<g>
</g>
<g>
</g>
<g>
</g>
</svg>
