<?xml version="1.0" encoding="iso-8859-1"?>
<!-- Generator: Adobe Illustrator 19.0.0, SVG Export Plug-In . SVG Version: 6.00 Build 0)  -->
<svg version="1.1" id="Capa_1" xmlns="http://www.w3.org/2000/svg" xmlns:xlink="http://www.w3.org/1999/xlink" x="0px" y="0px"
	 viewBox="0 0 512 512" style="enable-background:new 0 0 512 512;" xml:space="preserve">
<g>
	<g>
		<g>
			<path d="M341.333,64c-58.816,0-106.667,47.851-106.667,106.667c0,58.816,47.851,106.667,106.667,106.667
				c58.816,0,106.667-47.851,106.667-106.667C448,111.851,400.149,64,341.333,64z"/>
			<path d="M0,0v512h512V0H0z M341.333,320c-33.493,0-64.32-11.221-89.259-29.909L190.165,352l38.251,38.251
				c8.341,8.341,8.341,21.824,0,30.165c-4.16,4.16-9.621,6.251-15.083,6.251c-5.461,0-10.923-2.091-15.083-6.251L160,382.165
				L126.165,416l44.501,44.501c8.341,8.341,8.341,21.824,0,30.165c-4.16,4.16-9.621,6.251-15.083,6.251
				c-5.461,0-10.923-2.091-15.083-6.251L96,446.165l-23.168,23.168c-4.16,4.16-9.621,6.251-15.083,6.251
				c-5.461,0-10.923-2.091-15.083-6.251c-8.341-8.341-8.341-21.824,0-30.165l179.243-179.243
				C203.221,234.987,192,204.16,192,170.667c0-82.325,67.008-149.333,149.333-149.333s149.333,67.008,149.333,149.333
				S423.659,320,341.333,320z"/>
		</g>
	</g>
</g>
<g>
</g>
<g>
</g>
<g>
</g>
<g>
</g>
<g>
</g>
<g>
</g>
<g>
</g>
<g>
</g>
<g>
</g>
<g>
</g>
<g>
</g>
<g>
</g>
<g>
</g>
<g>
</g>
<g>
</g>
</svg>
