<?xml version="1.0" encoding="iso-8859-1"?>
<!-- Generator: Adobe Illustrator 19.0.0, SVG Export Plug-In . SVG Version: 6.00 Build 0)  -->
<svg version="1.1" id="Capa_1" xmlns="http://www.w3.org/2000/svg" xmlns:xlink="http://www.w3.org/1999/xlink" x="0px" y="0px"
	 viewBox="0 0 512 512" style="enable-background:new 0 0 512 512;" xml:space="preserve">
<g>
	<g>
		<g>
			<path d="M106.667,170.667c-11.776,0-21.333,9.557-21.333,21.333s9.557,21.333,21.333,21.333S128,203.776,128,192
				S118.443,170.667,106.667,170.667z"/>
			<path d="M192,170.667c-11.776,0-21.333,9.557-21.333,21.333s9.557,21.333,21.333,21.333s21.333-9.557,21.333-21.333
				S203.776,170.667,192,170.667z"/>
			<path d="M405.333,213.333c11.776,0,21.333-9.557,21.333-21.333s-9.557-21.333-21.333-21.333S384,180.224,384,192
				S393.557,213.333,405.333,213.333z"/>
			<path d="M490.667,106.667h-85.333V21.333C405.333,9.536,395.797,0,384,0H128c-11.797,0-21.333,9.536-21.333,21.333v85.333H21.333
				C9.536,106.667,0,116.203,0,128v149.333v128c0,11.797,9.536,21.333,21.333,21.333h85.333v64c0,11.797,9.536,21.333,21.333,21.333
				h256c11.797,0,21.333-9.536,21.333-21.333v-64h85.333c11.797,0,21.333-9.536,21.333-21.333v-128V128
				C512,116.203,502.464,106.667,490.667,106.667z M298.667,448h-85.333C201.536,448,192,438.464,192,426.667
				s9.536-21.333,21.333-21.333h85.333c11.797,0,21.333,9.536,21.333,21.333S310.464,448,298.667,448z M298.667,362.667h-85.333
				c-11.797,0-21.333-9.536-21.333-21.333c0-11.797,9.536-21.333,21.333-21.333h85.333c11.797,0,21.333,9.536,21.333,21.333
				C320,353.131,310.464,362.667,298.667,362.667z M469.333,256H384H128H42.667V149.333H128h256h85.333V256z"/>
		</g>
	</g>
</g>
<g>
</g>
<g>
</g>
<g>
</g>
<g>
</g>
<g>
</g>
<g>
</g>
<g>
</g>
<g>
</g>
<g>
</g>
<g>
</g>
<g>
</g>
<g>
</g>
<g>
</g>
<g>
</g>
<g>
</g>
</svg>
