<?xml version="1.0" encoding="iso-8859-1"?>
<!-- Generator: Adobe Illustrator 19.0.0, SVG Export Plug-In . SVG Version: 6.00 Build 0)  -->
<svg version="1.1" id="Capa_1" xmlns="http://www.w3.org/2000/svg" xmlns:xlink="http://www.w3.org/1999/xlink" x="0px" y="0px"
	 viewBox="0 0 512 512" style="enable-background:new 0 0 512 512;" xml:space="preserve">
<g>
	<g>
		<path d="M490.667,149.333h-85.333v-128C405.333,9.536,395.797,0,384,0H128c-11.797,0-21.333,9.536-21.333,21.333v128H21.333
			C9.536,149.333,0,158.869,0,170.667v106.667v128c0,11.797,9.536,21.333,21.333,21.333h85.333v64
			c0,11.797,9.536,21.333,21.333,21.333h256c11.797,0,21.333-9.536,21.333-21.333v-64h85.333c11.797,0,21.333-9.536,21.333-21.333
			v-128V170.667C512,158.869,502.464,149.333,490.667,149.333z M298.667,64H320c11.797,0,21.333,9.536,21.333,21.333
			c0,11.797-9.536,21.333-21.333,21.333h-21.333c-11.797,0-21.333-9.536-21.333-21.333C277.333,73.536,286.869,64,298.667,64z
			 M192,85.333h21.333c11.797,0,21.333,9.536,21.333,21.333c0,11.797-9.536,21.333-21.333,21.333H192
			c-11.797,0-21.333-9.536-21.333-21.333C170.667,94.869,180.203,85.333,192,85.333z M298.667,448h-85.333
			C201.536,448,192,438.464,192,426.667s9.536-21.333,21.333-21.333h85.333c11.797,0,21.333,9.536,21.333,21.333
			S310.464,448,298.667,448z M298.667,362.667h-85.333c-11.797,0-21.333-9.536-21.333-21.333c0-11.797,9.536-21.333,21.333-21.333
			h85.333c11.797,0,21.333,9.536,21.333,21.333C320,353.131,310.464,362.667,298.667,362.667z M469.333,256H384H128H42.667v-64H128
			h256h85.333V256z"/>
	</g>
</g>
<g>
</g>
<g>
</g>
<g>
</g>
<g>
</g>
<g>
</g>
<g>
</g>
<g>
</g>
<g>
</g>
<g>
</g>
<g>
</g>
<g>
</g>
<g>
</g>
<g>
</g>
<g>
</g>
<g>
</g>
</svg>
