<?xml version="1.0" encoding="iso-8859-1"?>
<!-- Generator: Adobe Illustrator 19.0.0, SVG Export Plug-In . SVG Version: 6.00 Build 0)  -->
<svg version="1.1" id="Capa_1" xmlns="http://www.w3.org/2000/svg" xmlns:xlink="http://www.w3.org/1999/xlink" x="0px" y="0px"
	 viewBox="0 0 512 512" style="enable-background:new 0 0 512 512;" xml:space="preserve">
<g>
	<g>
		<path d="M486.997,24.597c-32.213-32.256-88.448-32.256-120.661,0c-8.341,8.32-8.341,21.824,0,30.165l30.165,30.165l-20.864,20.864
			c-27.605-22.08-61.333-36.843-98.304-40.939v62.741c0,11.797-9.536,21.333-21.333,21.333s-21.333-9.536-21.333-21.333V64.853
			c-36.971,4.096-70.699,18.859-98.304,40.939l-20.864-20.864l30.165-30.165c8.341-8.341,8.341-21.845,0-30.165
			c-32.213-32.256-88.448-32.256-120.661,0C8.875,40.704,0,62.144,0,84.928s8.875,44.224,25.003,60.331
			c4.16,4.16,9.621,6.251,15.083,6.251c5.461,0,10.923-2.091,15.083-6.251l30.165-30.165l20.864,20.864
			c-22.08,27.605-36.821,61.333-40.939,98.304H128c11.797,0,21.333,9.536,21.333,21.333s-9.536,21.333-21.333,21.333H65.259
			c5.845,52.523,33.024,98.581,72.555,129.6l-67.691,68.779c-8.277,8.384-8.149,21.888,0.256,30.165
			c4.139,4.075,9.557,6.123,14.955,6.123c5.525,0,11.029-2.133,15.211-6.379l74.517-75.733c18.496,8.64,38.507,14.507,59.605,16.853
			v-62.741c0-11.797,9.536-21.333,21.333-21.333s21.333,9.536,21.333,21.333v62.741c21.163-2.347,41.259-8.256,59.797-16.939
			l74.304,75.797c4.16,4.245,9.707,6.4,15.232,6.4c5.397,0,10.795-2.027,14.933-6.101c8.427-8.256,8.555-21.76,0.299-30.165
			L374.336,406.4c39.445-31.019,66.581-77.013,72.405-129.472H384c-11.797,0-21.333-9.536-21.333-21.333s9.536-21.333,21.333-21.333
			h62.741c-4.117-36.971-18.859-70.699-40.939-98.304l20.864-20.864l30.165,30.165c4.16,4.16,9.621,6.251,15.083,6.251
			c5.461,0,10.923-2.091,15.083-6.251C503.125,129.152,512,107.712,512,84.928S503.125,40.704,486.997,24.597z M277.333,255.595
			c0,11.797-9.536,21.333-21.333,21.333h-42.667c-11.797,0-21.333-9.536-21.333-21.333s9.536-21.333,21.333-21.333h21.333v-42.667
			c0-11.797,9.536-21.333,21.333-21.333s21.333,9.536,21.333,21.333V255.595z"/>
	</g>
</g>
<g>
</g>
<g>
</g>
<g>
</g>
<g>
</g>
<g>
</g>
<g>
</g>
<g>
</g>
<g>
</g>
<g>
</g>
<g>
</g>
<g>
</g>
<g>
</g>
<g>
</g>
<g>
</g>
<g>
</g>
</svg>
