<?xml version="1.0" encoding="iso-8859-1"?>
<!-- Generator: Adobe Illustrator 19.0.0, SVG Export Plug-In . SVG Version: 6.00 Build 0)  -->
<svg version="1.1" id="Capa_1" xmlns="http://www.w3.org/2000/svg" xmlns:xlink="http://www.w3.org/1999/xlink" x="0px" y="0px"
	 viewBox="0 0 509.824 509.824" style="enable-background:new 0 0 509.824 509.824;" xml:space="preserve">
<g>
	<g>
		<g>
			<path d="M254.912,233.579c-11.776,0-21.333,9.557-21.333,21.333c0,11.776,9.557,21.333,21.333,21.333
				c11.776,0,21.333-9.557,21.333-21.333C276.245,243.136,266.688,233.579,254.912,233.579z"/>
			<path d="M404.245,254.912c0-11.797,9.536-21.333,21.333-21.333h84.245C499.52,109.44,400.384,10.304,276.245,0v84.245
				c0,11.797-9.536,21.333-21.333,21.333c-11.797,0-21.333-9.536-21.333-21.333V0C109.44,10.304,10.304,109.44,0,233.579h84.245
				c11.797,0,21.333,9.536,21.333,21.333c0,11.797-9.536,21.333-21.333,21.333H0C10.304,400.384,109.44,499.52,233.579,509.824
				v-84.245c0-11.797,9.536-21.333,21.333-21.333c11.797,0,21.333,9.536,21.333,21.333v84.245
				c124.139-10.304,223.275-109.44,233.579-233.579h-84.245C413.781,276.245,404.245,266.709,404.245,254.912z M254.912,318.912
				c-27.776,0-51.243-17.899-60.075-42.667h-25.259c-11.797,0-21.333-9.536-21.333-21.333c0-11.797,9.536-21.333,21.333-21.333
				h25.259c6.443-18.069,20.672-32.299,38.741-38.741v-46.592c0-11.797,9.536-21.333,21.333-21.333
				c11.797,0,21.333,9.536,21.333,21.333v46.592c24.768,8.832,42.667,32.299,42.667,60.075
				C318.912,290.197,290.197,318.912,254.912,318.912z"/>
		</g>
	</g>
</g>
<g>
</g>
<g>
</g>
<g>
</g>
<g>
</g>
<g>
</g>
<g>
</g>
<g>
</g>
<g>
</g>
<g>
</g>
<g>
</g>
<g>
</g>
<g>
</g>
<g>
</g>
<g>
</g>
<g>
</g>
</svg>
