<?xml version="1.0" encoding="iso-8859-1"?>
<!-- Generator: Adobe Illustrator 19.0.0, SVG Export Plug-In . SVG Version: 6.00 Build 0)  -->
<svg version="1.1" id="Capa_1" xmlns="http://www.w3.org/2000/svg" xmlns:xlink="http://www.w3.org/1999/xlink" x="0px" y="0px"
	 viewBox="0 0 512 512" style="enable-background:new 0 0 512 512;" xml:space="preserve">
<g>
	<g>
		<path d="M277.333,0.544v84.245c0,11.797-9.536,21.333-21.333,21.333s-21.333-9.536-21.333-21.333V0.544
			C103.467,11.424,0,121.483,0,255.456c0,141.163,114.837,256,256,256s256-114.837,256-256
			C512,121.483,408.533,11.424,277.333,0.544z M271.083,270.539c-4.16,4.16-9.621,6.251-15.083,6.251s-10.923-2.091-15.083-6.251
			l-85.333-85.333c-8.341-8.341-8.341-21.824,0-30.165c8.341-8.341,21.824-8.341,30.165,0l85.333,85.333
			C279.424,248.715,279.424,262.197,271.083,270.539z"/>
	</g>
</g>
<g>
</g>
<g>
</g>
<g>
</g>
<g>
</g>
<g>
</g>
<g>
</g>
<g>
</g>
<g>
</g>
<g>
</g>
<g>
</g>
<g>
</g>
<g>
</g>
<g>
</g>
<g>
</g>
<g>
</g>
</svg>
