<?xml version="1.0" encoding="iso-8859-1"?>
<!-- Generator: Adobe Illustrator 19.0.0, SVG Export Plug-In . SVG Version: 6.00 Build 0)  -->
<svg version="1.1" id="Capa_1" xmlns="http://www.w3.org/2000/svg" xmlns:xlink="http://www.w3.org/1999/xlink" x="0px" y="0px"
	 viewBox="0 0 510.912 510.912" style="enable-background:new 0 0 510.912 510.912;" xml:space="preserve">
<g>
	<g>
		<path d="M383.456,298.667c0-11.797,9.536-21.333,21.333-21.333h62.912c-5.333-53.397-30.571-100.928-67.989-135.424l41.429-41.429
			c8.341-8.341,8.341-21.845,0-30.165c-8.341-8.341-21.824-8.341-30.165,0l-45.653,45.653
			c-14.293-8.619-29.675-15.509-45.867-20.608V21.333C319.456,9.536,309.92,0,298.123,0h-85.333
			c-11.797,0-21.333,9.536-21.333,21.333v73.941c-42.816,13.547-79.787,40.277-106.261,75.392h42.261
			c11.797,0,21.333,9.536,21.333,21.333s-9.536,21.333-21.333,21.333h-64c-1.088,0-2.048-0.469-3.093-0.619
			c-8.896,20.117-14.891,41.813-17.152,64.619h84.245c11.797,0,21.333,9.536,21.333,21.333c0,11.797-9.536,21.333-21.333,21.333
			H43.211c2.261,22.805,8.256,44.501,17.152,64.619c1.045-0.149,2.005-0.619,3.093-0.619h64c11.797,0,21.333,9.536,21.333,21.333
			c0,11.797-9.536,21.333-21.333,21.333H85.195c34.944,46.357,88.128,78.187,148.928,84.245V448
			c0-11.797,9.536-21.333,21.333-21.333c11.797,0,21.333,9.536,21.333,21.333v62.912C377.419,500.864,457.653,420.629,467.701,320
			h-62.912C392.992,320,383.456,310.464,383.456,298.667z M234.123,86.421V42.667h42.667v43.755v0.043
			c-7.168-0.747-14.293-1.131-21.333-1.131c-7.04,0-14.165,0.384-21.333,1.131V86.421z M234.123,129.536
			c14.272-1.856,28.395-1.856,42.667,0v19.797c0,11.797-9.536,21.333-21.333,21.333c-11.797,0-21.333-9.536-21.333-21.333V129.536z
			 M334.539,249.749l-64,64c-4.16,4.16-9.621,6.251-15.083,6.251c-5.461,0-10.923-2.091-15.083-6.251
			c-8.341-8.341-8.341-21.824,0-30.165l64-64c8.341-8.341,21.824-8.341,30.165,0C342.88,227.925,342.88,241.408,334.539,249.749z"/>
	</g>
</g>
<g>
</g>
<g>
</g>
<g>
</g>
<g>
</g>
<g>
</g>
<g>
</g>
<g>
</g>
<g>
</g>
<g>
</g>
<g>
</g>
<g>
</g>
<g>
</g>
<g>
</g>
<g>
</g>
<g>
</g>
</svg>
