<?xml version="1.0" encoding="iso-8859-1"?>
<!-- Generator: Adobe Illustrator 19.0.0, SVG Export Plug-In . SVG Version: 6.00 Build 0)  -->
<svg version="1.1" id="Capa_1" xmlns="http://www.w3.org/2000/svg" xmlns:xlink="http://www.w3.org/1999/xlink" x="0px" y="0px"
	 viewBox="0 0 512 512" style="enable-background:new 0 0 512 512;" xml:space="preserve">
<g>
	<g>
		<g>
			<rect x="277.333" y="320" width="106.667" height="42.667"/>
			<path d="M490.667,85.333H205.184L189.76,54.464c-3.627-7.232-11.008-11.797-19.093-11.797H21.333C9.557,42.667,0,52.203,0,64v384
				c0,11.797,9.557,21.333,21.333,21.333h469.333c11.776,0,21.333-9.536,21.333-21.333V192v-85.333
				C512,94.869,502.443,85.333,490.667,85.333z M426.667,384c0,11.797-9.557,21.333-21.333,21.333H256
				c-11.776,0-21.333-9.536-21.333-21.333v-85.333c0-11.797,9.557-21.333,21.333-21.333h149.333
				c11.776,0,21.333,9.536,21.333,21.333V384z M469.333,170.667H247.851L226.517,128h242.816V170.667z"/>
		</g>
	</g>
</g>
<g>
</g>
<g>
</g>
<g>
</g>
<g>
</g>
<g>
</g>
<g>
</g>
<g>
</g>
<g>
</g>
<g>
</g>
<g>
</g>
<g>
</g>
<g>
</g>
<g>
</g>
<g>
</g>
<g>
</g>
</svg>
