<?xml version="1.0" encoding="iso-8859-1"?>
<!-- Generator: Adobe Illustrator 19.0.0, SVG Export Plug-In . SVG Version: 6.00 Build 0)  -->
<svg version="1.1" id="Capa_1" xmlns="http://www.w3.org/2000/svg" xmlns:xlink="http://www.w3.org/1999/xlink" x="0px" y="0px"
	 viewBox="0 0 512 512" style="enable-background:new 0 0 512 512;" xml:space="preserve">
<g>
	<g>
		<path d="M490.667,74.667H205.184L189.76,43.797C186.133,36.565,178.752,32,170.667,32H21.333C9.557,32,0,41.536,0,53.333v405.333
			C0,470.464,9.557,480,21.333,480h469.333c11.797,0,21.333-9.536,21.333-21.333V181.333V96
			C512,84.203,502.464,74.667,490.667,74.667z M320,373.333H192c-11.776,0-21.333-9.536-21.333-21.333s9.557-21.333,21.333-21.333
			h128c11.776,0,21.333,9.536,21.333,21.333S331.776,373.333,320,373.333z M320,288H192c-11.776,0-21.333-9.536-21.333-21.333
			c0-11.797,9.557-21.333,21.333-21.333h128c11.776,0,21.333,9.536,21.333,21.333C341.333,278.464,331.776,288,320,288z
			 M469.333,160H247.851l-21.333-42.667h242.816V160z"/>
	</g>
</g>
<g>
</g>
<g>
</g>
<g>
</g>
<g>
</g>
<g>
</g>
<g>
</g>
<g>
</g>
<g>
</g>
<g>
</g>
<g>
</g>
<g>
</g>
<g>
</g>
<g>
</g>
<g>
</g>
<g>
</g>
</svg>
