<?xml version="1.0" encoding="iso-8859-1"?>
<!-- Generator: Adobe Illustrator 19.0.0, SVG Export Plug-In . SVG Version: 6.00 Build 0)  -->
<svg version="1.1" id="Capa_1" xmlns="http://www.w3.org/2000/svg" xmlns:xlink="http://www.w3.org/1999/xlink" x="0px" y="0px"
	 viewBox="0 0 511.996 511.996" style="enable-background:new 0 0 511.996 511.996;" xml:space="preserve">
<g>
	<g>
		<g>
			<path d="M506.857,242.106c-4.032-4.736-9.963-7.445-16.192-7.445H21.331c-6.229,0-12.139,2.709-16.192,7.445
				c-4.053,4.736-5.845,10.987-4.885,17.152L42.92,493.924c1.6,10.389,10.56,18.069,21.077,18.069h384
				c10.517,0,19.477-7.68,21.077-18.069l42.667-234.667C512.702,253.092,510.91,246.842,506.857,242.106z"/>
			<path d="M64.002,213.335h384c11.797,0,21.333-9.536,21.333-21.333v-42.667H42.669v42.667
				C42.669,203.799,52.205,213.335,64.002,213.335z"/>
			<path d="M469.335,64.002c0-11.797-9.536-21.333-21.333-21.333H226.455l-15.403-30.485c-3.627-7.147-10.944-11.691-18.965-11.712
				l-128-0.469h-0.085c-5.653,0-11.072,2.219-15.061,6.229c-4.032,3.989-6.272,9.429-6.272,15.104v85.333h426.667V64.002z"/>
		</g>
	</g>
</g>
<g>
</g>
<g>
</g>
<g>
</g>
<g>
</g>
<g>
</g>
<g>
</g>
<g>
</g>
<g>
</g>
<g>
</g>
<g>
</g>
<g>
</g>
<g>
</g>
<g>
</g>
<g>
</g>
<g>
</g>
</svg>
