<?xml version="1.0" encoding="iso-8859-1"?>
<!-- Generator: Adobe Illustrator 19.0.0, SVG Export Plug-In . SVG Version: 6.00 Build 0)  -->
<svg version="1.1" id="Capa_1" xmlns="http://www.w3.org/2000/svg" xmlns:xlink="http://www.w3.org/1999/xlink" x="0px" y="0px"
	 viewBox="0 0 511.996 511.996" style="enable-background:new 0 0 511.996 511.996;" xml:space="preserve">
<g>
	<g>
		<g>
			<polygon points="26.005,373.329 485.995,373.329 492.565,330.662 19.435,330.662 			"/>
			<path d="M506.857,188.772c-4.053-4.736-9.963-7.445-16.192-7.445h-21.333V74.66c0-11.797-9.536-21.333-21.333-21.333H226.451
				l-15.403-30.485c-3.627-7.147-10.944-11.669-18.965-11.691l-128-0.491h-0.085c-5.653,0-11.072,2.24-15.061,6.229
				c-4.032,4.011-6.272,9.429-6.272,15.104v149.333H21.331c-6.229,0-12.139,2.709-16.192,7.445
				c-4.053,4.715-5.845,10.965-4.885,17.131l12.629,82.091h486.229l12.629-82.091C512.702,199.738,510.91,193.487,506.857,188.772z
				 M426.665,181.327H85.331V53.412l93.525,0.363l15.424,30.507c3.627,7.189,11.008,11.712,19.051,11.712h213.333V181.327z"/>
			<path d="M42.914,483.245c1.6,10.389,10.56,18.091,21.077,18.091h384c10.517,0,19.477-7.701,21.099-18.091l10.347-67.243H32.567
				L42.914,483.245z"/>
		</g>
	</g>
</g>
<g>
</g>
<g>
</g>
<g>
</g>
<g>
</g>
<g>
</g>
<g>
</g>
<g>
</g>
<g>
</g>
<g>
</g>
<g>
</g>
<g>
</g>
<g>
</g>
<g>
</g>
<g>
</g>
<g>
</g>
</svg>
