<?xml version="1.0" encoding="iso-8859-1"?>
<!-- Generator: Adobe Illustrator 19.0.0, SVG Export Plug-In . SVG Version: 6.00 Build 0)  -->
<svg version="1.1" id="Capa_1" xmlns="http://www.w3.org/2000/svg" xmlns:xlink="http://www.w3.org/1999/xlink" x="0px" y="0px"
	 viewBox="0 0 511.996 511.996" style="enable-background:new 0 0 511.996 511.996;" xml:space="preserve">
<g>
	<g>
		<g>
			<rect x="255.998" y="351.998" width="106.667" height="42.667"/>
			<path d="M506.857,188.777c-4.053-4.736-9.963-7.445-16.192-7.445h-21.333V74.665c0-11.797-9.536-21.333-21.333-21.333H226.451
				l-15.403-30.485c-3.627-7.147-10.944-11.691-18.965-11.712l-128-0.469h-0.085c-5.653,0-11.072,2.219-15.061,6.229
				c-4.032,3.989-6.272,9.429-6.272,15.104v149.333H21.331c-6.229,0-12.139,2.709-16.192,7.445
				c-4.053,4.715-5.845,10.965-4.885,17.131L42.92,483.241c1.6,10.411,10.56,18.091,21.077,18.091h384
				c10.517,0,19.477-7.68,21.077-18.091l42.667-277.333C512.702,199.742,510.91,193.491,506.857,188.777z M405.331,415.998
				c0,11.797-9.536,21.333-21.333,21.333H234.665c-11.797,0-21.333-9.536-21.333-21.333v-85.333
				c0-11.797,9.536-21.333,21.333-21.333h149.333c11.797,0,21.333,9.536,21.333,21.333V415.998z M426.665,181.331H85.331V53.416
				l93.525,0.363l15.424,30.507c3.627,7.189,11.008,11.712,19.051,11.712h213.333V181.331z"/>
		</g>
	</g>
</g>
<g>
</g>
<g>
</g>
<g>
</g>
<g>
</g>
<g>
</g>
<g>
</g>
<g>
</g>
<g>
</g>
<g>
</g>
<g>
</g>
<g>
</g>
<g>
</g>
<g>
</g>
<g>
</g>
<g>
</g>
</svg>
