<?xml version="1.0" encoding="iso-8859-1"?>
<!-- Generator: Adobe Illustrator 19.0.0, SVG Export Plug-In . SVG Version: 6.00 Build 0)  -->
<svg version="1.1" id="Capa_1" xmlns="http://www.w3.org/2000/svg" xmlns:xlink="http://www.w3.org/1999/xlink" x="0px" y="0px"
	 viewBox="0 0 512.002 512.002" style="enable-background:new 0 0 512.002 512.002;" xml:space="preserve">
<g>
	<g>
		<path d="M507.989,190.188c-4.032-5.568-10.475-8.853-17.323-8.853h-21.333v-64c0-11.797-9.557-21.333-21.333-21.333H264.832
			l-57.749-57.749c-3.989-4.011-9.429-6.251-15.083-6.251H21.333C9.557,32.001,0,41.537,0,53.334v405.333
			c0,0.32,0.149,0.597,0.171,0.917c0.085,1.984,0.405,3.925,1.045,5.803c0.107,0.32,0.149,0.661,0.256,0.981
			c0.661,1.664,1.493,3.285,2.56,4.779c0.213,0.299,0.512,0.512,0.725,0.789c0.341,0.427,0.725,0.789,1.088,1.195
			c1.259,1.344,2.667,2.517,4.203,3.477c0.363,0.235,0.683,0.512,1.067,0.725c1.941,1.045,4.032,1.771,6.208,2.197
			c0.213,0.021,0.384,0.171,0.597,0.192c1.131,0.192,2.261,0.277,3.392,0.277h0.021h384c9.195,0,17.344-5.867,20.245-14.592
			l85.312-256C513.088,202.924,511.979,195.756,507.989,190.188z M64,160.001V263.19l-21.333,64V74.668h140.501l21.333,21.333
			h-77.248c-5.717,0-11.2,2.283-15.211,6.379l-41.92,42.667C66.197,149.036,64,154.412,64,160.001z M426.667,181.334h-320v-12.608
			l29.547-30.059H256h170.667V181.334z"/>
	</g>
</g>
<g>
</g>
<g>
</g>
<g>
</g>
<g>
</g>
<g>
</g>
<g>
</g>
<g>
</g>
<g>
</g>
<g>
</g>
<g>
</g>
<g>
</g>
<g>
</g>
<g>
</g>
<g>
</g>
<g>
</g>
</svg>
