<?xml version="1.0" encoding="iso-8859-1"?>
<!-- Generator: Adobe Illustrator 19.0.0, SVG Export Plug-In . SVG Version: 6.00 Build 0)  -->
<svg version="1.1" id="Capa_1" xmlns="http://www.w3.org/2000/svg" xmlns:xlink="http://www.w3.org/1999/xlink" x="0px" y="0px"
	 viewBox="0 0 512.009 512.009" style="enable-background:new 0 0 512.009 512.009;" xml:space="preserve">
<g>
	<g>
		<path d="M508.821,276.804c-3.904-6.293-10.752-10.133-18.155-10.133h-21.333v-42.667H106.667v-42.667h362.667v-64
			c0-11.797-9.536-21.333-21.333-21.333H264.832l-57.749-57.749c-3.989-4.011-9.408-6.251-15.083-6.251H21.333
			C9.536,32.004,0,41.54,0,53.338v405.333c0,0.128,0.064,0.235,0.064,0.363c0.043,2.155,0.405,4.288,1.088,6.357
			c0.171,0.512,0.448,0.96,0.661,1.451c0.427,1.024,0.789,2.069,1.387,3.029c0.256,0.448,0.64,0.768,0.939,1.173
			c0.405,0.576,0.853,1.109,1.323,1.643c1.024,1.152,2.155,2.176,3.413,3.072c0.491,0.363,0.917,0.768,1.451,1.088
			c1.835,1.109,3.776,1.984,5.888,2.496c0.085,0.021,0.149,0.085,0.235,0.107c1.621,0.363,3.264,0.555,4.885,0.555h384
			c8.085,0,15.467-4.565,19.093-11.797L509.76,297.54C513.067,290.948,512.704,283.098,508.821,276.804z M42.667,74.671h140.501
			l21.333,21.333h-77.227c-5.739,0-11.2,2.283-15.211,6.379L70.123,145.05C66.197,149.039,64,154.394,64,160.004v21.333v42.667
			v101.632l-21.333,42.667V74.671z M392.149,437.338H55.851l48.576-97.131l15.424-30.869H448h8.149L392.149,437.338z"/>
	</g>
</g>
<g>
</g>
<g>
</g>
<g>
</g>
<g>
</g>
<g>
</g>
<g>
</g>
<g>
</g>
<g>
</g>
<g>
</g>
<g>
</g>
<g>
</g>
<g>
</g>
<g>
</g>
<g>
</g>
<g>
</g>
</svg>
