<?xml version="1.0" encoding="iso-8859-1"?>
<!-- Generator: Adobe Illustrator 19.0.0, SVG Export Plug-In . SVG Version: 6.00 Build 0)  -->
<svg version="1.1" id="Capa_1" xmlns="http://www.w3.org/2000/svg" xmlns:xlink="http://www.w3.org/1999/xlink" x="0px" y="0px"
	 viewBox="0 0 512 512" style="enable-background:new 0 0 512 512;" xml:space="preserve">
<g>
	<g>
		<path d="M507.972,222.187c-4.011-5.568-10.453-8.853-17.301-8.853h-21.333v-64c0-11.797-9.557-21.333-21.333-21.333h-42.667
			V21.333C405.337,9.536,395.78,0,384.004,0H106.671C94.874,0,85.337,9.536,85.337,21.333V64h-64C9.54,64,0.004,73.536,0.004,85.333
			v405.333c0,0.32,0.149,0.597,0.149,0.917c0.085,2.005,0.427,3.968,1.067,5.867c0.107,0.299,0.128,0.597,0.256,0.896
			c0.64,1.685,1.472,3.307,2.539,4.8c0.235,0.299,0.533,0.533,0.768,0.832c0.32,0.405,0.683,0.747,1.045,1.131
			c1.259,1.344,2.667,2.539,4.224,3.52c0.363,0.213,0.683,0.491,1.067,0.704c1.92,1.045,4.011,1.771,6.208,2.197
			c0.213,0.021,0.384,0.171,0.597,0.192c1.109,0.192,2.24,0.277,3.371,0.277h0.043h384c9.173,0,17.323-5.867,20.224-14.592
			l85.333-256C513.071,234.923,511.983,227.755,507.972,222.187z M192.004,85.333h106.667c11.776,0,21.333,9.536,21.333,21.333
			c0,11.797-9.557,21.333-21.333,21.333H192.004c-11.797,0-21.333-9.536-21.333-21.333
			C170.671,94.869,180.207,85.333,192.004,85.333z M192.004,149.333h106.667c11.776,0,21.333,9.536,21.333,21.333
			c0,11.797-9.557,21.333-21.333,21.333H192.004c-11.797,0-21.333-9.536-21.333-21.333
			C170.671,158.869,180.207,149.333,192.004,149.333z M42.671,106.667h42.667v124.544l-42.667,128V106.667z M389.956,469.333H50.927
			L122.031,256h261.973h64h13.056L389.956,469.333z"/>
	</g>
</g>
<g>
</g>
<g>
</g>
<g>
</g>
<g>
</g>
<g>
</g>
<g>
</g>
<g>
</g>
<g>
</g>
<g>
</g>
<g>
</g>
<g>
</g>
<g>
</g>
<g>
</g>
<g>
</g>
<g>
</g>
</svg>
