<?xml version="1.0" encoding="iso-8859-1"?>
<!-- Generator: Adobe Illustrator 19.0.0, SVG Export Plug-In . SVG Version: 6.00 Build 0)  -->
<svg version="1.1" id="Capa_1" xmlns="http://www.w3.org/2000/svg" xmlns:xlink="http://www.w3.org/1999/xlink" x="0px" y="0px"
	 viewBox="0 0 512 512" style="enable-background:new 0 0 512 512;" xml:space="preserve">
<g>
	<g>
		<g>
			<path d="M490.667,74.667H237.184l-26.091-52.203c-3.627-7.232-11.008-11.797-19.093-11.797H21.333C9.536,10.667,0,20.203,0,32
				v448c0,11.797,9.536,21.333,21.333,21.333h469.333c11.797,0,21.333-9.536,21.333-21.333V160V96
				C512,84.203,502.464,74.667,490.667,74.667z M362.667,416c0,11.797-9.536,21.333-21.333,21.333H170.667
				c-11.797,0-21.333-9.536-21.333-21.333V309.333c0-11.797,9.536-21.333,21.333-21.333h128c0-23.531-19.136-42.667-42.667-42.667
				c-12.117,0-23.723,5.184-31.808,14.229c-7.829,8.811-21.333,9.515-30.123,1.664c-8.768-7.851-9.536-21.355-1.664-30.123
				c16.149-18.069,39.339-28.437,63.595-28.437c47.061,0,85.333,38.272,85.333,85.333c11.797,0,21.333,9.536,21.333,21.333V416z
				 M469.333,138.667H269.184l-10.667-21.333h210.816V138.667z"/>
			<rect x="192" y="330.667" width="128" height="64"/>
		</g>
	</g>
</g>
<g>
</g>
<g>
</g>
<g>
</g>
<g>
</g>
<g>
</g>
<g>
</g>
<g>
</g>
<g>
</g>
<g>
</g>
<g>
</g>
<g>
</g>
<g>
</g>
<g>
</g>
<g>
</g>
<g>
</g>
</svg>
