<?xml version="1.0" encoding="iso-8859-1"?>
<!-- Generator: Adobe Illustrator 19.0.0, SVG Export Plug-In . SVG Version: 6.00 Build 0)  -->
<svg version="1.1" id="Capa_1" xmlns="http://www.w3.org/2000/svg" xmlns:xlink="http://www.w3.org/1999/xlink" x="0px" y="0px"
	 viewBox="0 0 512 512" style="enable-background:new 0 0 512 512;" xml:space="preserve">
<g>
	<g>
		<g>
			<rect x="298.667" y="362.667" width="106.667" height="42.667"/>
			<path d="M490.667,64H288.341L249.109,8.96C245.099,3.328,238.635,0,231.723,0H64C52.203,0,42.667,9.536,42.667,21.333v42.773
				L21.44,64h-0.107c-5.653,0-11.051,2.219-15.04,6.208C2.261,74.219,0,79.659,0,85.333v405.333C0,502.464,9.536,512,21.333,512
				h469.333c11.797,0,21.333-9.536,21.333-21.333V149.333v-64C512,73.536,502.464,64,490.667,64z M448,426.667
				c0,11.797-9.536,21.333-21.333,21.333H277.333C265.536,448,256,438.464,256,426.667v-85.333c0-11.797,9.536-21.333,21.333-21.333
				h149.333c11.797,0,21.333,9.536,21.333,21.333V426.667z M469.333,128H224.683l-36.331-53.867
				c-3.925-5.845-10.517-9.365-17.579-9.408l-85.44-0.405V42.667h135.403l39.232,55.04c3.989,5.632,10.475,8.96,17.365,8.96h192V128
				z"/>
		</g>
	</g>
</g>
<g>
</g>
<g>
</g>
<g>
</g>
<g>
</g>
<g>
</g>
<g>
</g>
<g>
</g>
<g>
</g>
<g>
</g>
<g>
</g>
<g>
</g>
<g>
</g>
<g>
</g>
<g>
</g>
<g>
</g>
</svg>
