<?xml version="1.0" encoding="iso-8859-1"?>
<!-- Generator: Adobe Illustrator 19.0.0, SVG Export Plug-In . SVG Version: 6.00 Build 0)  -->
<svg version="1.1" id="Capa_1" xmlns="http://www.w3.org/2000/svg" xmlns:xlink="http://www.w3.org/1999/xlink" x="0px" y="0px"
	 viewBox="0 0 512 512" style="enable-background:new 0 0 512 512;" xml:space="preserve">
<g>
	<g>
		<g>
			<polygon points="320,12.506 320,128.004 435.499,128.004 			"/>
			<path d="M320,298.673c-11.776,0-21.333,9.557-21.333,21.333S308.224,341.34,320,341.34s21.333-9.557,21.333-21.333
				S331.776,298.673,320,298.673z"/>
			<path d="M167.869,373.996c-0.447,0.248-0.892,0.499-1.341,0.745C167.398,374.836,167.843,374.589,167.869,373.996z"/>
			<path d="M298.667,170.667c-11.797,0-21.333-9.536-21.333-21.333V0h-192C73.536,0,64,9.557,64,21.333v469.333
				C64,502.464,73.536,512,85.333,512h341.333c11.797,0,21.333-9.536,21.333-21.333v-320H298.667z M298.667,192h42.667
				c11.797,0,21.333,9.557,21.333,21.333c0,11.797-9.536,21.333-21.333,21.333h-42.667c-11.797,0-21.333-9.536-21.333-21.333
				C277.333,201.557,286.869,192,298.667,192z M151.552,277.333h61.781c11.797,0,21.333,9.557,21.333,21.333
				c0,11.797-9.536,21.333-21.333,21.333h-61.781c-11.797,0-21.333-9.536-21.333-21.333
				C130.219,286.891,139.755,277.333,151.552,277.333z M135.36,213.333c0-11.776,9.536-21.333,21.333-21.333h56.64
				c11.797,0,21.333,9.557,21.333,21.333c0,11.797-9.536,21.333-21.333,21.333h-56.64
				C144.896,234.667,135.36,225.131,135.36,213.333z M211.989,411.605c-0.32-0.128-0.427-0.107-0.853-0.277
				c-1.92-0.576-3.861-1.067-5.803-1.472c-2.24-0.491-4.523-0.917-6.763-1.152c-1.387-0.149-2.901-0.107-4.416-0.171
				c-0.384,1.003-8.021,3.925-9.685,4.672c-20.181,9.088-43.115,1.003-53.547-18.432c-13.013-24.213,23.851-45.739,36.821-21.525
				c0.094,0.293,0.134,0.541,0.125,0.748c1.764-0.978,3.52-1.967,5.272-2.988c3.307-1.685,6.784-3.413,10.347-4.331
				c6.827-1.749,14.08-0.811,20.928,0.064c14.699,1.856,30.443,4.821,39.253,17.941
				C257.515,405.269,228.949,424.512,211.989,411.605z M234.667,149.333h-77.973c-11.797,0-21.333-9.536-21.333-21.333
				c0-11.776,9.536-21.333,21.333-21.333h77.973c11.797,0,21.333,9.557,21.333,21.333C256,139.797,246.464,149.333,234.667,149.333z
				 M362.667,367.36v44.032c0,13.525-16.341,20.288-25.877,10.731L320,405.333l-16.789,16.789
				c-9.536,9.557-25.877,2.795-25.877-10.731V367.36C264.341,355.627,256,338.837,256,320c0-35.285,28.715-64,64-64s64,28.715,64,64
				C384,338.837,375.659,355.627,362.667,367.36z"/>
		</g>
	</g>
</g>
<g>
</g>
<g>
</g>
<g>
</g>
<g>
</g>
<g>
</g>
<g>
</g>
<g>
</g>
<g>
</g>
<g>
</g>
<g>
</g>
<g>
</g>
<g>
</g>
<g>
</g>
<g>
</g>
<g>
</g>
</svg>
