<?xml version="1.0" encoding="iso-8859-1"?>
<!-- Generator: Adobe Illustrator 19.0.0, SVG Export Plug-In . SVG Version: 6.00 Build 0)  -->
<svg version="1.1" id="Capa_1" xmlns="http://www.w3.org/2000/svg" xmlns:xlink="http://www.w3.org/1999/xlink" x="0px" y="0px"
	 viewBox="0 0 512 512" style="enable-background:new 0 0 512 512;" xml:space="preserve">
<g>
	<g>
		<g>
			<path d="M330.667,256c-11.797,0-21.333-9.536-21.333-21.333V128h12.501L352,158.165v55.168h115.499L416,161.835V21.333
				C416,9.536,406.464,0,394.667,0H53.333C41.536,0,32,9.536,32,21.333v405.333C32,438.464,41.536,448,53.333,448h64v42.667
				c0,11.797,9.536,21.333,21.333,21.333h268.501l-97.429-97.429c-12.693,7.509-27.285,12.096-43.072,12.096
				c-47.061,0-85.333-38.272-85.333-85.333S219.605,256,266.667,256S352,294.272,352,341.333c0,15.787-4.587,30.379-12.096,43.072
				l126.123,126.101c8.128-3.008,13.973-10.667,13.973-19.84V256H330.667z M138.667,85.333c-11.797,0-21.333,9.536-21.333,21.333
				v298.667H74.667V42.667h298.667v76.501L352,97.835l-6.251-6.251c-3.989-4.011-9.408-6.251-15.083-6.251h-21.333H138.667z"/>
			<path d="M224,341.333C224,364.864,243.136,384,266.667,384c23.531,0,42.667-19.136,42.667-42.667
				c0-23.531-19.136-42.667-42.667-42.667C243.136,298.667,224,317.803,224,341.333z"/>
		</g>
	</g>
</g>
<g>
</g>
<g>
</g>
<g>
</g>
<g>
</g>
<g>
</g>
<g>
</g>
<g>
</g>
<g>
</g>
<g>
</g>
<g>
</g>
<g>
</g>
<g>
</g>
<g>
</g>
<g>
</g>
<g>
</g>
</svg>
