<?xml version="1.0" encoding="iso-8859-1"?>
<!-- Generator: Adobe Illustrator 19.0.0, SVG Export Plug-In . SVG Version: 6.00 Build 0)  -->
<svg version="1.1" id="Capa_1" xmlns="http://www.w3.org/2000/svg" xmlns:xlink="http://www.w3.org/1999/xlink" x="0px" y="0px"
	 viewBox="0 0 512.798 512.798" style="enable-background:new 0 0 512.798 512.798;" xml:space="preserve">
<g>
	<g>
		<g>
			<path d="M320.399,42.667h-64V21.333C256.399,9.536,246.863,0,235.066,0h-128C95.268,0,85.732,9.536,85.732,21.333v21.333h-64
				C9.935,42.667,0.399,52.203,0.399,64v426.667C0.399,502.464,9.935,512,21.732,512h298.667c11.797,0,21.333-9.536,21.333-21.333
				V64C341.732,52.203,332.196,42.667,320.399,42.667z M128.399,64V42.667h85.333V64v21.333h-85.333V64z M85.732,192h21.333
				c11.797,0,21.333,9.536,21.333,21.333c0,11.797-9.536,21.333-21.333,21.333H85.732c-11.797,0-21.333-9.536-21.333-21.333
				C64.399,201.536,73.935,192,85.732,192z M85.732,277.333h85.333c11.797,0,21.333,9.536,21.333,21.333
				c0,11.797-9.536,21.333-21.333,21.333H85.732c-11.797,0-21.333-9.536-21.333-21.333
				C64.399,286.869,73.935,277.333,85.732,277.333z M128.399,405.333H85.732c-11.797,0-21.333-9.536-21.333-21.333
				c0-11.797,9.536-21.333,21.333-21.333h42.667c11.797,0,21.333,9.536,21.333,21.333
				C149.732,395.797,140.196,405.333,128.399,405.333z M256.399,405.333h-64c-11.797,0-21.333-9.536-21.333-21.333
				c0-11.797,9.536-21.333,21.333-21.333h64c11.797,0,21.333,9.536,21.333,21.333C277.732,395.797,268.196,405.333,256.399,405.333z
				 M256.399,320h-21.333c-11.797,0-21.333-9.536-21.333-21.333c0-11.797,9.536-21.333,21.333-21.333h21.333
				c11.797,0,21.333,9.536,21.333,21.333C277.732,310.464,268.196,320,256.399,320z M256.399,234.667h-85.333
				c-11.797,0-21.333-9.536-21.333-21.333c0-11.797,9.536-21.333,21.333-21.333h85.333c11.797,0,21.333,9.536,21.333,21.333
				C277.732,225.131,268.196,234.667,256.399,234.667z"/>
			<path d="M448.399,0c-35.285,0-64,28.715-64,64v320h128V64C512.399,28.715,483.684,0,448.399,0z"/>
			<path d="M409.775,484.937c5.632,16.917,20.8,27.861,38.635,27.861c17.813,0,32.981-10.944,38.592-27.84l19.435-58.283H390.362
				L409.775,484.937z"/>
		</g>
	</g>
</g>
<g>
</g>
<g>
</g>
<g>
</g>
<g>
</g>
<g>
</g>
<g>
</g>
<g>
</g>
<g>
</g>
<g>
</g>
<g>
</g>
<g>
</g>
<g>
</g>
<g>
</g>
<g>
</g>
<g>
</g>
</svg>
