<?xml version="1.0" encoding="iso-8859-1"?>
<!-- Generator: Adobe Illustrator 19.0.0, SVG Export Plug-In . SVG Version: 6.00 Build 0)  -->
<svg version="1.1" id="Capa_1" xmlns="http://www.w3.org/2000/svg" xmlns:xlink="http://www.w3.org/1999/xlink" x="0px" y="0px"
	 viewBox="0 0 512.011 512.011" style="enable-background:new 0 0 512.011 512.011;" xml:space="preserve">
<g>
	<g>
		<g>
			<path d="M490.672,42.667H380.08C371.248,17.899,347.781,0,320.005,0s-51.243,17.899-60.075,42.667h-50.517
				C200.581,17.899,177.115,0,149.339,0S98.096,17.899,89.264,42.667H21.339C9.541,42.667,0.005,52.203,0.005,64v85.333h512V64
				C512.005,52.203,502.469,42.667,490.672,42.667z"/>
			<path d="M333.714,277.333c-15.957,0-28.928,12.992-28.928,28.949s12.971,28.971,28.928,28.971s28.949-13.013,28.949-28.971
				S349.671,277.333,333.714,277.333z"/>
			<path d="M0.005,490.677c0,11.776,9.536,21.333,21.333,21.333h469.333c11.797,0,21.333-9.557,21.333-21.333V192.011h-512V490.677z
				 M333.723,377.909c-39.488,0-71.616-32.107-71.616-71.616s32.128-71.616,71.616-71.616c39.488,0,71.616,32.107,71.616,71.616
				v99.051c0,39.488-32.128,71.616-71.616,71.616c-39.488,0-71.616-32.128-71.616-71.616c0-11.797,9.536-21.333,21.333-21.333
				c11.797,0,21.333,9.536,21.333,21.333c0,15.957,12.992,28.949,28.949,28.949s28.949-12.992,28.949-28.949V371.68
				C353.797,375.627,344.027,377.909,333.723,377.909z M112.923,291.211l42.645-42.645c1.963-1.984,4.331-3.541,6.955-4.629
				c5.205-2.155,11.072-2.155,16.299,0c5.227,2.155,9.387,6.315,11.541,11.541c1.067,2.603,1.643,5.376,1.643,8.149v170.667h21.333
				c11.797,0,21.333,9.536,21.333,21.333c0,11.797-9.536,21.333-21.333,21.333h-85.333c-11.797,0-21.333-9.536-21.333-21.333
				c0-11.797,9.536-21.333,21.333-21.333h21.333V315.125l-6.251,6.251c-4.16,4.16-9.621,6.251-15.083,6.251
				c-5.461,0-10.923-2.091-15.083-6.251C104.581,313.035,104.581,299.552,112.923,291.211z"/>
		</g>
	</g>
</g>
<g>
</g>
<g>
</g>
<g>
</g>
<g>
</g>
<g>
</g>
<g>
</g>
<g>
</g>
<g>
</g>
<g>
</g>
<g>
</g>
<g>
</g>
<g>
</g>
<g>
</g>
<g>
</g>
<g>
</g>
</svg>
