<?xml version="1.0" encoding="iso-8859-1"?>
<!-- Generator: Adobe Illustrator 19.0.0, SVG Export Plug-In . SVG Version: 6.00 Build 0)  -->
<svg version="1.1" id="Capa_1" xmlns="http://www.w3.org/2000/svg" xmlns:xlink="http://www.w3.org/1999/xlink" x="0px" y="0px"
	 viewBox="0 0 512 512" style="enable-background:new 0 0 512 512;" xml:space="preserve">
<g>
	<g>
		<g>
			<path d="M331.437,411.729c19.179,0,34.795-15.595,34.795-34.795c0-19.179-15.616-34.795-34.795-34.795
				c-19.179,0-34.816,15.616-34.816,34.795C296.621,396.134,312.258,411.729,331.437,411.729z"/>
			<path d="M331.437,299.479c14.763,0,26.773-11.989,26.773-26.773c0-14.763-12.011-26.795-26.773-26.795
				c-14.763,0-26.795,12.032-26.795,26.795C304.642,287.49,316.674,299.479,331.437,299.479z"/>
			<path d="M490.667,42.667H380.075C371.243,17.899,347.776,0,320,0s-51.243,17.899-60.075,42.667h-50.517
				C200.576,17.899,177.109,0,149.333,0S98.091,17.899,89.259,42.667H21.333C9.536,42.667,0,52.203,0,64v85.333h512V64
				C512,52.203,502.464,42.667,490.667,42.667z"/>
			<path d="M0,490.667C0,502.464,9.536,512,21.333,512h469.333c11.797,0,21.333-9.536,21.333-21.333V192H0V490.667z
				 M261.973,272.704c0-38.293,31.168-69.461,69.461-69.461s69.44,31.168,69.44,69.461c0,17.963-7.04,34.197-18.261,46.549
				c15.979,14.187,26.283,34.667,26.283,57.685c0,42.709-34.752,77.461-77.461,77.461c-42.731,0-77.483-34.752-77.483-77.461
				c0-23.019,10.304-43.499,26.304-57.685C269.013,306.901,261.973,290.667,261.973,272.704z M112.917,262.251l42.667-42.667
				c6.101-6.101,15.275-7.957,23.253-4.629C186.816,218.24,192,226.048,192,234.667v170.667h21.333
				c11.797,0,21.333,9.536,21.333,21.333S225.131,448,213.333,448H128c-11.797,0-21.333-9.536-21.333-21.333
				s9.536-21.333,21.333-21.333h21.333V286.165l-6.251,6.251c-8.341,8.341-21.824,8.341-30.165,0
				C104.576,284.075,104.576,270.592,112.917,262.251z"/>
		</g>
	</g>
</g>
<g>
</g>
<g>
</g>
<g>
</g>
<g>
</g>
<g>
</g>
<g>
</g>
<g>
</g>
<g>
</g>
<g>
</g>
<g>
</g>
<g>
</g>
<g>
</g>
<g>
</g>
<g>
</g>
<g>
</g>
</svg>
