<?xml version="1.0" encoding="iso-8859-1"?>
<!-- Generator: Adobe Illustrator 19.0.0, SVG Export Plug-In . SVG Version: 6.00 Build 0)  -->
<svg version="1.1" id="Capa_1" xmlns="http://www.w3.org/2000/svg" xmlns:xlink="http://www.w3.org/1999/xlink" x="0px" y="0px"
	 viewBox="0 0 512 512" style="enable-background:new 0 0 512 512;" xml:space="preserve">
<g>
	<g>
		<g>
			<rect x="234.667" y="373.333" width="42.667" height="42.667"/>
			<path d="M490.667,53.333H448V32c0-11.797-9.536-21.333-21.333-21.333h-85.333C329.536,10.667,320,20.203,320,32v21.333H192V32
				c0-11.797-9.536-21.333-21.333-21.333H85.333C73.536,10.667,64,20.203,64,32v21.333H21.333C9.536,53.333,0,62.869,0,74.667V160
				h512V74.667C512,62.869,502.464,53.333,490.667,53.333z M149.333,74.667V96h-42.667V74.667V53.333h42.667V74.667z
				 M405.333,74.667V96h-42.667V74.667V53.333h42.667V74.667z"/>
			<rect x="149.333" y="373.333" width="42.667" height="42.667"/>
			<rect x="320" y="373.333" width="42.667" height="42.667"/>
			<rect x="149.333" y="288" width="42.667" height="42.667"/>
			<path d="M0,480c0,11.797,9.536,21.333,21.333,21.333h469.333c11.797,0,21.333-9.536,21.333-21.333V202.667H0V480z M106.667,352
				v-85.333c0-11.797,9.536-21.333,21.333-21.333h85.333h85.333H384c11.797,0,21.333,9.536,21.333,21.333V352v85.333
				c0,11.797-9.536,21.333-21.333,21.333h-85.333h-85.333H128c-11.797,0-21.333-9.536-21.333-21.333V352z"/>
			<rect x="320" y="288" width="42.667" height="42.667"/>
			<rect x="234.667" y="288" width="42.667" height="42.667"/>
		</g>
	</g>
</g>
<g>
</g>
<g>
</g>
<g>
</g>
<g>
</g>
<g>
</g>
<g>
</g>
<g>
</g>
<g>
</g>
<g>
</g>
<g>
</g>
<g>
</g>
<g>
</g>
<g>
</g>
<g>
</g>
<g>
</g>
</svg>
