<?xml version="1.0" encoding="iso-8859-1"?>
<!-- Generator: Adobe Illustrator 19.0.0, SVG Export Plug-In . SVG Version: 6.00 Build 0)  -->
<svg version="1.1" id="Capa_1" xmlns="http://www.w3.org/2000/svg" xmlns:xlink="http://www.w3.org/1999/xlink" x="0px" y="0px"
	 viewBox="0 0 512 512" style="enable-background:new 0 0 512 512;" xml:space="preserve">
<g>
	<g>
		<path d="M448,42.667H320V21.333C320,9.536,310.443,0,298.667,0H128c-11.797,0-21.333,9.536-21.333,21.333v21.333H64
			c-11.797,0-21.333,9.536-21.333,21.333v426.667C42.667,502.464,52.203,512,64,512h384c11.776,0,21.333-9.536,21.333-21.333V64
			C469.333,52.203,459.776,42.667,448,42.667z M362.667,128H384c11.776,0,21.333,9.536,21.333,21.333
			c0,11.797-9.557,21.333-21.333,21.333h-21.333c-11.797,0-21.333-9.536-21.333-21.333C341.333,137.536,350.869,128,362.667,128z
			 M362.667,213.333H384c11.776,0,21.333,9.536,21.333,21.333c0,11.797-9.557,21.333-21.333,21.333h-21.333
			c-11.797,0-21.333-9.536-21.333-21.333C341.333,222.869,350.869,213.333,362.667,213.333z M149.333,64V42.667h128V64v128
			l-51.221-38.4c-7.573-5.696-17.984-5.696-25.579,0l-51.2,38.4V64z M255.253,426.667H128c-11.797,0-21.333-9.536-21.333-21.333
			c0-11.797,9.536-21.333,21.333-21.333h127.253c11.797,0,21.333,9.536,21.333,21.333
			C276.587,417.131,267.051,426.667,255.253,426.667z M384,426.667h-64c-11.797,0-21.333-9.536-21.333-21.333
			c0-11.797,9.536-21.333,21.333-21.333h64c11.776,0,21.333,9.536,21.333,21.333C405.333,417.131,395.776,426.667,384,426.667z
			 M385.472,341.333H128c-11.797,0-21.333-9.536-21.333-21.333s9.536-21.333,21.333-21.333h257.472
			c11.797,0,21.333,9.536,21.333,21.333S397.269,341.333,385.472,341.333z"/>
	</g>
</g>
<g>
</g>
<g>
</g>
<g>
</g>
<g>
</g>
<g>
</g>
<g>
</g>
<g>
</g>
<g>
</g>
<g>
</g>
<g>
</g>
<g>
</g>
<g>
</g>
<g>
</g>
<g>
</g>
<g>
</g>
</svg>
