<?xml version="1.0" encoding="iso-8859-1"?>
<!-- Generator: Adobe Illustrator 19.0.0, SVG Export Plug-In . SVG Version: 6.00 Build 0)  -->
<svg version="1.1" id="Capa_1" xmlns="http://www.w3.org/2000/svg" xmlns:xlink="http://www.w3.org/1999/xlink" x="0px" y="0px"
	 viewBox="0 0 512 512" style="enable-background:new 0 0 512 512;" xml:space="preserve">
<g>
	<g>
		<g>
			<rect x="362.667" y="362.667" width="42.667" height="42.667"/>
			<rect x="192" y="192" width="42.667" height="42.667"/>
			<path d="M85.333,234.667h-64C9.536,234.667,0,244.203,0,256v192c0,35.285,28.715,64,64,64h362.667
				C473.728,512,512,473.728,512,426.667V128H85.333V234.667z M85.333,448c0,11.776-9.557,21.333-21.333,21.333
				S42.667,459.776,42.667,448V277.333h42.667V448z M448,426.667c0,11.797-9.536,21.333-21.333,21.333h-85.333
				C329.536,448,320,438.464,320,426.667v-85.333c0-11.797,9.536-21.333,21.333-21.333h85.333c11.797,0,21.333,9.536,21.333,21.333
				V426.667z M320,149.333h106.667c11.797,0,21.333,9.536,21.333,21.333c0,11.797-9.536,21.333-21.333,21.333H320
				c-11.797,0-21.333-9.536-21.333-21.333C298.667,158.869,308.203,149.333,320,149.333z M320,213.333h106.667
				c11.797,0,21.333,9.536,21.333,21.333c0,11.797-9.536,21.333-21.333,21.333H320c-11.797,0-21.333-9.536-21.333-21.333
				C298.667,222.869,308.203,213.333,320,213.333z M149.333,170.667c0-11.797,9.536-21.333,21.333-21.333H256
				c11.797,0,21.333,9.536,21.333,21.333V256c0,11.797-9.536,21.333-21.333,21.333h-85.333c-11.797,0-21.333-9.536-21.333-21.333
				V170.667z M170.667,341.333h106.667c11.797,0,21.333,9.536,21.333,21.333S289.131,384,277.333,384H170.667
				c-11.797,0-21.333-9.536-21.333-21.333S158.869,341.333,170.667,341.333z M170.667,405.333h106.667
				c11.797,0,21.333,9.536,21.333,21.333S289.131,448,277.333,448H170.667c-11.797,0-21.333-9.536-21.333-21.333
				S158.869,405.333,170.667,405.333z"/>
			<path d="M490.667,0h-384C94.869,0,85.333,9.536,85.333,21.333v64H512v-64C512,9.536,502.464,0,490.667,0z"/>
		</g>
	</g>
</g>
<g>
</g>
<g>
</g>
<g>
</g>
<g>
</g>
<g>
</g>
<g>
</g>
<g>
</g>
<g>
</g>
<g>
</g>
<g>
</g>
<g>
</g>
<g>
</g>
<g>
</g>
<g>
</g>
<g>
</g>
</svg>
