<?xml version="1.0" encoding="iso-8859-1"?>
<!-- Generator: Adobe Illustrator 19.0.0, SVG Export Plug-In . SVG Version: 6.00 Build 0)  -->
<svg version="1.1" id="Capa_1" xmlns="http://www.w3.org/2000/svg" xmlns:xlink="http://www.w3.org/1999/xlink" x="0px" y="0px"
	 viewBox="0 0 512 512" style="enable-background:new 0 0 512 512;" xml:space="preserve">
<g>
	<g>
		<path d="M490.667,0H21.333C9.557,0,0,9.536,0,21.333v469.333C0,502.464,9.557,512,21.333,512h469.333
			c11.776,0,21.333-9.536,21.333-21.333V21.333C512,9.536,502.443,0,490.667,0z M158.443,405.333l-19.776-10.389l-19.776,10.389
			l3.776-22.016l-16-15.595l22.101-3.221l9.899-20.032l9.899,20.032l22.101,3.221l-16,15.595L158.443,405.333z M154.667,255.317
			l3.776,22.016l-19.776-10.389l-19.776,10.389l3.776-22.016l-16-15.595l22.101-3.221l9.899-20.032l9.899,20.032l22.101,3.221
			L154.667,255.317z M154.667,124.181l3.776,22.016l-19.776-10.389l-19.776,10.389l3.776-22.016l-16-15.595l22.101-3.221
			l9.899-20.032l9.899,20.032l22.101,3.221L154.667,124.181z M384,405.333H213.333C201.557,405.333,192,395.797,192,384
			c0-11.797,9.557-21.333,21.333-21.333H384c11.776,0,21.333,9.536,21.333,21.333C405.333,395.797,395.776,405.333,384,405.333z
			 M384,277.333H213.333C201.557,277.333,192,267.797,192,256s9.557-21.333,21.333-21.333H384c11.776,0,21.333,9.536,21.333,21.333
			S395.776,277.333,384,277.333z M384,149.333H213.333C201.557,149.333,192,139.797,192,128c0-11.797,9.557-21.333,21.333-21.333
			H384c11.776,0,21.333,9.536,21.333,21.333C405.333,139.797,395.776,149.333,384,149.333z"/>
	</g>
</g>
<g>
</g>
<g>
</g>
<g>
</g>
<g>
</g>
<g>
</g>
<g>
</g>
<g>
</g>
<g>
</g>
<g>
</g>
<g>
</g>
<g>
</g>
<g>
</g>
<g>
</g>
<g>
</g>
<g>
</g>
</svg>
