<?xml version="1.0" encoding="iso-8859-1"?>
<!-- Generator: Adobe Illustrator 19.0.0, SVG Export Plug-In . SVG Version: 6.00 Build 0)  -->
<svg version="1.1" id="Capa_1" xmlns="http://www.w3.org/2000/svg" xmlns:xlink="http://www.w3.org/1999/xlink" x="0px" y="0px"
	 viewBox="0 0 512 512" style="enable-background:new 0 0 512 512;" xml:space="preserve">
<g>
	<g>
		<g>
			<rect x="362.667" y="234.667" width="85.333" height="85.333"/>
			<rect x="64" y="234.667" width="256" height="85.333"/>
			<path d="M447.998,85.291c0-47.019-38.251-85.269-85.248-85.269h-0.085V192h85.333V85.291z"/>
			<path d="M70.251,6.251C66.261,10.24,64,15.659,64,21.333V192h256V0.021L85.333,0C79.659,0,74.24,2.261,70.251,6.251z"/>
			<path d="M362.667,448h0.085C409.749,448,448,409.749,448,362.752v-0.085h-85.333V448z"/>
			<path d="M64,426.667C64,438.464,73.536,448,85.333,448H128v64l42.667-21.333L213.333,512v-64H320v-85.333H64V426.667z"/>
		</g>
	</g>
</g>
<g>
</g>
<g>
</g>
<g>
</g>
<g>
</g>
<g>
</g>
<g>
</g>
<g>
</g>
<g>
</g>
<g>
</g>
<g>
</g>
<g>
</g>
<g>
</g>
<g>
</g>
<g>
</g>
<g>
</g>
</svg>
