<?xml version="1.0" encoding="iso-8859-1"?>
<!-- Generator: Adobe Illustrator 19.0.0, SVG Export Plug-In . SVG Version: 6.00 Build 0)  -->
<svg version="1.1" id="Capa_1" xmlns="http://www.w3.org/2000/svg" xmlns:xlink="http://www.w3.org/1999/xlink" x="0px" y="0px"
	 viewBox="0 0 512 512" style="enable-background:new 0 0 512 512;" xml:space="preserve">
<g>
	<g>
		<g>
			<path d="M448,0c-35.285,0-64,28.715-64,64v323.2c0,40.683,14.784,79.872,41.643,110.336l6.336,7.211
				c3.904,4.437,9.429,7.04,15.339,7.232C447.552,512,447.765,512,448,512c5.653,0,11.093-2.24,15.083-6.251
				C494.165,474.667,512,431.616,512,387.669V64C512,28.715,483.285,0,448,0z"/>
			<path d="M256,448h0.085c46.997,0,85.248-38.251,85.248-85.248v-0.085H256V448z"/>
			<path d="M341.331,85.291c0-47.019-38.251-85.269-85.248-85.269h-0.085V192h85.333V85.291z"/>
			<rect y="234.667" width="213.333" height="85.333"/>
			<rect x="256" y="234.667" width="85.333" height="85.333"/>
			<path d="M0,426.667C0,438.464,9.536,448,21.333,448H64v64l42.667-21.333L149.333,512v-64h64v-85.333H0V426.667z"/>
			<path d="M6.251,6.251C2.261,10.24,0,15.659,0,21.333V192h213.333V0.021L21.333,0C15.659,0,10.24,2.261,6.251,6.251z"/>
		</g>
	</g>
</g>
<g>
</g>
<g>
</g>
<g>
</g>
<g>
</g>
<g>
</g>
<g>
</g>
<g>
</g>
<g>
</g>
<g>
</g>
<g>
</g>
<g>
</g>
<g>
</g>
<g>
</g>
<g>
</g>
<g>
</g>
</svg>
