<?xml version="1.0" encoding="iso-8859-1"?>
<!-- Generator: Adobe Illustrator 19.0.0, SVG Export Plug-In . SVG Version: 6.00 Build 0)  -->
<svg version="1.1" id="Capa_1" xmlns="http://www.w3.org/2000/svg" xmlns:xlink="http://www.w3.org/1999/xlink" x="0px" y="0px"
	 viewBox="0 0 512 512" style="enable-background:new 0 0 512 512;" xml:space="preserve">
<g>
	<g>
		<g>
			<path d="M448,0c-35.285,0-64,28.715-64,64v323.2c0,40.683,14.784,79.872,41.643,110.336l6.336,7.211
				c3.904,4.437,9.429,7.04,15.339,7.232C447.552,512,447.765,512,448,512c5.653,0,11.093-2.24,15.083-6.251
				C494.165,474.667,512,431.616,512,387.669V64C512,28.715,483.285,0,448,0z"/>
			<path d="M0,21.333v469.333C0,502.464,9.536,512,21.333,512h43.392V0H21.333C9.536,0,0,9.536,0,21.333z"/>
			<rect x="192" y="128" width="85.333" height="42.667"/>
			<path d="M341.333,0H107.392v512h233.941c11.797,0,21.333-9.536,21.333-21.333V21.333C362.667,9.536,353.131,0,341.333,0z
				 M320,192c0,11.797-9.536,21.333-21.333,21.333h-128c-11.797,0-21.333-9.536-21.333-21.333v-85.333
				c0-11.797,9.536-21.333,21.333-21.333h128c11.797,0,21.333,9.536,21.333,21.333V192z"/>
		</g>
	</g>
</g>
<g>
</g>
<g>
</g>
<g>
</g>
<g>
</g>
<g>
</g>
<g>
</g>
<g>
</g>
<g>
</g>
<g>
</g>
<g>
</g>
<g>
</g>
<g>
</g>
<g>
</g>
<g>
</g>
<g>
</g>
</svg>
