<?xml version="1.0" encoding="iso-8859-1"?>
<!-- Generator: Adobe Illustrator 19.0.0, SVG Export Plug-In . SVG Version: 6.00 Build 0)  -->
<svg version="1.1" id="Capa_1" xmlns="http://www.w3.org/2000/svg" xmlns:xlink="http://www.w3.org/1999/xlink" x="0px" y="0px"
	 viewBox="0 0 512 512" style="enable-background:new 0 0 512 512;" xml:space="preserve">
<g>
	<g>
		<g>
			<path d="M42.667,21.333v469.333C42.667,502.464,52.203,512,64,512h42.667V0H64C52.203,0,42.667,9.536,42.667,21.333z"/>
			<rect x="234.667" y="128" width="149.333" height="42.667"/>
			<path d="M448,0H149.333v512H448c11.797,0,21.333-9.536,21.333-21.333V21.333C469.333,9.536,459.797,0,448,0z M426.667,192
				c0,11.797-9.536,21.333-21.333,21.333h-192C201.536,213.333,192,203.797,192,192v-85.333c0-11.797,9.536-21.333,21.333-21.333
				h192c11.797,0,21.333,9.536,21.333,21.333V192z"/>
		</g>
	</g>
</g>
<g>
</g>
<g>
</g>
<g>
</g>
<g>
</g>
<g>
</g>
<g>
</g>
<g>
</g>
<g>
</g>
<g>
</g>
<g>
</g>
<g>
</g>
<g>
</g>
<g>
</g>
<g>
</g>
<g>
</g>
</svg>
