<?xml version="1.0" encoding="iso-8859-1"?>
<!-- Generator: Adobe Illustrator 19.0.0, SVG Export Plug-In . SVG Version: 6.00 Build 0)  -->
<svg version="1.1" id="Capa_1" xmlns="http://www.w3.org/2000/svg" xmlns:xlink="http://www.w3.org/1999/xlink" x="0px" y="0px"
	 viewBox="0 0 512.004 512.004" style="enable-background:new 0 0 512.004 512.004;" xml:space="preserve">
<g>
	<g>
		<g>
			<path d="M512,74.669c0-11.797-9.536-21.333-21.333-21.333h-25.259c-8.832-24.768-32.299-42.667-60.075-42.667
				s-51.221,17.899-60.075,42.667h-29.184C307.243,28.567,283.776,10.669,256,10.669s-51.221,17.899-60.075,42.667h-29.184
				c-8.832-24.768-32.299-42.667-60.075-42.667S55.445,28.567,46.592,53.335H21.333C9.536,53.335,0,62.871,0,74.669v85.333h512
				V74.669z"/>
			<path d="M0.004,202.669v277.333c0,11.797,9.536,21.333,21.333,21.333H490.65c11.797,0,21.333-9.536,21.333-21.333l0.021-277.333
				H0.004z M128.004,416.002c-11.776,0-21.333-9.557-21.333-21.333s9.557-21.333,21.333-21.333s21.333,9.557,21.333,21.333
				S139.78,416.002,128.004,416.002z M128.004,309.335c-11.776,0-21.333-9.557-21.333-21.333s9.557-21.333,21.333-21.333
				s21.333,9.557,21.333,21.333S139.78,309.335,128.004,309.335z M256.004,416.002c-11.776,0-21.333-9.557-21.333-21.333
				s9.557-21.333,21.333-21.333s21.333,9.557,21.333,21.333S267.78,416.002,256.004,416.002z M256.004,309.335
				c-11.776,0-21.333-9.557-21.333-21.333s9.557-21.333,21.333-21.333s21.333,9.557,21.333,21.333S267.78,309.335,256.004,309.335z
				 M384.004,416.002c-11.776,0-21.333-9.557-21.333-21.333s9.557-21.333,21.333-21.333s21.333,9.557,21.333,21.333
				S395.78,416.002,384.004,416.002z M384.004,309.335c-11.776,0-21.333-9.557-21.333-21.333s9.557-21.333,21.333-21.333
				s21.333,9.557,21.333,21.333S395.78,309.335,384.004,309.335z"/>
		</g>
	</g>
</g>
<g>
</g>
<g>
</g>
<g>
</g>
<g>
</g>
<g>
</g>
<g>
</g>
<g>
</g>
<g>
</g>
<g>
</g>
<g>
</g>
<g>
</g>
<g>
</g>
<g>
</g>
<g>
</g>
<g>
</g>
</svg>
