<?xml version="1.0" encoding="iso-8859-1"?>
<!-- Generator: Adobe Illustrator 19.0.0, SVG Export Plug-In . SVG Version: 6.00 Build 0)  -->
<svg version="1.1" id="Capa_1" xmlns="http://www.w3.org/2000/svg" xmlns:xlink="http://www.w3.org/1999/xlink" x="0px" y="0px"
	 viewBox="0 0 511.991 511.991" style="enable-background:new 0 0 511.991 511.991;" xml:space="preserve">
<g>
	<g>
		<g>
			<path d="M481.275,102.385h-55.583L266.85,3.118c-6.635-4.157-15.073-4.157-21.709,0L86.298,102.385H30.715
				c-11.325,0-20.48,9.175-20.48,20.48v61.44h491.52v-61.44C501.755,111.56,492.601,102.385,481.275,102.385z M163.549,102.385
				l92.447-57.754l92.447,57.754H163.549z"/>
			<path d="M10.235,491.511c0,11.325,9.155,20.48,20.48,20.48h450.539c11.325,0,20.48-9.155,20.48-20.48l0.021-266.24H10.235
				V491.511z M378.875,286.711c11.305,0,20.48,9.175,20.48,20.48c0,11.305-9.175,20.48-20.48,20.48
				c-11.305,0-20.48-9.175-20.48-20.48C358.395,295.886,367.57,286.711,378.875,286.711z M378.875,389.111
				c11.305,0,20.48,9.175,20.48,20.48c0,11.305-9.175,20.48-20.48,20.48c-11.305,0-20.48-9.175-20.48-20.48
				C358.395,398.286,367.57,389.111,378.875,389.111z M255.995,286.711c11.305,0,20.48,9.175,20.48,20.48
				c0,11.305-9.175,20.48-20.48,20.48s-20.48-9.175-20.48-20.48C235.515,295.886,244.69,286.711,255.995,286.711z M255.995,389.111
				c11.305,0,20.48,9.175,20.48,20.48c0,11.305-9.175,20.48-20.48,20.48s-20.48-9.175-20.48-20.48
				C235.515,398.286,244.69,389.111,255.995,389.111z M133.115,286.711c11.305,0,20.48,9.175,20.48,20.48
				c0,11.305-9.175,20.48-20.48,20.48c-11.305,0-20.48-9.175-20.48-20.48C112.635,295.886,121.81,286.711,133.115,286.711z
				 M133.115,389.111c11.305,0,20.48,9.175,20.48,20.48c0,11.305-9.175,20.48-20.48,20.48c-11.305,0-20.48-9.175-20.48-20.48
				C112.635,398.286,121.81,389.111,133.115,389.111z"/>
		</g>
	</g>
</g>
<g>
</g>
<g>
</g>
<g>
</g>
<g>
</g>
<g>
</g>
<g>
</g>
<g>
</g>
<g>
</g>
<g>
</g>
<g>
</g>
<g>
</g>
<g>
</g>
<g>
</g>
<g>
</g>
<g>
</g>
</svg>
