<?xml version="1.0" encoding="iso-8859-1"?>
<!-- Generator: Adobe Illustrator 19.0.0, SVG Export Plug-In . SVG Version: 6.00 Build 0)  -->
<svg version="1.1" id="Capa_1" xmlns="http://www.w3.org/2000/svg" xmlns:xlink="http://www.w3.org/1999/xlink" x="0px" y="0px"
	 viewBox="0 0 512 512" style="enable-background:new 0 0 512 512;" xml:space="preserve">
<g>
	<g>
		<g>
			<path d="M78.875,272.896c11.435-2.859,18.389-14.443,15.531-25.877l-5.163-20.715c-2.837-11.413-14.443-18.197-25.877-15.531
				c-11.413,2.859-18.368,14.443-15.531,25.877l5.184,20.693c2.411,9.707,11.115,16.171,20.672,16.171
				C75.397,273.515,77.125,273.323,78.875,272.896z"/>
			<path d="M53.021,169.376c11.435-2.859,18.368-14.443,15.531-25.877l-5.184-20.693c-2.859-11.413-14.443-18.325-25.877-15.488
				c-11.435,2.859-18.368,14.443-15.531,25.877l5.184,20.672c2.432,9.707,11.136,16.149,20.672,16.149
				C49.543,170.016,51.271,169.824,53.021,169.376z"/>
			<path d="M448.624,210.771c-11.413-2.688-22.997,4.096-25.856,15.552l-5.184,20.693c-2.837,11.435,4.117,23.019,15.531,25.877
				c1.749,0.427,3.477,0.619,5.205,0.619c9.557,0,18.261-6.464,20.672-16.149l5.163-20.715
				C467.013,225.214,460.059,213.63,448.624,210.771z"/>
			<path d="M422.762,314.261c-6.293-1.579-12.501,0.043-17.429,3.563v-29.995v-21.333v-85.333v-21.333v-40.533
				c2.453,0.917,4.928,1.749,7.424,1.749c7.829,0,15.36-4.309,19.093-11.797c5.269-10.539,1.003-23.36-9.536-28.629l-19.093-9.536
				c-10.539-5.227-23.339-0.981-28.608,9.536c-4.629,9.237-1.6,19.925,6.229,26.048H131.156c7.829-6.123,10.859-16.811,6.229-26.048
				c-5.269-10.517-18.048-14.763-28.608-9.536l-19.093,9.536c-10.539,5.269-14.805,18.091-9.536,28.629
				c3.733,7.488,11.264,11.797,19.093,11.797c2.496,0,4.971-0.832,7.424-1.749v40.533v21.333v85.333v21.333v29.995
				c-4.928-3.52-11.136-5.141-17.429-3.563c-11.435,2.859-18.389,14.443-15.531,25.856l5.184,20.715
				c2.88,11.456,14.507,18.368,25.877,15.531c0.64-0.149,1.28-0.363,1.899-0.576V384v10.496v74.837
				c0,23.531,19.136,42.667,42.667,42.667h213.333c23.531,0,42.667-19.136,42.667-42.667v-74.837V384v-8.213
				c0.619,0.213,1.259,0.427,1.899,0.576c11.435,2.837,23.019-4.075,25.877-15.531l5.184-20.715
				C441.151,328.704,434.196,317.12,422.762,314.261z M255.999,448c-11.776,0-21.333-9.557-21.333-21.333
				s9.557-21.333,21.333-21.333c11.776,0,21.333,9.557,21.333,21.333S267.775,448,255.999,448z M391.722,350.507
				c-0.213,0.853-0.384,1.728-0.491,2.581c-2.261-0.811-4.693-1.259-7.232-1.259c-11.776,0-21.333,9.536-21.333,21.333V384H149.332
				v-10.837c0-11.797-9.557-21.333-21.333-21.333c-2.539,0-4.971,0.448-7.232,1.259c-0.107-0.853-0.277-1.728-0.491-2.581
				l-2.283-9.173h276.011L391.722,350.507z"/>
			<path d="M474.51,107.313c-11.371-2.837-23.019,4.075-25.877,15.509l-5.184,20.672c-2.837,11.435,4.096,23.019,15.531,25.877
				c1.749,0.448,3.477,0.64,5.205,0.64c9.536,0,18.24-6.443,20.672-16.128l5.184-20.693
				C492.878,121.756,485.945,110.172,474.51,107.313z"/>
			<path d="M405.332,42.667C405.332,19.136,386.196,0,362.666,0H149.332c-23.531,0-42.667,19.136-42.667,42.667V64h298.667V42.667z"
				/>
		</g>
	</g>
</g>
<g>
</g>
<g>
</g>
<g>
</g>
<g>
</g>
<g>
</g>
<g>
</g>
<g>
</g>
<g>
</g>
<g>
</g>
<g>
</g>
<g>
</g>
<g>
</g>
<g>
</g>
<g>
</g>
<g>
</g>
</svg>
