<?xml version="1.0" encoding="iso-8859-1"?>
<!-- Generator: Adobe Illustrator 19.0.0, SVG Export Plug-In . SVG Version: 6.00 Build 0)  -->
<svg version="1.1" id="Capa_1" xmlns="http://www.w3.org/2000/svg" xmlns:xlink="http://www.w3.org/1999/xlink" x="0px" y="0px"
	 viewBox="0 0 512 512" style="enable-background:new 0 0 512 512;" xml:space="preserve">
<g>
	<g>
		<g>
			<path d="M362.667,0H149.333c-23.531,0-42.667,19.136-42.667,42.667V64h298.667V42.667C405.333,19.136,386.197,0,362.667,0z"/>
			<path d="M106.667,469.333c0,23.531,19.136,42.667,42.667,42.667h213.333c23.531,0,42.667-19.136,42.667-42.667V384H106.667
				V469.333z M256,405.333c11.776,0,21.333,9.557,21.333,21.333S267.776,448,256,448c-11.776,0-21.333-9.557-21.333-21.333
				S244.224,405.333,256,405.333z"/>
			<path d="M106.667,341.338h298.667V106.671H106.667V341.338z M277.333,160.452c0-6.144,4.971-11.115,11.115-11.115h20.437
				c6.144,0,11.115,4.971,11.115,11.115v20.437c0,6.144-4.971,11.115-11.115,11.115h-20.437c-6.144,0-11.115-4.971-11.115-11.115
				V160.452z M277.333,245.786c0-6.144,4.971-11.115,11.115-11.115h20.437c6.144,0,11.115,4.971,11.115,11.115v20.437
				c0,6.144-4.971,11.115-11.115,11.115h-20.437c-6.144,0-11.115-4.971-11.115-11.115V245.786z M192,160.452
				c0-6.144,4.971-11.115,11.115-11.115h20.437c6.144,0,11.115,4.971,11.115,11.115v20.437c0,6.144-4.971,11.115-11.115,11.115
				h-20.437c-6.144,0-11.115-4.971-11.115-11.115V160.452z M192,245.786c0-6.144,4.971-11.115,11.115-11.115h20.437
				c6.144,0,11.115,4.971,11.115,11.115v20.437c0,6.144-4.971,11.115-11.115,11.115h-20.437c-6.144,0-11.115-4.971-11.115-11.115
				V245.786z"/>
		</g>
	</g>
</g>
<g>
</g>
<g>
</g>
<g>
</g>
<g>
</g>
<g>
</g>
<g>
</g>
<g>
</g>
<g>
</g>
<g>
</g>
<g>
</g>
<g>
</g>
<g>
</g>
<g>
</g>
<g>
</g>
<g>
</g>
</svg>
