<?xml version="1.0" encoding="iso-8859-1"?>
<!-- Generator: Adobe Illustrator 19.0.0, SVG Export Plug-In . SVG Version: 6.00 Build 0)  -->
<svg version="1.1" id="Capa_1" xmlns="http://www.w3.org/2000/svg" xmlns:xlink="http://www.w3.org/1999/xlink" x="0px" y="0px"
	 viewBox="0 0 512 512" style="enable-background:new 0 0 512 512;" xml:space="preserve">
<g>
	<g>
		<g>
			<path d="M426.667,320c-11.797,0-21.333,9.536-21.333,21.333v21.333c0,11.797,9.536,21.333,21.333,21.333S448,374.464,448,362.667
				v-21.333C448,329.536,438.464,320,426.667,320z"/>
			<path d="M490.667,280.397c-11.797,0-21.333,9.536-21.333,21.333v21.333c0,11.797,9.536,21.333,21.333,21.333
				S512,334.861,512,323.063V301.73C512,289.933,502.464,280.397,490.667,280.397z"/>
			<path d="M350.479,469.333h-21.333c-11.797,0-21.333,9.536-21.333,21.333S317.348,512,329.146,512h21.333
				c11.797,0,21.333-9.536,21.333-21.333S362.276,469.333,350.479,469.333z"/>
			<path d="M469.333,256c11.797,0,21.333-9.536,21.333-21.333c0-11.797-9.536-21.333-21.333-21.333H448
				c-3.968,0-7.488,1.365-10.667,3.264c-3.179-1.899-6.699-3.264-10.667-3.264c-11.797,0-21.333,9.536-21.333,21.333V256
				c0,11.797,9.536,21.333,21.333,21.333S448,267.797,448,256H469.333z"/>
			<path d="M490.667,387.063c-11.797,0-21.333,9.536-21.333,21.333v21.333c0,11.797,9.536,21.333,21.333,21.333
				S512,441.527,512,429.73v-21.333C512,396.599,502.464,387.063,490.667,387.063z"/>
			<path d="M362.667,213.333h-21.333c-11.797,0-21.333,9.536-21.333,21.333c0,11.797,9.536,21.333,21.333,21.333h21.333
				c11.797,0,21.333-9.536,21.333-21.333C384,222.869,374.464,213.333,362.667,213.333z"/>
			<path d="M457.146,469.333h-9.152V448c0-11.797-9.536-21.333-21.333-21.333c-11.776,0-21.333,9.536-21.333,21.333v21.333
				c0,7.488,4.096,13.76,9.92,17.557c-0.235,1.28-0.768,2.432-0.768,3.776c0,11.797,9.536,21.333,21.333,21.333h21.333
				c11.797,0,21.333-9.536,21.333-21.333S468.943,469.333,457.146,469.333z"/>
			<path d="M362.667,64c26.56,0,39.531,10.112,42.112,33.28l-5.696-5.696c-8.341-8.341-21.824-8.341-30.165,0
				c-8.341,8.341-8.341,21.824,0,30.165l42.645,42.645c1.963,1.984,4.331,3.541,6.955,4.629c2.603,1.088,5.376,1.643,8.149,1.643
				s5.547-0.555,8.149-1.643c2.624-1.088,4.992-2.645,6.955-4.629l42.645-42.645c8.341-8.341,8.341-21.824,0-30.165
				c-8.341-8.341-21.824-8.341-30.165,0l-6.891,6.891c-3.221-48.341-34.133-77.141-84.693-77.141
				c-11.797,0-21.333,9.536-21.333,21.333C341.333,54.464,350.869,64,362.667,64z"/>
			<path d="M256,0H42.667C19.136,0,0,19.136,0,42.667V64h298.667V42.667C298.667,19.136,279.531,0,256,0z"/>
			<polygon points="0,341.333 298.667,341.333 298.667,277.333 298.667,256 298.667,106.667 0,106.667 			"/>
			<path d="M0,469.333C0,492.864,19.136,512,42.667,512H256c7.979,0,15.36-2.347,21.76-6.165c0.405-0.235,0.875-0.32,1.28-0.576
				c0.149-0.107,0.256-0.256,0.405-0.341c2.603-1.728,4.992-3.733,7.147-5.973c0.811-0.832,1.472-1.771,2.219-2.667
				c1.28-1.579,2.496-3.179,3.541-4.928c0.661-1.088,1.259-2.197,1.835-3.349c0.917-1.877,1.643-3.819,2.283-5.845
				c0.341-1.045,0.725-2.048,0.981-3.115c0.725-3.136,1.216-6.357,1.216-9.707V384H0V469.333z M149.333,405.333
				c11.776,0,21.333,9.557,21.333,21.333S161.109,448,149.333,448S128,438.443,128,426.667S137.557,405.333,149.333,405.333z"/>
		</g>
	</g>
</g>
<g>
</g>
<g>
</g>
<g>
</g>
<g>
</g>
<g>
</g>
<g>
</g>
<g>
</g>
<g>
</g>
<g>
</g>
<g>
</g>
<g>
</g>
<g>
</g>
<g>
</g>
<g>
</g>
<g>
</g>
</svg>
