<?xml version="1.0" encoding="iso-8859-1"?>
<!-- Generator: Adobe Illustrator 19.0.0, SVG Export Plug-In . SVG Version: 6.00 Build 0)  -->
<svg version="1.1" id="Capa_1" xmlns="http://www.w3.org/2000/svg" xmlns:xlink="http://www.w3.org/1999/xlink" x="0px" y="0px"
	 viewBox="0 0 512 512" style="enable-background:new 0 0 512 512;" xml:space="preserve">
<g>
	<g>
		<g>
			<path d="M320,85.333c0,11.797,9.536,21.333,21.333,21.333h21.333c11.797,0,21.333-9.536,21.333-21.333
				C384,73.536,374.464,64,362.667,64h-21.333C329.536,64,320,73.536,320,85.333z"/>
			<path d="M234.667,106.667H256c11.797,0,21.333-9.536,21.333-21.333C277.333,73.536,267.797,64,256,64V42.667
				c0-11.797-9.536-21.333-21.333-21.333c-11.797,0-21.333,9.536-21.333,21.333V64c0,3.968,1.387,7.488,3.264,10.667
				c-1.877,3.179-3.264,6.699-3.264,10.667C213.333,97.131,222.869,106.667,234.667,106.667z"/>
			<path d="M301.73,42.667h21.333c11.797,0,21.333-9.536,21.333-21.333C344.397,9.536,334.861,0,323.063,0H301.73
				c-11.797,0-21.333,9.536-21.333,21.333C280.397,33.131,289.933,42.667,301.73,42.667z"/>
			<path d="M234.667,192c11.797,0,21.333-9.536,21.333-21.333v-21.333c0-11.797-9.536-21.333-21.333-21.333
				c-11.797,0-21.333,9.536-21.333,21.333v21.333C213.333,182.464,222.869,192,234.667,192z"/>
			<path d="M451.063,21.333C451.063,9.536,441.527,0,429.73,0h-21.333c-11.797,0-21.333,9.536-21.333,21.333
				c0,11.797,9.536,21.333,21.333,21.333h21.333C441.527,42.667,451.063,33.131,451.063,21.333z"/>
			<path d="M490.667,33.521c-11.797,0-21.333,9.536-21.333,21.333v9.152H448c-11.797,0-21.333,9.536-21.333,21.333
				c0,11.776,9.536,21.333,21.333,21.333h21.333c7.488,0,13.76-4.075,17.557-9.92c1.28,0.235,2.432,0.768,3.776,0.768
				c11.797,0,21.333-9.536,21.333-21.333V54.854C512,43.057,502.464,33.521,490.667,33.521z"/>
			<path d="M505.25,232.958c-0.107-0.149-0.235-0.256-0.341-0.405c-1.707-2.603-3.712-4.992-5.952-7.147
				c-0.853-0.811-1.792-1.472-2.688-2.219c-1.557-1.28-3.179-2.496-4.928-3.541c-1.088-0.661-2.197-1.259-3.349-1.813
				c-1.856-0.939-3.819-1.664-5.824-2.304c-1.045-0.341-2.048-0.725-3.136-0.981c-3.115-0.725-6.336-1.216-9.707-1.216h-21.333
				v298.667h21.333c23.531,0,42.667-19.136,42.667-42.667V255.998c0-8.192-2.432-15.787-6.443-22.293
				C505.399,233.47,505.399,233.193,505.25,232.958z"/>
			<path d="M490.667,140.188c-11.797,0-21.333,9.536-21.333,21.333v21.333c0,11.797,9.536,21.333,21.333,21.333
				S512,194.652,512,182.854v-21.333C512,149.724,502.464,140.188,490.667,140.188z"/>
			<path d="M164.395,70.225L121.749,27.58c-8.341-8.32-21.824-8.32-30.165,0c-8.341,8.341-8.341,21.845,0,30.165l6.891,6.891
				c-48.341,3.221-77.141,34.133-77.141,84.693c0,11.797,9.536,21.333,21.333,21.333c11.797,0,21.333-9.536,21.333-21.333
				c0-26.539,10.112-39.531,33.28-42.112l-5.696,5.696c-8.341,8.341-8.341,21.845,0,30.165c4.16,4.181,9.621,6.251,15.083,6.251
				c5.461,0,10.923-2.069,15.083-6.251l42.645-42.645c1.963-1.963,3.541-4.331,4.629-6.955c2.155-5.205,2.155-11.072,0-16.299
				C167.936,74.556,166.357,72.188,164.395,70.225z"/>
			<polygon points="362.667,213.333 277.333,213.333 256,213.333 170.667,213.333 170.667,512 405.333,512 405.333,213.333 
				384,213.333 			"/>
			<path d="M0,256v213.333C0,492.864,19.136,512,42.667,512H128V213.333H42.667C19.136,213.333,0,232.469,0,256z M85.333,341.333
				c11.776,0,21.333,9.557,21.333,21.333S97.109,384,85.333,384S64,374.443,64,362.667S73.557,341.333,85.333,341.333z"/>
		</g>
	</g>
</g>
<g>
</g>
<g>
</g>
<g>
</g>
<g>
</g>
<g>
</g>
<g>
</g>
<g>
</g>
<g>
</g>
<g>
</g>
<g>
</g>
<g>
</g>
<g>
</g>
<g>
</g>
<g>
</g>
<g>
</g>
</svg>
