<?xml version="1.0" encoding="iso-8859-1"?>
<!-- Generator: Adobe Illustrator 19.0.0, SVG Export Plug-In . SVG Version: 6.00 Build 0)  -->
<svg version="1.1" id="Capa_1" xmlns="http://www.w3.org/2000/svg" xmlns:xlink="http://www.w3.org/1999/xlink" x="0px" y="0px"
	 viewBox="0 0 512 512" style="enable-background:new 0 0 512 512;" xml:space="preserve">
<g>
	<g>
		<g>
			<path d="M480.707,40.853c-8.341-8.341-21.824-8.341-30.165,0s-8.341,21.824,0,30.165c25.067,25.067,25.067,65.877,0,90.944
				c-8.341,8.32-8.341,21.824,0,30.165c4.16,4.16,9.621,6.251,15.083,6.251s10.923-2.091,15.083-6.251
				C522.414,150.421,522.414,82.56,480.707,40.853z"/>
			<path d="M61.458,40.853c-8.341-8.341-21.824-8.341-30.165,0c-41.707,41.707-41.707,109.568,0,151.275
				c4.16,4.16,9.621,6.251,15.083,6.251c5.461,0,10.923-2.091,15.083-6.251c8.341-8.341,8.341-21.845,0-30.165
				c-25.067-25.067-25.067-65.877,0-90.944C69.799,62.677,69.799,49.195,61.458,40.853z"/>
			<path d="M362.666,0H149.332c-23.531,0-42.667,19.136-42.667,42.667V64h298.667V42.667C405.332,19.136,386.196,0,362.666,0z"/>
			<rect x="106.666" y="106.667" width="298.667" height="234.667"/>
			<path d="M106.666,469.333c0,23.531,19.136,42.667,42.667,42.667h213.333c23.531,0,42.667-19.136,42.667-42.667V384H106.666
				V469.333z M255.999,405.333c11.776,0,21.333,9.557,21.333,21.333S267.775,448,255.999,448c-11.776,0-21.333-9.557-21.333-21.333
				S244.223,405.333,255.999,405.333z"/>
		</g>
	</g>
</g>
<g>
</g>
<g>
</g>
<g>
</g>
<g>
</g>
<g>
</g>
<g>
</g>
<g>
</g>
<g>
</g>
<g>
</g>
<g>
</g>
<g>
</g>
<g>
</g>
<g>
</g>
<g>
</g>
<g>
</g>
</svg>
