<?xml version="1.0" encoding="iso-8859-1"?>
<!-- Generator: Adobe Illustrator 19.0.0, SVG Export Plug-In . SVG Version: 6.00 Build 0)  -->
<svg version="1.1" id="Capa_1" xmlns="http://www.w3.org/2000/svg" xmlns:xlink="http://www.w3.org/1999/xlink" x="0px" y="0px"
	 viewBox="0 0 511.973 511.973" style="enable-background:new 0 0 511.973 511.973;" xml:space="preserve">
<g>
	<g>
		<g>
			<path d="M336.622,298.64c11.776,0,21.333-9.557,21.333-21.333s-9.557-21.333-21.333-21.333s-21.333,9.557-21.333,21.333
				S324.846,298.64,336.622,298.64z"/>
			<path d="M451.374,316.667c0-13.056-3.179-25.28-8.768-36.395c13.867-15.659,13.461-39.573-1.536-54.549l-10.261-10.261
				c7.445-5.099,12.48-13.419,12.48-23.125c0-15.637-12.672-28.309-28.331-28.309c-9.685,0-18.005,5.035-23.104,12.459l-1.493-1.493
				c7.424-5.077,12.459-13.419,12.459-23.104c0-15.659-12.672-28.331-28.309-28.331c-9.707,0-18.027,5.035-23.125,12.48
				l-1.493-1.493c7.445-5.099,12.48-13.419,12.48-23.125c0-15.637-12.693-28.331-28.331-28.331c-9.685,0-18.027,5.056-23.104,12.48
				l-1.493-1.493c7.424-5.099,12.459-13.419,12.459-23.104c0-15.659-12.672-28.331-28.309-28.331
				c-9.707,0-18.027,5.035-23.125,12.459l-3.627-3.627l-39.829-39.808c-15.531-15.552-40.875-15.552-56.405,0l-99.627,99.627
				c-15.573,15.552-15.573,40.853,0,56.405l29.547,29.568c-18.005,8.576-30.571,26.795-30.571,48.043
				c0,26.048,18.773,47.701,43.499,52.331c60.331,60.373,85.099,85.141,95.168,95.189v12.48c-11.797,0-21.333,9.536-21.333,21.333
				v64c0,11.797,9.536,21.333,21.333,21.333h213.333c11.797,0,21.333-9.536,21.333-21.333v-64c0-11.797-9.536-21.333-21.333-21.333
				v-32.405C434.03,362.491,451.374,343.525,451.374,316.667z M387.779,345.595c-5.355,4.053-8.491,10.368-8.491,17.045v42.667h-128
				v-21.333c0-5.76-2.389-11.328-6.507-15.339c-2.091-2.048-40.043-40-70.016-69.995h27.136l83.136,83.115
				c7.765,7.787,18.005,11.669,28.203,11.669c10.219,0,20.437-3.883,28.224-11.669l67.2-67.179c0.021,0.683,0.043,1.387,0.043,2.091
				C408.707,325.541,401.881,334.992,387.779,345.595z M313.241,349.648l-54.251-54.272c0.469-0.171,0.917-0.427,1.387-0.619
				c0.917-0.363,1.771-0.811,2.667-1.237c2.027-0.939,3.947-1.984,5.824-3.157c0.875-0.555,1.749-1.088,2.581-1.685
				c1.963-1.408,3.819-2.944,5.568-4.608c0.512-0.469,1.088-0.896,1.579-1.408c2.155-2.197,4.117-4.565,5.888-7.125
				c0.448-0.64,0.811-1.365,1.237-2.048c1.237-1.984,2.368-4.011,3.349-6.165c0.427-0.96,0.832-1.941,1.216-2.944
				c0.789-2.069,1.451-4.203,1.984-6.4c0.235-0.96,0.512-1.92,0.704-2.901c0.597-3.179,0.981-6.421,0.981-9.771
				c0-29.419-23.915-53.333-53.333-53.333h-85.035l-14.635-14.635l95.701-95.701l172.309,172.288L313.241,349.648z"/>
		</g>
	</g>
</g>
<g>
</g>
<g>
</g>
<g>
</g>
<g>
</g>
<g>
</g>
<g>
</g>
<g>
</g>
<g>
</g>
<g>
</g>
<g>
</g>
<g>
</g>
<g>
</g>
<g>
</g>
<g>
</g>
<g>
</g>
</svg>
