<?xml version="1.0" encoding="iso-8859-1"?>
<!-- Generator: Adobe Illustrator 19.0.0, SVG Export Plug-In . SVG Version: 6.00 Build 0)  -->
<svg version="1.1" id="Capa_1" xmlns="http://www.w3.org/2000/svg" xmlns:xlink="http://www.w3.org/1999/xlink" x="0px" y="0px"
	 viewBox="0 0 512 512" style="enable-background:new 0 0 512 512;" xml:space="preserve">
<g>
	<g>
		<g>
			<path d="M362.667,0H149.333c-23.531,0-42.667,19.136-42.667,42.667V64h298.667V42.667C405.333,19.136,386.197,0,362.667,0z"/>
			<path d="M106.667,341.333h298.667V106.667H106.667V341.333z M192,149.333h128c11.797,0,21.333,9.536,21.333,21.333
				c0,11.797-9.536,21.333-21.333,21.333H192c-11.797,0-21.333-9.536-21.333-21.333C170.667,158.869,180.203,149.333,192,149.333z
				 M192,256h128c11.797,0,21.333,9.536,21.333,21.333c0,11.797-9.536,21.333-21.333,21.333H192
				c-11.797,0-21.333-9.536-21.333-21.333C170.667,265.536,180.203,256,192,256z"/>
			<path d="M106.667,469.333c0,23.531,19.136,42.667,42.667,42.667h213.333c23.531,0,42.667-19.136,42.667-42.667V384H106.667
				V469.333z M256,405.333c11.776,0,21.333,9.557,21.333,21.333S267.776,448,256,448c-11.776,0-21.333-9.557-21.333-21.333
				S244.224,405.333,256,405.333z"/>
		</g>
	</g>
</g>
<g>
</g>
<g>
</g>
<g>
</g>
<g>
</g>
<g>
</g>
<g>
</g>
<g>
</g>
<g>
</g>
<g>
</g>
<g>
</g>
<g>
</g>
<g>
</g>
<g>
</g>
<g>
</g>
<g>
</g>
</svg>
