<?xml version="1.0" encoding="iso-8859-1"?>
<!-- Generator: Adobe Illustrator 19.0.0, SVG Export Plug-In . SVG Version: 6.00 Build 0)  -->
<svg version="1.1" id="Capa_1" xmlns="http://www.w3.org/2000/svg" xmlns:xlink="http://www.w3.org/1999/xlink" x="0px" y="0px"
	 viewBox="0 0 512 512" style="enable-background:new 0 0 512 512;" xml:space="preserve">
<g>
	<g>
		<g>
			<path d="M458.667,128H160c-11.776,0-21.333,9.536-21.333,21.333V256c0,11.797,9.557,21.333,21.333,21.333h21.333v21.333
				c0,7.872,4.331,15.104,11.264,18.816c3.157,1.685,6.613,2.517,10.069,2.517c4.139,0,8.256-1.216,11.84-3.584l58.624-39.083
				h185.536c11.776,0,21.333-9.536,21.333-21.333V149.333C480,137.536,470.443,128,458.667,128z"/>
			<path d="M330.667,42.667C330.667,19.136,311.531,0,288,0H74.667C51.136,0,32,19.136,32,42.667V64h298.667V42.667z"/>
			<path d="M32,469.333C32,492.864,51.136,512,74.667,512H288c23.531,0,42.667-19.136,42.667-42.667V384H32V469.333z
				 M181.333,405.333c11.776,0,21.333,9.557,21.333,21.333S193.109,448,181.333,448S160,438.443,160,426.667
				S169.557,405.333,181.333,405.333z"/>
			<path d="M112.649,106.669h-80.64v234.667h123.243c-6.272-6.976-11.115-15.083-13.845-24.085
				c-26.24-7.979-45.397-32.427-45.397-61.248V149.335C96.009,132.887,102.409,118.018,112.649,106.669z"/>
		</g>
	</g>
</g>
<g>
</g>
<g>
</g>
<g>
</g>
<g>
</g>
<g>
</g>
<g>
</g>
<g>
</g>
<g>
</g>
<g>
</g>
<g>
</g>
<g>
</g>
<g>
</g>
<g>
</g>
<g>
</g>
<g>
</g>
</svg>
