<?xml version="1.0" encoding="iso-8859-1"?>
<!-- Generator: Adobe Illustrator 19.0.0, SVG Export Plug-In . SVG Version: 6.00 Build 0)  -->
<svg version="1.1" id="Capa_1" xmlns="http://www.w3.org/2000/svg" xmlns:xlink="http://www.w3.org/1999/xlink" x="0px" y="0px"
	 viewBox="0 0 512.002 512.002" style="enable-background:new 0 0 512.002 512.002;" xml:space="preserve">
<g>
	<g>
		<path d="M351.659,227.073l136.405-120.597C502.784,96.065,512,82.497,512,65.835c0-43.221-61.632-65.835-122.475-65.835
			c-53.888,0-108.267,17.749-120.064,51.819L256,73.451l-13.461-21.632C230.741,17.75,176.341,0.001,122.475,0.001
			C61.632,0.001,0,22.614,0,65.835c0,16.469,8.96,29.909,23.381,40.277l136.171,122.219L3.221,479.403
			c-5.589,8.981-3.733,20.736,4.331,27.563c3.989,3.349,8.875,5.035,13.781,5.035c5.035,0,10.112-1.792,14.123-5.355
			l219.669-194.219L476.608,506.71c4.011,3.52,9.045,5.291,14.059,5.291c4.907,0,9.813-1.685,13.803-5.056
			c8.064-6.848,9.899-18.56,4.309-27.541L351.659,227.073z M182.464,191.553l-66.795-59.947c0.811,0.021,1.643-0.021,2.453-0.021
			c1.451,0.043,2.901,0.107,4.352,0.107c2.731,0,5.461-0.107,8.171-0.192h0.619c25.728-0.939,50.965-5.909,71.147-14.741
			c0.384-0.149,0.768-0.32,1.131-0.491c7.552-3.392,14.357-7.317,20.181-11.797c0.277-0.235,0.661-0.427,0.939-0.661l6.208,9.963
			L182.464,191.553z M309.739,65.985c1.941-6.485,29.056-23.317,79.787-23.317c50.261,0,77.397,16.555,79.744,23.168
			c-0.085,0.235-0.448,0.576-0.576,0.832l-7.189,6.357c-2.197,1.429-4.885,2.816-7.787,4.16c-1.643,0.747-3.307,1.493-5.205,2.24
			c-1.195,0.448-2.496,0.875-3.755,1.323c-1.835,0.619-3.776,1.237-5.803,1.835c-1.557,0.448-3.136,0.896-4.8,1.301
			c-2.475,0.619-5.163,1.173-7.893,1.707c-2.197,0.427-4.48,0.811-6.805,1.173c-3.072,0.469-6.251,0.875-9.6,1.216
			c-1.643,0.149-3.285,0.299-4.971,0.427c-4.885,0.341-9.92,0.619-15.36,0.619c-6.379,0-12.373-0.256-17.984-0.747
			c-39.36-3.328-60.331-16.981-61.803-22.229C309.76,66.027,309.739,66.006,309.739,65.985z M287.317,283.969l31.936-28.224
			l77.141,123.883L287.317,283.969z"/>
	</g>
</g>
<g>
</g>
<g>
</g>
<g>
</g>
<g>
</g>
<g>
</g>
<g>
</g>
<g>
</g>
<g>
</g>
<g>
</g>
<g>
</g>
<g>
</g>
<g>
</g>
<g>
</g>
<g>
</g>
<g>
</g>
</svg>
