<?xml version="1.0" encoding="iso-8859-1"?>
<!-- Generator: Adobe Illustrator 19.0.0, SVG Export Plug-In . SVG Version: 6.00 Build 0)  -->
<svg version="1.1" id="Capa_1" xmlns="http://www.w3.org/2000/svg" xmlns:xlink="http://www.w3.org/1999/xlink" x="0px" y="0px"
	 viewBox="0 0 512.038 512.038" style="enable-background:new 0 0 512.038 512.038;" xml:space="preserve">
<g>
	<g>
		<path d="M511.819,352.669l-9.1-63.6H9.319l-9.1,63.6c-0.9,6.4,1,12.9,5.2,17.7c4.3,4.9,10.4,7.7,16.8,7.7h155.8v89
			c0,12.3,10,22.3,22.3,22.3h89c12.3,0,22.3-10,22.3-22.3v-89h178.1c6.5,0,12.6-2.8,16.8-7.7
			C510.819,365.569,512.719,359.069,511.819,352.669z M267.119,444.869h-44.5v-66.8h44.5V444.869z"/>
	</g>
</g>
<g>
	<g>
		<path d="M467.319,41.769c-1.6-11-11-19.1-22-19.1h-289.5v43.7c0,12.3-10,22.3-22.3,22.3s-22.3-10-22.3-22.3v-43.7h-44.4
			c-11.1,0-20.5,8.1-22,19.1l-29.1,202.8h480.6L467.319,41.769z"/>
	</g>
</g>
<g>
</g>
<g>
</g>
<g>
</g>
<g>
</g>
<g>
</g>
<g>
</g>
<g>
</g>
<g>
</g>
<g>
</g>
<g>
</g>
<g>
</g>
<g>
</g>
<g>
</g>
<g>
</g>
<g>
</g>
</svg>
