<?xml version="1.0" encoding="iso-8859-1"?>
<!-- Generator: Adobe Illustrator 19.0.0, SVG Export Plug-In . SVG Version: 6.00 Build 0)  -->
<svg version="1.1" id="Capa_1" xmlns="http://www.w3.org/2000/svg" xmlns:xlink="http://www.w3.org/1999/xlink" x="0px" y="0px"
	 viewBox="0 0 512.044 512.044" style="enable-background:new 0 0 512.044 512.044;" xml:space="preserve">
<g>
	<g>
		<path d="M512,84.922c0-2.5-0.6-4.9-1.5-7.2c-0.2-0.6-0.6-1.2-0.9-1.8c-0.4-0.8-0.7-1.7-1.2-2.5l-42.7-64
			c-3.8-5.8-10.5-9.4-17.6-9.4h-384c-7.1,0-13.8,3.6-17.7,9.5l-42.7,64c-0.5,0.8-0.8,1.7-1.2,2.5c-0.3,0.6-0.6,1.1-0.9,1.7
			c-0.9,2.3-1.4,4.7-1.5,7.2c0,0.1-0.1,0.3-0.1,0.4v85.3c0.1,11.9,9.6,21.4,21.4,21.4v298.7c0,11.8,9.5,21.3,21.3,21.3h426.7
			c11.8,0,21.3-9.5,21.3-21.3v-298.7c11.8,0,21.3-9.5,21.3-21.3v-85.4C512.1,85.222,512,85.122,512,84.922z M75.5,42.722h361.2
			l14.2,21.3H61.3L75.5,42.722z M405.4,426.722c0,11.8-9.5,21.3-21.3,21.3h-256c-11.8,0-21.3-9.5-21.3-21.3v-85.3
			c0-11.8,9.5-21.3,21.3-21.3h256c11.8,0,21.3,9.5,21.3,21.3V426.722z M469.5,149.322h-0.1H42.8v-42.7h426.7V149.322z"/>
	</g>
</g>
<g>
	<g>
		<rect x="149.4" y="362.722" width="213.4" height="42.6"/>
	</g>
</g>
<g>
</g>
<g>
</g>
<g>
</g>
<g>
</g>
<g>
</g>
<g>
</g>
<g>
</g>
<g>
</g>
<g>
</g>
<g>
</g>
<g>
</g>
<g>
</g>
<g>
</g>
<g>
</g>
<g>
</g>
</svg>
