<?xml version="1.0" encoding="iso-8859-1"?>
<!-- Generator: Adobe Illustrator 19.0.0, SVG Export Plug-In . SVG Version: 6.00 Build 0)  -->
<svg version="1.1" id="Capa_1" xmlns="http://www.w3.org/2000/svg" xmlns:xlink="http://www.w3.org/1999/xlink" x="0px" y="0px"
	 viewBox="0 0 512 512" style="enable-background:new 0 0 512 512;" xml:space="preserve">
<g>
	<g>
		<g>
			<path d="M447.915,0H64.085C28.757,0,0,28.757,0,64.085v170.581h512V64.085C512,28.757,483.243,0,447.915,0z M277.333,170.667
				h-42.667c-35.285,0-64-28.715-64-64c0-11.797,9.536-21.333,21.333-21.333s21.333,9.536,21.333,21.333
				c0,11.776,9.557,21.333,21.333,21.333h42.667c11.776,0,21.333-9.557,21.333-21.333c0-11.797,9.536-21.333,21.333-21.333
				s21.333,9.536,21.333,21.333C341.333,141.952,312.619,170.667,277.333,170.667z"/>
			<path d="M0,447.915C0,483.243,28.757,512,64.085,512h383.829C483.243,512,512,483.243,512,447.915V277.333H0V447.915z M192,320
				c11.797,0,21.333,9.536,21.333,21.333c0,11.776,9.557,21.333,21.333,21.333h42.667c11.776,0,21.333-9.557,21.333-21.333
				c0-11.797,9.536-21.333,21.333-21.333s21.333,9.536,21.333,21.333c0,35.285-28.715,64-64,64h-42.667c-35.285,0-64-28.715-64-64
				C170.667,329.536,180.203,320,192,320z"/>
		</g>
	</g>
</g>
<g>
</g>
<g>
</g>
<g>
</g>
<g>
</g>
<g>
</g>
<g>
</g>
<g>
</g>
<g>
</g>
<g>
</g>
<g>
</g>
<g>
</g>
<g>
</g>
<g>
</g>
<g>
</g>
<g>
</g>
</svg>
