<?xml version="1.0" encoding="iso-8859-1"?>
<!-- Generator: Adobe Illustrator 19.0.0, SVG Export Plug-In . SVG Version: 6.00 Build 0)  -->
<svg version="1.1" id="Capa_1" xmlns="http://www.w3.org/2000/svg" xmlns:xlink="http://www.w3.org/1999/xlink" x="0px" y="0px"
	 viewBox="0 0 512 512" style="enable-background:new 0 0 512 512;" xml:space="preserve">
<g>
	<g>
		<g>
			<path d="M469.333,0H42.667C19.136,0,0,19.136,0,42.667v106.667c0,11.797,9.536,21.333,21.333,21.333h21.333v320
				C42.667,502.464,52.203,512,64,512h384c11.797,0,21.333-9.536,21.333-21.333v-320h21.333c11.797,0,21.333-9.536,21.333-21.333
				V42.667C512,19.136,492.864,0,469.333,0z M384,384c0,11.797-9.536,21.333-21.333,21.333H149.333
				C137.536,405.333,128,395.797,128,384V277.333c0-11.797,9.536-21.333,21.333-21.333h213.333c11.797,0,21.333,9.536,21.333,21.333
				V384z M469.333,128H448H64H42.667V42.667h426.667V128z"/>
			<path d="M170.667,106.667h170.667c11.797,0,21.333-9.536,21.333-21.333c0-11.797-9.536-21.333-21.333-21.333H170.667
				c-11.797,0-21.333,9.536-21.333,21.333C149.333,97.131,158.869,106.667,170.667,106.667z"/>
			<rect x="170.667" y="298.667" width="170.667" height="64"/>
		</g>
	</g>
</g>
<g>
</g>
<g>
</g>
<g>
</g>
<g>
</g>
<g>
</g>
<g>
</g>
<g>
</g>
<g>
</g>
<g>
</g>
<g>
</g>
<g>
</g>
<g>
</g>
<g>
</g>
<g>
</g>
<g>
</g>
</svg>
