<?xml version="1.0" encoding="iso-8859-1"?>
<!-- Generator: Adobe Illustrator 19.0.0, SVG Export Plug-In . SVG Version: 6.00 Build 0)  -->
<svg version="1.1" id="Capa_1" xmlns="http://www.w3.org/2000/svg" xmlns:xlink="http://www.w3.org/1999/xlink" x="0px" y="0px"
	 viewBox="0 0 512.009 512.009" style="enable-background:new 0 0 512.009 512.009;" xml:space="preserve">
<g>
	<g>
		<g>
			<path d="M469.338,0H42.671C19.14,0,0.004,19.136,0.004,42.667v106.667c0,11.797,9.536,21.333,21.333,21.333h21.333V384h51.925
				c41.941,0,76.075,34.133,76.075,76.075V512h170.667v-51.947c0-41.92,34.133-76.053,76.075-76.053h51.925V170.667h21.333
				c11.797,0,21.333-9.536,21.333-21.333V42.667C512.004,19.136,492.868,0,469.338,0z M277.338,362.667h-42.667
				c-35.285,0-64-28.715-64-64c0-11.797,9.536-21.333,21.333-21.333s21.333,9.536,21.333,21.333
				c0,11.776,9.557,21.333,21.333,21.333h42.667c11.776,0,21.333-9.557,21.333-21.333c0-11.797,9.536-21.333,21.333-21.333
				s21.333,9.536,21.333,21.333C341.338,333.952,312.623,362.667,277.338,362.667z M469.338,128h-21.333h-384H42.671V42.667h426.667
				V128z"/>
			<path d="M170.671,106.667h170.667c11.797,0,21.333-9.536,21.333-21.333c0-11.797-9.536-21.333-21.333-21.333H170.671
				c-11.797,0-21.333,9.536-21.333,21.333C149.338,97.131,158.874,106.667,170.671,106.667z"/>
			<path d="M94.588,426.667H42.662v21.568c0,35.157,28.608,63.765,63.787,63.765h21.547v-51.925
				C127.996,441.664,112.998,426.667,94.588,426.667z"/>
			<path d="M384.004,460.062v51.947h21.568c35.157,0,63.765-28.608,63.765-63.787v-21.547h-51.925
				C399.002,426.675,384.004,441.651,384.004,460.062z"/>
		</g>
	</g>
</g>
<g>
</g>
<g>
</g>
<g>
</g>
<g>
</g>
<g>
</g>
<g>
</g>
<g>
</g>
<g>
</g>
<g>
</g>
<g>
</g>
<g>
</g>
<g>
</g>
<g>
</g>
<g>
</g>
<g>
</g>
</svg>
