<?xml version="1.0" encoding="iso-8859-1"?>
<!-- Generator: Adobe Illustrator 19.0.0, SVG Export Plug-In . SVG Version: 6.00 Build 0)  -->
<svg version="1.1" id="Capa_1" xmlns="http://www.w3.org/2000/svg" xmlns:xlink="http://www.w3.org/1999/xlink" x="0px" y="0px"
	 viewBox="0 0 512.005 512.005" style="enable-background:new 0 0 512.005 512.005;" xml:space="preserve">
<g>
	<g>
		<g>
			<path d="M6.443,268.673c-4.075,3.968-6.4,9.408-6.443,15.125c-0.043,5.696,2.219,11.179,6.229,15.211l206.293,206.72
				c4.011,4.032,9.451,6.272,15.104,6.272c6.379-0.149,11.243-2.304,15.232-6.4l36.587-37.312L43.755,232.3L6.443,268.673z"/>
			<path d="M505.754,91.587L420.421,6.254c-3.989-3.989-9.408-6.251-15.083-6.251H290.8c-5.547,0-10.859,2.155-14.827,5.995
				L230.81,49.732c52.949,2.837,110.272,19.392,165.995,61.205c9.429,7.061,11.349,20.437,4.267,29.867
				c-4.203,5.589-10.581,8.533-17.088,8.533c-4.459,0-8.939-1.387-12.779-4.267C308.037,97.689,242.97,87.278,186.97,92.185
				L73.712,201.881l236.096,236.416l24.491-25.109c-1.472-0.768-3.029-1.323-4.459-2.133
				c-22.869-13.035-73.301-54.272-47.381-156.011c2.923-11.413,14.485-18.389,25.941-15.403
				c11.413,2.901,18.304,14.528,15.403,25.941c-13.525,53.12-4.139,90.581,27.136,108.373c4.885,2.773,10.112,4.736,15.467,6.336
				l99.456-101.952c-2.603-9.173-5.739-14.805-5.845-14.976c-5.888-10.219-2.389-23.253,7.829-29.141
				c10.155-5.909,23.253-2.432,29.141,7.808c0.512,0.875,1.003,1.899,1.515,2.859l7.445-7.637c3.883-3.968,6.059-9.323,6.059-14.891
				V106.67C512.005,100.995,509.743,95.577,505.754,91.587z"/>
		</g>
	</g>
</g>
<g>
</g>
<g>
</g>
<g>
</g>
<g>
</g>
<g>
</g>
<g>
</g>
<g>
</g>
<g>
</g>
<g>
</g>
<g>
</g>
<g>
</g>
<g>
</g>
<g>
</g>
<g>
</g>
<g>
</g>
</svg>
